<?xml version="1.0" standalone="no"?>
<!DOCTYPE svg PUBLIC "-//W3C//DTD SVG 1.1//EN" "http://www.w3.org/Graphics/SVG/1.1/DTD/svg11.dtd" >
<svg>
<metadata>
Created by FontForge 20110222 at Sun Nov 23 17:56:34 2014
 By www-data
Copyright (c) 2014 Than Anh Thanh - anhthanh2410@gmail.com
</metadata>
<defs>
<font id="Coke4U" horiz-adv-x="593" >
  <font-face 
    font-family="Coke4U"
    font-weight="400"
    font-stretch="normal"
    units-per-em="1000"
    panose-1="2 0 5 3 5 0 0 2 0 4"
    ascent="800"
    descent="-200"
    x-height="522"
    cap-height="709"
    bbox="-117 -278 1038 1868"
    underline-thickness="49"
    underline-position="-49"
    unicode-range="U+0020-2122"
  />
    <missing-glyph />
    <glyph glyph-name="scaron" unicode="&#x161;" horiz-adv-x="574" 
d="M381 827q0 -6 -4 -12l-71 -121q-8 -13 -20 -13t-20 13q-1 2 -3 5t-8.5 14.5t-20.5 35t-38 66.5q-4 6 -4 12q0 11 14 18q11 5 16 5q9 0 16 -12l48 -122l49 122q7 12 15 12q7 0 17 -5q14 -7 14 -18zM544 173q0 -54 -26.5 -88.5t-66.5 -55t-88 -29t-91 -8.5q-36 0 -78.5 7.5
t-78.5 25.5t-60 48.5t-24 76.5q0 31 12 54t32.5 39t47 24t54.5 8q23 0 45.5 -5.5t40 -17.5t28 -31t10.5 -45q0 -30 -9 -46t-23 -24.5t-30.5 -10.5t-30 -4.5t-22.5 -6.5t-9 -17q0 -12 5.5 -19t14.5 -11.5t20 -6t21 -1.5q28 0 49 11.5t34.5 31.5t21 45.5t7.5 51.5
q0 22 -7 43.5t-19 38.5t-29.5 28t-39.5 13q-38 8 -77.5 15.5t-71 22.5t-51.5 42.5t-20 77.5q0 51 26.5 83t67 50t87.5 25t88 7q35 0 74.5 -8t73 -26t55.5 -47.5t22 -73.5q0 -29 -11.5 -50.5t-30.5 -35t-43.5 -20t-49.5 -6.5q-22 0 -43.5 5t-38.5 17t-27 30.5t-10 45.5
q0 22 8.5 35t21 21t28 11.5t28 7t21 8t8.5 14.5q0 11 -4.5 18.5t-12.5 12t-17 6t-18 1.5q-26 0 -48.5 -12t-38 -31t-24.5 -43t-9 -49q0 -38 10.5 -58.5t36.5 -33t70.5 -22.5t111.5 -27q26 -7 44.5 -21t30 -32.5t17 -39t5.5 -39.5z" />
    <glyph glyph-name="Thorn" unicode="&#xde;" horiz-adv-x="631" 
d="M623 329q0 -61 -17 -119.5t-50 -103t-82.5 -71.5t-115.5 -27q-37 0 -71.5 12t-61 34.5t-42.5 53t-16 68.5q0 32 10.5 60t30 49t47.5 32.5t62 11.5q26 0 49 -9t40.5 -26t27.5 -40.5t10 -51.5q0 -30 -10 -49.5t-27 -31t-38.5 -16t-47.5 -4.5q-12 -6 -17.5 -11t-5.5 -19
q0 -10 7 -15.5t16 -8.5t19.5 -4t17.5 -1q37 0 64 17.5t44 44.5t26 60t9 64q0 40 -11 75.5t-33.5 63t-54.5 43.5t-75 16q-44 0 -79.5 -18.5t-60 -49t-37.5 -70t-13 -81.5q0 -40 8.5 -71t26 -56.5t44.5 -45.5t64 -39v-80q0 -31 1.5 -60t10 -52t24 -37.5t42.5 -14.5l3 -4
q-33 0 -78 -0.5t-92 -0.5h-90.5t-72.5 -1q23 13 38.5 22.5t23 24t10.5 38.5t3 67v461v168t-1.5 121t-4.5 82.5t-8.5 53.5t-14 33t-20.5 21q-4 3 -11 7.5t-15 10.5h245l5 -4q-9 -10 -20.5 -18t-21.5 -18q-10 -12 -16.5 -28t-11 -39t-6.5 -54.5t-2 -75.5q-10 -9 -19.5 -29
t-17.5 -46.5t-13 -58.5t-5 -66q15 40 37.5 77t52 65t67 44.5t82.5 16.5q61 0 105.5 -25t74.5 -66t44.5 -93.5t14.5 -107.5z" />
    <glyph glyph-name="thorn" unicode="&#xfe;" horiz-adv-x="631" 
d="M623 329q0 -61 -17 -119.5t-50 -103t-82.5 -71.5t-115.5 -27q-37 0 -71.5 12t-61 34.5t-42.5 53t-16 68.5q0 32 10.5 60t30 49t47.5 32.5t62 11.5q26 0 49 -9t40.5 -26t27.5 -40.5t10 -51.5q0 -30 -10 -49.5t-27 -31t-38.5 -16t-47.5 -4.5q-12 -6 -17.5 -11t-5.5 -19
q0 -10 7 -15.5t16 -8.5t19.5 -4t17.5 -1q37 0 64 17.5t44 44.5t26 60t9 64q0 40 -11 75.5t-33.5 63t-54.5 43.5t-75 16q-44 0 -79.5 -18.5t-60 -49t-37.5 -70t-13 -81.5q0 -40 8.5 -71t26 -56.5t44.5 -45.5t64 -39v-80q0 -31 1.5 -60t10 -52t24 -37.5t42.5 -14.5l3 -4
q-33 0 -78 -0.5t-92 -0.5h-90.5t-72.5 -1q23 13 38.5 22.5t23 24t10.5 38.5t3 67v461v168t-1.5 121t-4.5 82.5t-8.5 53.5t-14 33t-20.5 21q-4 3 -11 7.5t-15 10.5h245l5 -4q-9 -10 -20.5 -18t-21.5 -18q-10 -12 -16.5 -28t-11 -39t-6.5 -54.5t-2 -75.5q-10 -9 -19.5 -29
t-17.5 -46.5t-13 -58.5t-5 -66q15 40 37.5 77t52 65t67 44.5t82.5 16.5q61 0 105.5 -25t74.5 -66t44.5 -93.5t14.5 -107.5z" />
    <glyph glyph-name="Zcaron" unicode="&#x17d;" 
d="M390 827q0 -6 -4 -12l-70 -121q-8 -13 -20 -13q-13 0 -20 13q-1 2 -3 5t-9 14.5t-20.5 35t-37.5 66.5q-4 6 -4 12q0 11 14 18q10 5 16 5q9 0 16 -12l48 -122l49 122q6 12 15 12q7 0 17 -5q13 -7 13 -18zM559 147q0 -41 -16 -71t-44 -50t-66.5 -30t-82.5 -10
q-34 0 -64.5 6t-60.5 13.5t-63.5 13t-74.5 5.5q-14 0 -26 -4t-26 -4q-3 0 -5.5 0.5t-2.5 7.5q0 28 21.5 59t54.5 64.5t73 68t76 70.5h-65q-13 0 -18 2.5t-5 7.5q0 6 5 8t19 2h84q42 42 69.5 82.5t27.5 81.5q0 25 -9.5 46t-26 35.5t-37.5 23t-44 8.5q-9 0 -21.5 -1t-22.5 -5
t-17 -11t-7 -17q0 -9 9.5 -13t23 -7t29.5 -7.5t29.5 -15t23 -28t9.5 -46.5q0 -23 -9.5 -44t-25 -36t-36.5 -24t-45 -9q-28 0 -53.5 11t-45.5 29t-31.5 42.5t-11.5 52.5q0 45 19.5 76t50.5 50t70 27.5t77 8.5q29 0 58.5 -3.5t60 -8t60.5 -8.5t60 -4q13 0 27.5 1t25.5 8v-9
q0 -48 -19.5 -87.5t-49.5 -74t-66 -64.5t-70 -60h49q14 0 19 -2t5 -8q0 -10 -22 -10h-71q-35 -34 -58.5 -68.5t-23.5 -77.5q0 -23 9.5 -45t25 -38.5t37 -27t45.5 -10.5q8 0 16.5 0.5t16 3.5t11.5 9t4 18q0 10 -8.5 15.5t-21 9.5t-28 8.5t-28.5 15t-21.5 27t-8.5 44.5
q0 23 10 43t27 33.5t38.5 21.5t43.5 8q29 0 54 -9t44 -26t30 -40.5t11 -53.5z" />
    <glyph glyph-name="zcaron" unicode="&#x17e;" 
d="M390 827q0 -6 -4 -12l-70 -121q-8 -13 -20 -13q-13 0 -20 13q-1 2 -3 5t-9 14.5t-20.5 35t-37.5 66.5q-4 6 -4 12q0 11 14 18q10 5 16 5q9 0 16 -12l48 -122l49 122q6 12 15 12q7 0 17 -5q13 -7 13 -18zM559 147q0 -41 -16 -71t-44 -50t-66.5 -30t-82.5 -10
q-34 0 -64.5 6t-60.5 13.5t-63.5 13t-74.5 5.5q-14 0 -26 -4t-26 -4q-3 0 -5.5 0.5t-2.5 7.5q0 31 25.5 65t63 71t82.5 76t82.5 78t63 78.5t25.5 77.5q0 25 -9.5 46t-26 35.5t-37.5 23t-44 8.5q-9 0 -21.5 -1t-22.5 -5t-17 -11t-7 -17q0 -9 9.5 -13t23 -7t29.5 -7.5
t29.5 -15t23 -28t9.5 -46.5q0 -23 -9.5 -44t-25 -36t-36.5 -24t-45 -9q-28 0 -53.5 11t-45.5 29t-31.5 42.5t-11.5 52.5q0 45 19.5 76t50.5 50t70 27.5t77 8.5q29 0 58.5 -3.5t60 -8t60.5 -8.5t60 -4q13 0 27.5 1t25.5 8v-9q0 -52 -22.5 -94.5t-56.5 -78.5t-74 -69t-74 -66
t-57 -67.5t-23 -76.5q0 -23 9.5 -45t25 -38.5t37 -27t45.5 -10.5q8 0 16.5 0.5t16 3.5t11.5 9t4 18q0 10 -8.5 15.5t-21 9.5t-28 8.5t-28.5 15t-21.5 27t-8.5 44.5q0 23 10 43t27 33.5t38.5 21.5t43.5 8q29 0 54 -9t44 -26t30 -40.5t11 -53.5z" />
    <glyph glyph-name="onehalf" unicode="&#xbd;" horiz-adv-x="845" 
d="M517 0q0 2 11.5 6.5t26 15t26 28.5t11.5 45v639q0 25 -8.5 46t-36.5 21q-9 0 -14.5 -1t-10 -3.5t-8.5 -6.5l-10 -10h-3q0 12 8 22t20 16t24.5 10.5t22.5 5.5q7 1 24.5 3t37 4.5t37 4.5t24.5 4q20 4 38 14t38 16v-785q0 -23 10.5 -39.5t23 -28t23.5 -18t11 -9.5h-326z
M520 688q0 -30 -12 -56t-32.5 -45t-47.5 -29.5t-58 -10.5q-54 0 -88 33.5t-34 89.5q0 38 17.5 56.5t39.5 28.5t40 18t18 24q0 20 -15.5 25.5t-30.5 5.5q-26 0 -47 -14.5t-37 -37t-24 -49t-8 -49.5q0 -45 13.5 -77.5t45 -54t81.5 -31.5t123 -10h15v-21q-9 2 -12.5 2.5
t-8.5 0.5q-36 0 -70 -2t-60.5 -14t-42.5 -37t-16 -71v-268q0 -23 10.5 -39.5t23.5 -28t23.5 -18t10.5 -9.5h-326q0 2 11.5 6.5t26 15t26 28.5t11.5 45v287q0 28 -3.5 48t-14.5 32.5t-29.5 19t-46.5 7.5v14q0 1 13 2t29.5 6t31.5 17t17 35q6 54 24.5 107t49.5 96t75.5 69.5
t103.5 26.5q37 0 70.5 -13.5t58.5 -37t40 -55t15 -68.5z" />
    <glyph glyph-name="onequarter" unicode="&#xbc;" horiz-adv-x="852" 
d="M523 0v4q40 13 55 45t15 68q0 43 -0.5 72.5t-1 56t-1 54.5t-0.5 68q0 41 -16.5 64.5t-38.5 36t-44 15.5t-33 3q-36 0 -70 -3.5t-60.5 -17t-42.5 -38t-16 -65.5v-268q0 -23 10.5 -39.5t23.5 -28t23.5 -18t10.5 -9.5h-326q0 2 11.5 6.5t26 15t26 28.5t11.5 45v287
q0 28 -3.5 48t-14.5 32.5t-29.5 19t-46.5 7.5v14q0 1 13 2t29.5 6t31.5 17t17 35q6 54 24.5 107t49.5 96t75.5 69.5t103.5 26.5q37 0 70.5 -13.5t58.5 -37t40 -55t15 -68.5q0 -30 -12 -56t-32.5 -45t-47.5 -29.5t-58 -10.5q-54 0 -88 33.5t-34 89.5q0 38 17.5 56.5
t39.5 28.5t40 18t18 24q0 20 -15.5 25.5t-30.5 5.5q-26 0 -47 -14.5t-37 -37t-24 -49t-8 -49.5q0 -93 62.5 -130t200.5 -37q57 0 110 16.5t94 42t65.5 56.5t24.5 59q0 3 -0.5 10t-2 14.5t-3.5 13.5t-4 6h-5q-2 -20 -10 -39.5t-21.5 -34.5t-32.5 -24.5t-44 -9.5
q-21 0 -39.5 9.5t-32 24.5t-21.5 34.5t-8 39.5q0 23 8.5 42.5t23.5 33.5t34 22t42 8q30 0 54.5 -10.5t42.5 -29.5t28 -44.5t10 -55.5v-86v-108.5v-119v-117.5t-0.5 -103t-0.5 -78q0 -15 6.5 -27t18 -22.5t25 -18t26.5 -15.5h-329z" />
    <glyph glyph-name="onesuperior" unicode="&#xb9;" horiz-adv-x="557" 
d="M482 500v73h32v-15h-13v-13h12v-14h-12v-16h14v-15h-33zM477 547q0 -11 -3.5 -14t-14.5 -3h-5v-30h-18v73h18q16 0 19.5 -4t3.5 -17v-5zM419 525v-25h-17v25l-14 48h17q2 -11 3 -17t2 -10q1 5 2.5 12t2.5 15h17zM377 558v-58h-19v58h-11v15h40v-15h-10zM311 500l-1 14h-6
l-2 -14h-19l9 73h27l12 -73h-20zM280 521q0 -16 -4 -18.5t-17 -2.5h-23v73h14q21 0 25.5 -4t4.5 -21v-27zM214 500l-1 14h-8v-14h-20l9 73h27l12 -73h-19zM166 500l-11 33v-33h-15v73h15l11 -33v33h17v-73h-17zM117 500v14h-7l-2 -14h-19l9 73h27l12 -73h-20zM86 526
q0 -13 -4 -20.5t-18 -7.5t-18 6.5t-4 20.5v23q0 15 5 21t16 6q14 0 18.5 -7t4.5 -20v-6h-19v11q0 6 -0.5 7.5t-2.5 1.5q-3 0 -3 -9v-34q0 -5 0.5 -6.5t2.5 -1.5t2.5 1.5t0.5 7.5v10h19v-4zM40 0v477h477v-477h-477zM461 554q0 6 -7 6v-18h2q5 0 5 6v6zM309 525q0 7 -0.5 15
t-1.5 17q-2 -10 -2.5 -18.5t-0.5 -13.5h5zM260 551q0 6 -0.5 7.5t-5.5 1.5v-47q5 0 5.5 1t0.5 8v29zM212 525q-1 7 -1.5 15t-0.5 17q-2 -10 -3 -18.5t-2 -13.5h7zM116 525q-1 6 -1.5 14t-1.5 16q-3 -20 -3 -30h6zM438 235q-4 6 -10 10l19 55l-46 -10q-3 2 -5.5 5t-4.5 5
l-8 18l-37 -36q-3 -4 -5 -5.5t-4 -3.5q-8 3 -10 9l27 92l-27 -9q-2 -1 -6 -3.5t-4 -5.5v-1l-4.5 4.5t-3.5 5.5l-27 55l-29 -55q-2 -4 -3.5 -5.5t-5.5 -4.5q0 3 -3.5 6t-5.5 4l-19 9l19 -92l-10 -9q-3 2 -5 3.5t-4 5.5l-37 36l-9 -18q-5 -6 -10 -10l-45 10l18 -55
q-5 -3 -10 -10h-17l82 -64q7 -4 10 -20q-2 -3 -5.5 -8.5t-13.5 -18.5l83 19q11 -4 11 -8l-1 -1v-84h18v84q-1 1 -1 2q0 4 10 7l84 -19q-10 13 -13.5 19.5t-5.5 7.5q1 8 4 13t5 7l74 64h-9z" />
    <glyph glyph-name="twosuperior" unicode="&#xb2;" horiz-adv-x="347" 
d="M17 0v4q40 13 55 45t15 68q0 43 -0.5 92l-1 98t-1 96t-0.5 87q0 20 -9.5 38.5t-31.5 18.5q-11 0 -19 -5t-14.5 -11t-11.5 -10.5t-9 -4.5q0 6 3 16t8 16q16 18 40.5 26.5t52.5 12t57 7t51.5 12.5t36.5 27t14 52v8t-1 10h20v-87.5v-110v-121v-119t-0.5 -104t-0.5 -78.5
q0 -15 6.5 -27t18 -22.5t25 -18t27.5 -15.5h-330z" />
    <glyph glyph-name="brokenbar" unicode="&#xa6;" horiz-adv-x="944" 
d="M916 146q0 -33 -12 -61t-32.5 -48t-48.5 -30.5t-60 -10.5q-27 0 -51.5 9t-43 25t-30 38.5t-11.5 50.5q0 43 22.5 73.5t67.5 30.5q12 0 21.5 -4t19.5 -4q11 0 22.5 6.5t11.5 25.5q0 10 -6.5 17t-16 11t-20.5 5.5t-20 1.5h-514q-9 0 -20.5 -1.5t-20.5 -5.5t-16 -11t-7 -17
q0 -19 12 -25.5t22 -6.5q11 0 20.5 4t21.5 4q23 0 39.5 -8t28 -22t17 -33t5.5 -41q0 -28 -11.5 -50.5t-30.5 -38.5t-43 -25t-51 -9q-32 0 -60.5 10.5t-49 30.5t-32 48t-11.5 61q0 38 16 70t43.5 54t63.5 34.5t78 12.5h164q-28 19 -48 54t-20 93q0 31 10.5 58t29.5 46
t47.5 31t64.5 12q32 0 58 -12t44.5 -31t28.5 -46t10 -58q0 -58 -20 -93t-48 -54h165q41 0 77.5 -12.5t63.5 -34.5t43.5 -54t16.5 -70z" />
    <glyph glyph-name="multiply" unicode="&#xd7;" horiz-adv-x="273" 
d="M219 250q0 -3 -3 -9t-8.5 -12t-11.5 -9.5t-11 -3.5q-6 0 -14 7l-34 34l-32 -32q-9 -8 -17 -8t-20 11q-13 13 -13 22q0 6 10 16l31 32l-31 31q-9 9 -9 17q0 10 13 21.5t20 11.5t17 -10l31 -31l32 32q10 10 16 10q3 0 9 -3.5t11.5 -9t9 -11.5t3.5 -10q0 -7 -7 -15l-33 -33
l32 -33q9 -9 9 -15z" />
    <glyph glyph-name="space" unicode=" " horiz-adv-x="244" 
 />
    <glyph glyph-name="Aring" unicode="&#xc5;" horiz-adv-x="611" 
d="M417 803q0 -24 -7 -46.5t-21 -39t-35 -26.5t-48 -10q-54 0 -83.5 32.5t-29.5 84.5q0 50 32 83.5t86 33.5q25 0 45 -9t33.5 -24.5t20.5 -35.5t7 -43zM418 0v4q41 22 54.5 52t13.5 75q0 29 -9.5 56.5t-27.5 48t-44 33.5t-58 13q-31 0 -61 -9t-53 -26.5t-37 -42.5t-14 -58
q0 -26 9 -48t25.5 -39t39.5 -27t49 -10q6 0 15.5 1t19 4t15.5 9.5t6 15.5q0 5 -1.5 12.5t-9.5 7.5q-24 0 -45 2t-35.5 10t-22.5 24.5t-8 44.5q0 46 31 72t73 26q50 0 85 -29.5t35 -79.5q0 -47 -22.5 -76.5t-56 -46.5t-73.5 -23.5t-77 -6.5q-32 0 -67.5 9t-65.5 26.5
t-49.5 45t-19.5 65.5q0 47 18.5 73t48 41.5t65.5 24.5t71 21.5t64.5 32t47.5 55.5q9 19 9 42q0 29 -11 57t-30 49t-43.5 34t-52.5 13q-6 0 -18 -3t-22.5 -9t-18.5 -15t-8 -23q0 -3 3 -10.5t8 -7.5q17 4 33 4q27 0 46 -8t30.5 -21t17 -31t5.5 -37q0 -24 -8.5 -44.5
t-24.5 -35.5t-38 -24t-48 -9t-50.5 9.5t-43.5 27t-30.5 42t-11.5 52.5q0 48 24 81.5t63.5 54.5t88 31t96.5 10q44 0 83 -10.5t67 -32t44.5 -55.5t16.5 -83v-261q0 -24 1.5 -49t9.5 -47t24 -40t45 -30v-4h-185zM359 799q0 26 -12 42t-36 16q-29 0 -43.5 -17t-14.5 -42
q0 -29 11.5 -47t41.5 -18t41.5 18t11.5 48z" />
    <glyph glyph-name="Ccedilla" unicode="&#xc7;" horiz-adv-x="560" 
d="M529 292q0 -57 -13.5 -112.5t-43 -98.5t-76 -69.5t-110.5 -26.5h-2q2 -13 4.5 -27.5t9.5 -27.5q4 -12 10.5 -21t12 -17.5t10 -18.5t4.5 -23q0 -24 -17 -39.5t-42 -15.5q-23 0 -37.5 16.5t-14.5 38.5q0 11 4 21t10 19l12 18t10 20q5 14 8 29t4 28q-57 3 -103 29.5
t-77.5 67t-48 91.5t-16.5 105q0 59 18.5 120t54 110.5t87 81t117.5 31.5q40 0 78.5 -11t69.5 -33.5t50 -55t19 -75.5q0 -32 -11 -62t-31.5 -51.5t-48 -35t-61.5 -13.5q-30 0 -57.5 10t-48 27.5t-33 42.5t-12.5 56t11.5 51t30.5 32t43 16t51 4q22 6 22 31q-1 14 -17.5 24
t-32.5 10q-41 0 -70 -18.5t-48.5 -47t-28.5 -63.5t-9 -68q0 -41 12.5 -78t36 -65t58 -44.5t77.5 -16.5q30 0 58.5 11t50.5 30t38 45t20 56l5 -4q0 -3 1.5 -15t1.5 -18z" />
    <glyph glyph-name="Odieresis" unicode="&#xd6;" horiz-adv-x="577" 
d="M404 728q0 -19 -13 -36t-33 -17q-22 0 -37 16t-15 36t13.5 36t35.5 16q21 0 35 -15.5t14 -35.5zM270 728q0 -19 -13 -36t-33 -17q-22 0 -37 16t-15 36t13.5 36t35.5 16q21 0 35 -15.5t14 -35.5zM550 307q0 -57 -16.5 -114t-50 -102t-82 -73.5t-111.5 -28.5
q-59 0 -107 24.5t-82.5 64.5t-53.5 92t-19 108q0 26 3.5 58t11 62.5t19 57.5t26.5 42q-5 -27 -8 -51.5t-3 -49.5q0 -32 12 -67.5t33.5 -64.5t50 -48t61.5 -19q47 0 83 16t61 44.5t38 67t13 83.5q0 28 -7.5 59t-24.5 57t-42.5 43t-60.5 17q-6 0 -12.5 -1.5t-13 -5t-11 -9.5
t-4.5 -15q0 -18 18.5 -28.5t41.5 -22.5t41.5 -28t18.5 -47q0 -53 -31.5 -88.5t-99.5 -35.5q-28 0 -54 11t-46 30t-31.5 45.5t-11.5 55.5q0 40 16.5 72t43 53t62 32.5t73.5 11.5q62 0 109.5 -27t80.5 -70t49.5 -98.5t16.5 -112.5z" />
    <glyph glyph-name="Udieresis" unicode="&#xdc;" 
d="M413 728q0 -19 -13.5 -36t-32.5 -17q-22 0 -37 16t-15 36t13.5 36t35.5 16q20 0 34.5 -15.5t14.5 -35.5zM279 728q0 -19 -13.5 -36t-32.5 -17q-22 0 -37 16t-15 36t13.5 36t35.5 16q20 0 34.5 -15.5t14.5 -35.5zM351 1q29 22 47.5 51t29.5 63t16 72t5 78l-56 -144
q-10 -26 -28.5 -49.5t-43 -41.5t-52 -29t-55.5 -11q-47 0 -74 22t-42 55t-19 72t-4 73v283q0 23 -6.5 39.5t-17 29t-26 22t-34.5 19.5v3h246l-1 -3q-28 -3 -46.5 -15.5t-29 -32t-14 -45t-3.5 -53.5q0 -36 3.5 -72.5t18 -66.5t40 -49t69.5 -19q42 0 73 19t51 49.5t30.5 69
t10.5 76.5q0 29 -3.5 52t-13.5 40t-29 28.5t-49 18.5v3h247q-28 -12 -44.5 -38t-24.5 -59t-10.5 -68.5t-2.5 -65.5v-96q0 -63 6.5 -123t34.5 -115q8 -15 20 -22.5t25 -15.5v-4h-244z" />
    <glyph glyph-name="aring" unicode="&#xe5;" horiz-adv-x="611" 
d="M417 803q0 -24 -7 -46.5t-21 -39t-35 -26.5t-48 -10q-54 0 -83.5 32.5t-29.5 84.5q0 50 32 83.5t86 33.5q25 0 45 -9t33.5 -24.5t20.5 -35.5t7 -43zM418 0v4q41 22 54.5 52t13.5 75q0 29 -9.5 56.5t-27.5 48t-44 33.5t-58 13q-31 0 -61 -9t-53 -26.5t-37 -42.5t-14 -58
q0 -26 9 -48t25.5 -39t39.5 -27t49 -10q6 0 15.5 1t19 4t15.5 9.5t6 15.5q0 5 -1.5 12.5t-9.5 7.5q-24 0 -45 2t-35.5 10t-22.5 24.5t-8 44.5q0 46 31 72t73 26q50 0 85 -29.5t35 -79.5q0 -47 -22.5 -76.5t-56 -46.5t-73.5 -23.5t-77 -6.5q-32 0 -67.5 9t-65.5 26.5
t-49.5 45t-19.5 65.5q0 47 18.5 73t48 41.5t65.5 24.5t71 21.5t64.5 32t47.5 55.5q9 19 9 42q0 29 -11 57t-30 49t-43.5 34t-52.5 13q-6 0 -18 -3t-22.5 -9t-18.5 -15t-8 -23q0 -3 3 -10.5t8 -7.5q17 4 33 4q27 0 46 -8t30.5 -21t17 -31t5.5 -37q0 -24 -8.5 -44.5
t-24.5 -35.5t-38 -24t-48 -9t-50.5 9.5t-43.5 27t-30.5 42t-11.5 52.5q0 48 24 81.5t63.5 54.5t88 31t96.5 10q44 0 83 -10.5t67 -32t44.5 -55.5t16.5 -83v-261q0 -24 1.5 -49t9.5 -47t24 -40t45 -30v-4h-185zM359 799q0 26 -12 42t-36 16q-29 0 -43.5 -17t-14.5 -42
q0 -29 11.5 -47t41.5 -18t41.5 18t11.5 48z" />
    <glyph glyph-name="ccedilla" unicode="&#xe7;" horiz-adv-x="560" 
d="M529 292q0 -57 -13.5 -112.5t-43 -98.5t-76 -69.5t-110.5 -26.5h-2q2 -13 4.5 -27.5t9.5 -27.5q4 -12 10.5 -21t12 -17.5t10 -18.5t4.5 -23q0 -24 -17 -39.5t-42 -15.5q-23 0 -37.5 16.5t-14.5 38.5q0 11 4 21t10 19l12 18t10 20q5 14 8 29t4 28q-57 3 -103 29.5
t-77.5 67t-48 91.5t-16.5 105q0 59 18.5 120t54 110.5t87 81t117.5 31.5q40 0 78.5 -11t69.5 -33.5t50 -55t19 -75.5q0 -32 -11 -62t-31.5 -51.5t-48 -35t-61.5 -13.5q-30 0 -57.5 10t-48 27.5t-33 42.5t-12.5 56t11.5 51t30.5 32t43 16t51 4q22 6 22 31q-1 14 -17.5 24
t-32.5 10q-41 0 -70 -18.5t-48.5 -47t-28.5 -63.5t-9 -68q0 -41 12.5 -78t36 -65t58 -44.5t77.5 -16.5q30 0 58.5 11t50.5 30t38 45t20 56l5 -4q0 -3 1.5 -15t1.5 -18z" />
    <glyph glyph-name="edieresis" unicode="&#xeb;" horiz-adv-x="552" 
d="M392 728q0 -19 -13 -36t-32 -17q-23 0 -38 16t-15 36t13.5 36t36.5 16q20 0 34 -15.5t14 -35.5zM258 728q0 -19 -13 -36t-32 -17q-23 0 -38 16t-15 36t13.5 36t36.5 16q20 0 34 -15.5t14 -35.5zM521 256q0 -52 -17 -101t-48 -86.5t-75 -60.5t-98 -23q-60 0 -107.5 24.5
t-80.5 64.5t-50.5 91.5t-17.5 105.5q0 63 18.5 124t55 109t89.5 78t122 30q37 0 73 -13.5t65 -35.5t47 -52.5t18 -64.5q0 -39 -10.5 -71.5t-31 -56.5t-50.5 -37.5t-69 -13.5q-36 0 -58.5 17t-38.5 37t-29.5 37t-32.5 17q-7 0 -10.5 -5t-5 -12t-2 -13.5t-0.5 -10.5
q0 -34 13.5 -63t36.5 -51t53 -34t62 -12q61 0 110 34t65 97q3 -14 3.5 -26t0.5 -23zM346 503q0 13 -3.5 26t-11 24t-18 18t-24.5 7q-26 0 -47.5 -18t-36.5 -44t-22.5 -54t-7.5 -49q0 -7 2 -7q11 5 20.5 6.5t17.5 1.5q14 0 25.5 -4t31.5 -4t34 8.5t23 22t13 31t4 35.5z" />
    <glyph glyph-name="icircumflex" unicode="&#xee;" horiz-adv-x="347" 
d="M278 746q0 -11 -14 -18q-10 -6 -16 -6q-9 0 -16 13l-49 122l-48 -122q-7 -13 -16 -13q-5 0 -16 6q-14 7 -14 18q0 5 4 12q24 43 38 66.5t20.5 35t8.5 15t3 4.5q8 13 20 13t20 -13l71 -121q4 -7 4 -12zM17 0v4q40 13 55 45t15 68q0 43 -0.5 92l-1 98t-1 96t-0.5 87
q0 20 -9.5 38.5t-31.5 18.5q-11 0 -19 -5t-14.5 -11t-11.5 -10.5t-9 -4.5q0 6 3 16t8 16q16 18 40.5 26.5t52.5 12t57 7t51.5 12.5t36.5 27t14 52v8t-1 10h20v-87.5v-110v-121v-119t-0.5 -104t-0.5 -78.5q0 -15 6.5 -27t18 -22.5t25 -18t27.5 -15.5h-330z" />
    <glyph glyph-name="idieresis" unicode="&#xef;" horiz-adv-x="347" 
d="M289 780q0 -20 -13 -37t-32 -17q-23 0 -38 16t-15 37q0 19 13.5 35t36.5 16q20 0 34 -15.5t14 -34.5zM155 780q0 -20 -13 -37t-32 -17q-23 0 -38 16t-15 37q0 19 13.5 35t36.5 16q20 0 34 -15.5t14 -34.5zM17 0v4q40 13 55 45t15 68q0 43 -0.5 92l-1 98t-1 96t-0.5 87
q0 20 -9.5 38.5t-31.5 18.5q-11 0 -19 -5t-14.5 -11t-11.5 -10.5t-9 -4.5q0 6 3 16t8 16q16 18 40.5 26.5t52.5 12t57 7t51.5 12.5t36.5 27t14 52v8t-1 10h20v-87.5v-110v-121v-119t-0.5 -104t-0.5 -78.5q0 -15 6.5 -27t18 -22.5t25 -18t27.5 -15.5h-330z" />
    <glyph glyph-name="ntilde" unicode="&#xf1;" horiz-adv-x="601" 
d="M427 736q0 -18 -8 -28.5t-20.5 -17.5t-27 -9t-26.5 -2q-18 0 -32.5 4.5t-29 11t-31.5 11.5t-40 5q-18 0 -25 -5.5t-14 -11.5q0 37 25 51t61 14q21 0 38.5 -5.5t33.5 -12t30.5 -12.5t28.5 -6q12 0 21.5 4.5t15.5 8.5zM357 0l1 4q28 3 46.5 15t29.5 32t14.5 45t3.5 54
q0 34 -3.5 71t-17.5 66.5t-40 48.5t-70 19q-41 0 -72.5 -19t-51.5 -49.5t-30.5 -68.5t-10.5 -76q0 -29 3.5 -52t13.5 -39.5t28.5 -28t48.5 -18.5v-4h-247q28 12 44.5 38.5t25 59.5t10.5 68.5t2 65.5v96q0 62 -7 122.5t-33 115.5q-9 15 -20.5 22t-25.5 15v4h245
q-57 -44 -77 -113.5t-20 -149.5q24 80 53 132.5t60 84t62 44t59 12.5q46 0 74 -21.5t42.5 -54.5t18.5 -71.5t4 -72.5v-284q0 -46 23.5 -70.5t59.5 -38.5v-4h-246z" />
    <glyph glyph-name="odieresis" unicode="&#xf6;" horiz-adv-x="577" 
d="M404 728q0 -19 -13 -36t-33 -17q-22 0 -37 16t-15 36t13.5 36t35.5 16q21 0 35 -15.5t14 -35.5zM270 728q0 -19 -13 -36t-33 -17q-22 0 -37 16t-15 36t13.5 36t35.5 16q21 0 35 -15.5t14 -35.5zM550 307q0 -57 -16.5 -114t-50 -102t-82 -73.5t-111.5 -28.5
q-59 0 -107 24.5t-82.5 64.5t-53.5 92t-19 108q0 26 3.5 58t11 62.5t19 57.5t26.5 42q-5 -27 -8 -51.5t-3 -49.5q0 -32 12 -67.5t33.5 -64.5t50 -48t61.5 -19q47 0 83 16t61 44.5t38 67t13 83.5q0 28 -7.5 59t-24.5 57t-42.5 43t-60.5 17q-6 0 -12.5 -1.5t-13 -5t-11 -9.5
t-4.5 -15q0 -18 18.5 -28.5t41.5 -22.5t41.5 -28t18.5 -47q0 -53 -31.5 -88.5t-99.5 -35.5q-28 0 -54 11t-46 30t-31.5 45.5t-11.5 55.5q0 40 16.5 72t43 53t62 32.5t73.5 11.5q62 0 109.5 -27t80.5 -70t49.5 -98.5t16.5 -112.5z" />
    <glyph glyph-name="dagger" unicode="&#x2020;" horiz-adv-x="602" 
d="M577 464q-15 28 -30 46.5t-32.5 29.5t-38.5 15.5t-46 4.5h-62v-418q0 -59 22 -92t82 -46v-4h-306v6q28 11 44.5 26t25 32.5t11 37t2.5 43.5v415h-69q-59 0 -92 -21.5t-46 -82.5h-4v248h6q11 -28 25.5 -44.5t32 -25t37.5 -11t44 -2.5h66v82q0 29 -4 52t-14 40.5t-27 31
t-42 24.5v4h302q-28 -14 -46.5 -29t-29.5 -32.5t-15.5 -38.5t-4.5 -46v-88h56q29 0 52 4t40.5 14t31 27t25.5 42h4v-244z" />
    <glyph glyph-name="degree" unicode="&#xb0;" horiz-adv-x="675" 
d="M645 850q-28 0 -44.5 -14.5t-25 -36.5t-11 -51.5t-2.5 -58.5v-349q0 -111 -21.5 -183t-57.5 -113.5t-85 -58t-105 -16.5q-70 0 -120.5 24.5t-82.5 65.5t-47 93t-15 106q0 66 16.5 126t49.5 105t82 72t114 27q36 0 70 -12t60.5 -35.5t42.5 -56.5t16 -75q0 -32 -11 -60
t-30.5 -47.5t-46.5 -31.5t-61 -12q-26 0 -48.5 9.5t-39.5 26t-26.5 39t-9.5 50.5q0 30 9.5 49t26 30.5t39 16t46.5 4.5q12 5 17 10t5 20q0 14 -6.5 22.5t-16 12.5t-19.5 5t-17 1q-36 0 -62.5 -17.5t-44 -45.5t-26 -63t-8.5 -71q0 -39 11 -74t33 -62t54 -43t73 -16
q45 0 80 18.5t59 48.5t37 69t13 81q0 99 -1.5 169t-5.5 119.5t-11.5 80.5t-18.5 50.5t-27.5 32.5t-38.5 24h242z" />
    <glyph glyph-name="cent" unicode="&#xa2;" horiz-adv-x="550" 
d="M523 292q0 -55 -12.5 -108.5t-40 -96t-70 -70t-102.5 -31.5v-26q0 -14 -2 -19t-8 -5q-9 0 -9 22v27q-61 0 -109 25.5t-81 66t-50.5 93t-17.5 108.5q0 57 17 115.5t50 107.5t81 82t110 37v31q0 14 2 19t7 5q6 0 8 -5t2 -20v-29q40 0 79 -11t69.5 -33.5t50 -55t19.5 -75.5
q0 -32 -11.5 -62t-32 -51.5t-48 -35t-61.5 -13.5q-37 0 -65 13v-103q21 -7 51 -7t58 11t50.5 30t38 45t20.5 56l4 -4q0 -3 1.5 -15t1.5 -18zM370 554q-1 14 -17.5 24t-32.5 10q-5 0 -11 -0.5t-11 -1.5v-68q12 2 24.5 3.5t26.5 1.5q21 6 21 31zM279 307q-30 17 -48 46t-18 67
q0 41 18.5 62.5t47.5 31.5v69q-29 -9 -51 -29.5t-36 -47t-21 -57t-7 -58.5q0 -64 29.5 -116.5t85.5 -74.5v107z" />
    <glyph glyph-name="sterling" unicode="&#xa3;" horiz-adv-x="604" 
d="M587 155q0 -41 -19 -71t-50.5 -48.5t-70 -27t-77.5 -8.5h-346l2 6h23q27 0 42.5 14.5t23.5 38.5t10 54t2 60v172h-66q-13 0 -18 2.5t-5 6.5q0 6 5 8t19 2h65v58h-66q-13 0 -18 2.5t-5 7.5q0 6 5 8t19 2h65q0 29 -2 57.5t-10 51.5t-23.5 36.5t-42.5 13.5l-3 5q32 1 76 1
h91h91.5t78.5 -1l-2 -5q-28 0 -43.5 -13.5t-23 -36.5t-10 -51.5t-2.5 -57.5h188q15 0 20 -2t5 -8q0 -10 -23 -10h-190v-58h188q15 0 20 -2t5 -8q0 -9 -23 -9h-190v-157q0 -27 1.5 -56.5t8.5 -54t23.5 -40t47.5 -15.5q8 0 20.5 3.5t24 9.5t19 13.5t7.5 16.5q0 5 -1 10.5
t-4 6.5q-31 0 -52 7.5t-34.5 20.5t-19.5 29.5t-6 33.5q0 25 8.5 46t24 36.5t37 24t45.5 8.5q28 0 52.5 -10.5t43 -28.5t29 -42t10.5 -52z" />
    <glyph glyph-name="section" unicode="&#xa7;" horiz-adv-x="638" 
d="M607 320q0 -65 -16.5 -125t-49.5 -105t-82 -72.5t-114 -27.5q-36 0 -70 12.5t-60.5 35.5t-42.5 56.5t-16 75.5q0 32 11 59.5t30.5 47.5t46.5 31.5t61 11.5q26 0 48.5 -9t39.5 -25.5t26.5 -39.5t9.5 -51q0 -29 -9.5 -48.5t-26 -30.5t-38.5 -15.5t-47 -4.5
q-12 -6 -17 -10.5t-5 -19.5t6.5 -23t15.5 -12.5t19.5 -5.5t17.5 -1q36 0 62.5 17.5t44 46t26 63t8.5 70.5q0 39 -11 74.5t-33 62t-54 43t-73 16.5q-45 0 -80 -18.5t-59.5 -49t-37 -69t-12.5 -80.5q0 -38 3.5 -67.5t14.5 -53.5t31.5 -43t53.5 -36h-242l3 6q27 0 43.5 14
t25.5 36.5t11.5 51.5t2.5 58v73q0 111 25.5 182.5t68 113.5t96 58.5t108.5 16.5q59 0 103 -25t74 -65.5t44.5 -92.5t14.5 -107z" />
    <glyph glyph-name="bullet" unicode="&#x2022;" horiz-adv-x="316" 
d="M289 324q0 -27 -9 -53t-25 -46.5t-38.5 -32.5t-49.5 -12q-30 0 -56 11.5t-44 30.5t-29 43.5t-11 51.5t10 51.5t27.5 44t41 31t52.5 11.5q28 0 52 -11.5t41.5 -30t27.5 -42t10 -47.5z" />
    <glyph glyph-name="paragraph" unicode="&#xb6;" horiz-adv-x="641" 
d="M409 0q34 17 54 36t31 43t14.5 53.5t3.5 67.5q0 42 -13 80.5t-37 69t-59 49t-80 18.5q-41 0 -73.5 -16.5t-54 -43t-33 -62t-11.5 -74.5q0 -36 9 -70.5t26.5 -63t44 -46t62.5 -17.5q7 0 17 1t19.5 5.5t15.5 12.5t6 23t-4.5 19.5t-16.5 10.5q-24 0 -46.5 4.5t-39 15.5
t-26 30.5t-9.5 48.5q0 28 9.5 51t26.5 39.5t39.5 25.5t48.5 9q34 0 61 -11.5t46.5 -31.5t30.5 -47.5t11 -59.5q0 -42 -16 -75.5t-42.5 -56.5t-60.5 -35.5t-70 -12.5q-65 0 -114 27.5t-82 72.5t-49.5 105t-16.5 125q0 55 14.5 107t44 92.5t74 65.5t103.5 25q55 0 108.5 -16.5
t96 -58.5t68 -113.5t25.5 -182.5v-73q0 -29 2.5 -58t11 -51.5t25 -36.5t44.5 -14l2 -6h-241z" />
    <glyph glyph-name="germandbls" unicode="&#xdf;" horiz-adv-x="733" 
d="M699 173q0 -54 -19 -88.5t-50 -55t-71.5 -29t-82.5 -8.5q-29 0 -60 7.5t-56 25.5t-41 48.5t-16 76.5q0 62 27.5 93.5t69.5 31.5q30 0 50.5 -10t32.5 -24.5t17 -32t5 -32.5q0 -34 -13 -48t-29 -21.5t-30 -14.5t-14 -25q0 -22 11 -30t31 -8q21 0 38 11.5t29 31.5t18.5 45.5
t6.5 51.5q0 46 -19 76t-48.5 52t-63 41.5t-62.5 43t-48.5 54t-19.5 77.5q0 37 21.5 68t47 58t47 50.5t21.5 42.5q0 18 -5 35t-14.5 31t-23 22t-30.5 8q-33 0 -58.5 -14.5t-43 -37t-27 -49t-9.5 -49.5q0 -38 8 -80.5t17.5 -84t17.5 -80.5t8 -70v-268q0 -23 -1.5 -41
t-7.5 -29.5t-17.5 -18t-31.5 -6.5h-200q0 2 11.5 6.5t26 15t26 28.5t11.5 45v287q0 28 -3.5 48t-14.5 32.5t-29.5 19t-46.5 7.5v14q0 1 13 2t29.5 6t31.5 17t17 35q6 54 25 107t53.5 96t87 69.5t126.5 26.5q171 0 171 -113q0 -35 -18 -65t-39.5 -56.5t-39.5 -52t-18 -52.5
q0 -43 20 -72.5t49.5 -51t64.5 -41t64.5 -43.5t49.5 -58t20 -84z" />
    <glyph glyph-name="registered" unicode="&#xae;" horiz-adv-x="476" 
d="M453 719q0 -24 -9.5 -43.5t-25.5 -33t-37 -20.5t-42 -7q-44 0 -73 23t-29 69q0 32 14.5 46t31.5 20.5t31.5 11.5t14.5 21q0 9 -3.5 15t-12.5 6q-28 0 -47 -9t-32 -25t-18 -37.5t-5 -44.5q0 -17 2.5 -27t5.5 -23t5.5 -34t2.5 -59v-107q0 -18 5.5 -30.5t13.5 -21
t17.5 -13.5t16.5 -9h-253q0 1 9.5 5t20 12.5t19.5 22t9 34.5v296q0 9 -0.5 18t-3 17.5t-9 14t-18.5 5.5q-6 0 -13.5 -7t-9.5 -14q-3 0 -3 6t4.5 11.5t11 10t13 8.5t12.5 5q22 5 42.5 6t48.5 6q8 2 15.5 3.5t14.5 5.5v-6q-15 -17 -26.5 -31.5t-18 -30t-10 -33t-3.5 -38.5h4
q5 30 21 55.5t39.5 44.5t53 30t59.5 11t56 -9.5t46 -27.5t31 -43t11 -56z" />
    <glyph glyph-name="copyright" unicode="&#xa9;" horiz-adv-x="419" 
d="M399 609q0 -44 -10 -85t-32.5 -74t-57 -52.5t-82.5 -19.5q-46 0 -82 19t-61 49.5t-38.5 70t-13.5 80.5q0 45 14 90.5t40.5 83t65.5 61t88 23.5q29 0 58 -8t52.5 -25t38 -42t14.5 -57q0 -24 -8 -46t-23.5 -38.5t-36.5 -26t-46 -9.5q-23 0 -43 7t-36 20.5t-25 32.5t-9 42
t8.5 37.5t22.5 23.5t32.5 12.5t38.5 3.5q15 3 15 23q0 11 -12.5 18t-23.5 7q-30 0 -52.5 -13.5t-37 -35.5t-21.5 -47.5t-7 -50.5q0 -32 9.5 -59.5t27 -48.5t43.5 -33t59 -12q22 0 43 8.5t38 22.5t28.5 33.5t15.5 41.5l4 -3q0 -2 1 -10.5t1 -13.5z" />
    <glyph glyph-name="trademark" unicode="&#x2122;" horiz-adv-x="591" 
d="M596 607q-28 -12 -44.5 -38t-25 -58.5t-10.5 -68t-2 -65.5v-17.5t-0.5 -44t-0.5 -92.5v-163q0 -67 -9.5 -128t-33.5 -107.5t-67 -74.5t-110 -28q-41 0 -73.5 13.5t-55 34.5t-35 49t-12.5 58q0 29 11 55t30.5 46.5t45.5 32t57 11.5q23 0 45 -8.5t39 -24t27 -37t10 -46.5
q0 -21 -10 -34.5t-21 -24.5l-21 -21t-10 -24q0 -31 31 -31q23 0 37 12.5t22 31t11.5 39.5t3.5 37q0 61 -26.5 99.5t-74.5 65.5q16 12 31.5 22.5t29.5 24t25 30t19 38.5q6 17 11 40t7.5 47t4 48.5t1.5 45.5q-20 -78 -48.5 -131t-60.5 -85t-64.5 -45t-61.5 -13
q-46 0 -73.5 21.5t-42 54.5t-18.5 72t-4 73v195q0 23 -6.5 39.5t-17 29.5t-26 22.5t-34.5 18.5v3h246l-1 -3q-28 -3 -46.5 -15.5t-29 -32t-14 -45t-3.5 -53.5q0 -21 3.5 -42t17.5 -38t40 -27.5t70 -10.5q41 0 72.5 10.5t51.5 28t30.5 40.5t10.5 46q0 29 -3.5 52t-13.5 40
t-29 28.5t-49 18.5v3h247z" />
    <glyph glyph-name="acute" unicode="&#xb4;" horiz-adv-x="273" 
d="M199 826q0 -5 -5 -14l-69 -120q-7 -12 -15 -12q-6 0 -17 5q-13 7 -13 18q0 6 3 13l71 121q8 12 15 12q11 0 20.5 -9t9.5 -14z" />
    <glyph glyph-name="dieresis" unicode="&#xa8;" horiz-adv-x="303" 
d="M267 728q0 -19 -13 -36t-33 -17q-22 0 -37 16t-15 36t13.5 36t35.5 16q21 0 35 -15.5t14 -35.5zM133 728q0 -19 -13 -36t-33 -17q-22 0 -37 16t-15 36t13.5 36t35.5 16q21 0 35 -15.5t14 -35.5z" />
    <glyph glyph-name="AE" unicode="&#xc6;" horiz-adv-x="897" 
d="M870 256q0 -52 -18.5 -98.5t-51.5 -82t-79 -56t-101 -20.5h-9t-26.5 0.5t-60 0.5h-106.5v4q23 12 37.5 26t22.5 30.5t11.5 34.5t3.5 36q0 78 -40.5 114.5t-105.5 36.5q-31 0 -61 -9t-53 -26.5t-37 -42.5t-14 -58q0 -26 9 -48t25.5 -39t39.5 -27t49 -10q6 0 15.5 1t19 4
t15.5 9.5t6 15.5q0 5 -1.5 12.5t-9.5 7.5q-24 0 -45 2t-35.5 10t-22.5 24.5t-8 44.5q0 46 31 72t73 26q50 0 85 -29.5t35 -79.5q0 -47 -22.5 -76.5t-56 -46.5t-73.5 -23.5t-77 -6.5q-32 0 -67.5 9t-65.5 26.5t-49.5 45t-19.5 65.5q0 47 18.5 73t48 41.5t65.5 24.5t71 21.5
t64.5 32t47.5 55.5q9 19 9 42q0 29 -11 57t-30 49t-43.5 34t-52.5 13q-6 0 -18 -3t-22.5 -9t-18.5 -15t-8 -23q0 -3 3 -10.5t8 -7.5q17 4 33 4q27 0 46 -8t30.5 -21t17 -31t5.5 -37q0 -24 -8.5 -44.5t-24.5 -35.5t-38 -24t-48 -9t-50.5 9.5t-43.5 27t-30.5 42t-11.5 52.5
q0 48 24 81.5t63.5 54.5t88 31t96.5 10q58 0 105 -17.5t75 -55.5q34 31 76.5 52t91.5 21q37 0 73.5 -13.5t65 -35.5t46.5 -52.5t18 -64.5q0 -39 -10 -71.5t-30.5 -56.5t-50.5 -37.5t-69 -13.5q-36 0 -59 17t-39 37t-29.5 37t-31.5 17q-7 0 -11 -5t-5.5 -12t-2 -13.5
t-0.5 -10.5q0 -34 13.5 -63t36.5 -51t53 -34t62 -12q61 0 110.5 34t65.5 97q3 -14 3.5 -26t0.5 -23zM694 503q0 13 -3.5 26t-10.5 24t-18 18t-24 7q-26 0 -47.5 -18t-36.5 -44t-23 -54t-8 -49q0 -7 2 -7q12 5 21 6.5t17 1.5q15 0 26.5 -4t30.5 -4q21 0 35 8.5t22.5 22
t12.5 31t4 35.5z" />
    <glyph glyph-name="Oslash" unicode="&#xd8;" horiz-adv-x="577" 
d="M550 307q0 -57 -16.5 -114t-50 -102t-82 -73.5t-111.5 -28.5q-65 0 -119 30l-21 -39q-8 -19 -15 -19q-8 0 -8 8t5 17l21 44q-59 40 -92 106.5t-33 141.5q0 26 3.5 58t11 62.5t19 57.5t26.5 42q-5 -27 -8 -51.5t-3 -49.5q0 -32 12 -67.5t33.5 -64.5t50 -48t61.5 -19h4
l56 114q-23 -8 -52 -8q-28 0 -54 11t-46 30t-31.5 45.5t-11.5 55.5q0 40 16.5 72t43 53t62 32.5t73.5 11.5q39 0 71.5 -11t60.5 -30l17 33q9 17 15 17q2 0 3 -1q6 -3 6 -6q0 -4 -8 -20l-17 -35q26 -21 46 -50t34 -62t21 -69.5t7 -73.5zM399 520q-16 29 -42 47t-63 18
q-6 0 -12.5 -1.5t-13 -5t-11 -9.5t-4.5 -15q0 -16 15 -26t33.5 -19.5t37.5 -21t28 -32.5zM429 409q0 21 -5 44.5t-14 45.5l-37 -76q-1 -31 -13 -56.5t-37 -42.5l-63 -125q41 5 72 23t53 45.5t33 63.5t11 78z" />
    <glyph glyph-name="plusminus" unicode="&#xb1;" horiz-adv-x="576" 
d="M556 409q0 -32 -8.5 -60t-21.5 -54.5t-28.5 -54.5t-29 -62t-22 -77t-8.5 -98q0 -67 -12 -119.5t-39 -88t-68.5 -54t-101.5 -18.5q-37 0 -68.5 13.5t-54 34.5t-34.5 49t-12 58q0 29 10.5 55t30 46.5t45.5 32t57 11.5q24 0 45.5 -8.5t38.5 -24t27 -37t10 -46.5
q0 -21 -10 -34.5t-21 -24.5l-21 -21t-10 -24q0 -31 31 -31q22 0 36.5 12.5t23 31t11.5 39.5t3 37q0 26 -5 53t-15.5 51.5t-24 46.5t-30.5 37q-44 29 -73 58.5t-48 56.5t-29.5 52t-14.5 43q-12 43 -23 88t-24 85.5t-28.5 72.5t-37.5 49q-3 3 -9 6.5t-11.5 7t-10 6t-4.5 3.5
h268v-5q-27 -18 -43.5 -32.5t-26 -30.5t-12.5 -36.5t-3 -49.5q0 -37 11 -78.5t33 -76t54.5 -56.5t75.5 -22q41 0 73.5 20.5t55.5 51.5t35 70t12 75q0 28 -11.5 53.5t-32 44.5t-47 30.5t-56.5 11.5q-8 0 -20 -3t-22 -8.5t-17.5 -14t-7.5 -20.5q0 -11 4 -14.5t16 -3.5
q9 0 14 2t10.5 5t13 5.5t20.5 2.5q21 0 38 -9t29 -24t18 -34.5t6 -41.5q0 -27 -8 -50.5t-23.5 -41t-38 -28t-50.5 -10.5q-64 0 -103 40t-39 106q0 35 13 67t36 56t54.5 38.5t67.5 14.5q42 0 77.5 -16.5t60.5 -44.5t39.5 -64.5t14.5 -77.5z" />
    <glyph glyph-name="yen" unicode="&#xa5;" horiz-adv-x="665" 
d="M649 608q-27 -25 -47.5 -64t-39.5 -83.5t-37 -90.5t-38.5 -82.5t-44.5 -59.5t-54 -23v-32h183q14 0 19 -2t5 -8q0 -10 -22 -10h-185v-16.5t1 -16.5h182q14 0 19 -1.5t5 -7.5q0 -10 -22 -10h-182q2 -20 7 -37t13.5 -30.5t22.5 -20.5t33 -7l3 -5q-33 -1 -66.5 -1h-80.5h-78
t-64 1l2 5q39 0 55 27t21 68h-176q-13 0 -18 2.5t-5 7.5q0 6 5 7.5t19 1.5h177q0 8 0.5 16.5t0.5 16.5h-179q-13 0 -18 2.5t-5 7.5q0 6 5 8t19 2h178v36q-34 0 -59 24.5t-45 63.5t-36.5 86.5t-32.5 91.5t-33 80t-38 53h141q7 0 12 -2.5t5 -15.5q0 -33 8.5 -70t27 -68.5
t48 -52t70.5 -20.5q53 0 82.5 20t45 51t19.5 68t4 70q0 13 5.5 16t9.5 4h153z" />
    <glyph glyph-name="mu" unicode="&#xb5;" horiz-adv-x="587" 
d="M560 297q0 -57 -16.5 -112.5t-49 -98.5t-80 -70t-109.5 -27q-38 0 -73.5 11.5t-62 32.5t-43 52.5t-16.5 72.5q0 29 11.5 55.5t31.5 45.5t45.5 30t53.5 11q68 0 99.5 -35.5t31.5 -88.5q0 -30 -18 -46.5t-41 -28.5t-41.5 -22t-18.5 -29q0 -9 4.5 -15t10.5 -9.5t13 -5.5
t13 -2q35 0 60 17t42 43.5t25 57.5t8 59q0 45 -13 83.5t-38 67t-61.5 44.5t-82.5 16q-51 0 -85.5 -23.5t-55.5 -60t-29.5 -80.5t-8.5 -86q0 -50 16 -95t41.5 -79.5t57 -54.5t63.5 -20q26 0 49.5 7.5t46 16.5t45.5 16.5t46 7.5q32 0 50 -15t27 -37.5t11 -50t2 -50.5
q-10 13 -19 17.5t-20 4.5t-33.5 -5.5t-50 -13t-57.5 -13.5t-56 -6q-49 0 -87.5 19.5t-67 51.5t-48 72t-31.5 80.5t-17.5 77.5t-5.5 63q0 104 11.5 189.5t42 147t83.5 95t136 33.5q63 0 111.5 -28.5t81.5 -73.5t49.5 -102t16.5 -114z" />
    <glyph glyph-name="ordfeminine" unicode="&#xaa;" horiz-adv-x="637" 
d="M439 0q25 11 40 29.5t23.5 41t11.5 48.5t3 51q0 41 -17 83.5t-45.5 77.5t-67 58t-84.5 23q-39 0 -65 -17.5t-42 -46t-23 -65t-7 -76.5q0 -27 8.5 -60.5t25.5 -63t43 -48.5t60 -19q20 0 33.5 7t13.5 27q0 12 -10 18t-24.5 10.5t-32 10t-32 16t-24.5 28t-10 48.5
q0 29 11 51t28.5 37.5t40.5 23.5t49 8q33 0 61.5 -11.5t49.5 -32t33 -48.5t12 -62q0 -38 -18.5 -68t-47 -50.5t-64 -31.5t-69.5 -11q-70 0 -121 27.5t-84.5 72.5t-50 104t-16.5 122q0 52 13.5 105.5t40.5 97t67.5 71.5t95.5 28q46 0 86 -17.5t72.5 -46t57 -65t42.5 -76.5
q0 58 -28.5 109.5t-93.5 88.5h141q14 0 22 -2.5t12 -8t5 -14t1 -21.5q0 -22 -0.5 -62t-1 -87.5t-1 -99t-0.5 -97.5v-83v-55q1 -35 26.5 -50.5t56.5 -21.5v-5h-206z" />
    <glyph glyph-name="ordmasculine" unicode="&#xba;" horiz-adv-x="373" 
d="M302 729q0 -20 -7.5 -39.5t-21.5 -34.5t-34 -24.5t-45 -9.5q-21 0 -39.5 9.5t-32 24.5t-21.5 34.5t-8 39.5q0 47 29 76.5t74 29.5q30 0 50.5 -10t32.5 -26t17.5 -34t5.5 -36zM367 543q-27 0 -42.5 -14t-24 -37.5t-10.5 -52.5t-2 -59v-320q0 -81 -8 -144t-31.5 -106
t-65.5 -65.5t-111 -22.5q-38 0 -69.5 13.5t-54 34.5t-34.5 49t-12 58q0 29 10.5 55t30 46.5t46 32t57.5 11.5q23 0 45 -8.5t39 -24t26.5 -37t9.5 -46.5q0 -21 -9.5 -34.5t-21 -24.5t-21 -21t-9.5 -24q0 -31 30 -31q22 0 36.5 12.5t23 31t12 39.5t3.5 37q0 61 -29 102t-77 63
v324q0 30 -2 59t-10.5 52.5t-24 37.5t-42.5 14l-3 5q32 1 79 1h93h95t81 -1z" />
    <glyph glyph-name="ae" unicode="&#xe6;" horiz-adv-x="897" 
d="M870 256q0 -52 -18.5 -98.5t-51.5 -82t-79 -56t-101 -20.5h-9t-26.5 0.5t-60 0.5h-106.5v4q23 12 37.5 26t22.5 30.5t11.5 34.5t3.5 36q0 78 -40.5 114.5t-105.5 36.5q-31 0 -61 -9t-53 -26.5t-37 -42.5t-14 -58q0 -26 9 -48t25.5 -39t39.5 -27t49 -10q6 0 15.5 1t19 4
t15.5 9.5t6 15.5q0 5 -1.5 12.5t-9.5 7.5q-24 0 -45 2t-35.5 10t-22.5 24.5t-8 44.5q0 46 31 72t73 26q50 0 85 -29.5t35 -79.5q0 -47 -22.5 -76.5t-56 -46.5t-73.5 -23.5t-77 -6.5q-32 0 -67.5 9t-65.5 26.5t-49.5 45t-19.5 65.5q0 47 18.5 73t48 41.5t65.5 24.5t71 21.5
t64.5 32t47.5 55.5q9 19 9 42q0 29 -11 57t-30 49t-43.5 34t-52.5 13q-6 0 -18 -3t-22.5 -9t-18.5 -15t-8 -23q0 -3 3 -10.5t8 -7.5q17 4 33 4q27 0 46 -8t30.5 -21t17 -31t5.5 -37q0 -24 -8.5 -44.5t-24.5 -35.5t-38 -24t-48 -9t-50.5 9.5t-43.5 27t-30.5 42t-11.5 52.5
q0 48 24 81.5t63.5 54.5t88 31t96.5 10q58 0 105 -17.5t75 -55.5q34 31 76.5 52t91.5 21q37 0 73.5 -13.5t65 -35.5t46.5 -52.5t18 -64.5q0 -39 -10 -71.5t-30.5 -56.5t-50.5 -37.5t-69 -13.5q-36 0 -59 17t-39 37t-29.5 37t-31.5 17q-7 0 -11 -5t-5.5 -12t-2 -13.5
t-0.5 -10.5q0 -34 13.5 -63t36.5 -51t53 -34t62 -12q61 0 110.5 34t65.5 97q3 -14 3.5 -26t0.5 -23zM694 503q0 13 -3.5 26t-10.5 24t-18 18t-24 7q-26 0 -47.5 -18t-36.5 -44t-23 -54t-8 -49q0 -7 2 -7q12 5 21 6.5t17 1.5q15 0 26.5 -4t30.5 -4q21 0 35 8.5t22.5 22
t12.5 31t4 35.5z" />
    <glyph glyph-name="oslash" unicode="&#xf8;" horiz-adv-x="577" 
d="M550 307q0 -57 -16.5 -114t-50 -102t-82 -73.5t-111.5 -28.5q-65 0 -119 30l-21 -39q-8 -19 -15 -19q-8 0 -8 8t5 17l21 44q-59 40 -92 106.5t-33 141.5q0 26 3.5 58t11 62.5t19 57.5t26.5 42q-5 -27 -8 -51.5t-3 -49.5q0 -32 12 -67.5t33.5 -64.5t50 -48t61.5 -19h4
l56 114q-23 -8 -52 -8q-28 0 -54 11t-46 30t-31.5 45.5t-11.5 55.5q0 40 16.5 72t43 53t62 32.5t73.5 11.5q39 0 71.5 -11t60.5 -30l17 33q9 17 15 17q2 0 3 -1q6 -3 6 -6q0 -4 -8 -20l-17 -35q26 -21 46 -50t34 -62t21 -69.5t7 -73.5zM399 520q-16 29 -42 47t-63 18
q-6 0 -12.5 -1.5t-13 -5t-11 -9.5t-4.5 -15q0 -16 15 -26t33.5 -19.5t37.5 -21t28 -32.5zM429 409q0 21 -5 44.5t-14 45.5l-37 -76q-1 -31 -13 -56.5t-37 -42.5l-63 -125q41 5 72 23t53 45.5t33 63.5t11 78z" />
    <glyph glyph-name="questiondown" unicode="&#xbf;" horiz-adv-x="496" 
d="M346 530q0 -17 -7 -33.5t-19 -29t-28 -19.5t-35 -7q-39 0 -63.5 25.5t-24.5 63.5t24 63t60 25q38 0 65.5 -23.5t27.5 -64.5zM465 160q0 -42 -18.5 -74.5t-48.5 -54t-68 -33t-77 -11.5q-36 0 -75.5 9t-72.5 28.5t-54 50t-21 74.5q0 47 18 78.5t45.5 53t59 35t59.5 25
t46 24.5t18 31l-6 27l6 3q20 -19 38.5 -35.5t18.5 -33.5q0 -12 -12 -24.5t-30.5 -25t-39.5 -27t-39.5 -31.5t-30.5 -38.5t-12 -47.5q0 -28 10.5 -53.5t29 -43.5t44 -29t53.5 -11q9 0 21 3t22.5 9t18.5 14.5t8 20.5q0 10 -5.5 14t-13.5 4t-18.5 -2t-21.5 -2q-39 0 -63 24.5
t-24 64.5q0 46 30 76.5t77 30.5q26 0 49.5 -9t41 -25.5t27.5 -39t10 -49.5z" />
    <glyph glyph-name="exclamdown" unicode="&#xa1;" horiz-adv-x="288" 
d="M222 516q0 -18 -6.5 -34t-19 -28t-29 -19.5t-36.5 -7.5q-16 0 -31 8t-26 20t-17.5 27.5t-6.5 31.5q0 40 24 65t61 25t62 -25t25 -63zM251 93q0 -23 -9 -43t-25 -34.5t-37 -22.5t-45 -8q-21 0 -40 9t-32 23.5t-21 34.5t-8 41q0 23 8 41t19 36t23 36.5t21 40.5q13 36 18 78
t5 79q0 6 1.5 7.5t9.5 1.5t9.5 -1t1.5 -6q0 -16 1 -36t4 -40.5t8.5 -42t14.5 -38.5q7 -22 20 -40t24.5 -35.5t20 -37t8.5 -43.5z" />
    <glyph glyph-name="logicalnot" unicode="&#xac;" horiz-adv-x="1067" 
d="M1032 278q0 -55 -14.5 -107t-43.5 -92t-73.5 -65t-103.5 -25q-40 0 -78 8t-72.5 26.5t-63.5 49.5t-49 78q-20 -47 -49 -78t-63.5 -49.5t-73 -26.5t-78.5 -8q-59 0 -103.5 25t-73.5 65t-43.5 92t-14.5 107q0 66 16.5 125.5t49.5 104.5t82 72.5t114 27.5q36 0 70 -12.5
t60 -35t42 -56t16 -76.5q0 -32 -10.5 -59t-30 -47.5t-46.5 -32t-61 -11.5q-26 0 -49 9t-40 25.5t-26.5 40t-9.5 50.5q0 29 9.5 48.5t26.5 31t39 16t46 4.5q13 5 17.5 10t4.5 20t-6 23t-15.5 12t-19.5 5t-17 1q-36 0 -62.5 -17.5t-44 -45.5t-26.5 -63t-9 -70
q0 -39 11.5 -74.5t33 -62.5t53.5 -42.5t74 -15.5q44 0 80 17.5t61.5 48t39 69t13.5 80.5v61h25v-61q0 -42 13.5 -80.5t39 -69t61.5 -48t80 -17.5q42 0 74.5 15.5t54 42.5t33 62.5t11.5 74.5q0 35 -9 70t-27 63t-44.5 45.5t-62.5 17.5q-7 0 -16.5 -1t-19 -5t-16 -12t-6.5 -23
t5 -20t17 -10q24 0 46 -4.5t39 -16t26.5 -31t9.5 -48.5q0 -27 -9.5 -50.5t-26.5 -40t-40 -25.5t-49 -9q-33 0 -60.5 11.5t-46.5 32t-29.5 47.5t-10.5 59q0 43 16 76.5t42 56t59.5 35t69.5 12.5q65 0 114 -27.5t82 -72.5t49.5 -104.5t16.5 -125.5z" />
    <glyph glyph-name="florin" unicode="&#x192;" horiz-adv-x="667" 
d="M655 688q0 -30 -12 -56t-32.5 -45t-47.5 -29.5t-58 -10.5q-55 0 -88.5 33.5t-33.5 89.5q0 38 17.5 56.5t39.5 28.5t40 18t18 24q0 20 -15.5 25.5t-30.5 5.5q-26 0 -47.5 -14.5t-37 -37t-23.5 -49t-8 -49.5q0 -45 9 -78t39 -54.5t86.5 -31.5t151.5 -10l-1 -19
q-7 1 -15.5 1h-18.5q-59 0 -95.5 -6.5t-55.5 -21t-25 -38t-6 -57.5v-302q0 -67 -10.5 -128t-35.5 -107.5t-67 -74.5t-107 -28q-40 0 -71.5 13.5t-53.5 34.5t-33.5 49t-11.5 58q0 29 10.5 55t30 46.5t45.5 32t57 11.5q24 0 45.5 -8.5t38.5 -24t27 -37t10 -46.5
q0 -21 -10 -34.5t-21 -24.5l-21 -21t-10 -24q0 -31 32 -31q22 0 36 12.5t22.5 31t11.5 39.5t3 37q0 60 -28 98t-73 67v325q0 28 -3.5 48t-14.5 32.5t-29.5 19t-46.5 7.5v14q0 1 14 2t31.5 6t31.5 17t14 35q0 54 17.5 107t50 96t79.5 69.5t106 26.5q37 0 70.5 -13.5t58.5 -37
t40 -55t15 -68.5z" />
    <glyph glyph-name="guillemotleft" unicode="&#xab;" horiz-adv-x="675" 
d="M648 320q0 -65 -16.5 -125t-49.5 -105t-82.5 -72.5t-114.5 -27.5q-35 0 -69 12.5t-60.5 35.5t-42.5 56.5t-16 75.5q0 32 10.5 59.5t30 47.5t47 31.5t61.5 11.5q26 0 48.5 -9t39 -25.5t26.5 -39.5t10 -51q0 -29 -10 -48.5t-26.5 -30.5t-38 -15.5t-46.5 -4.5
q-12 -6 -17 -10.5t-5 -19.5t6.5 -23t15.5 -12.5t19.5 -5.5t16.5 -1q36 0 63 17.5t44.5 46t26 63t8.5 70.5q0 39 -11 74.5t-33 62t-54 43t-74 16.5q-44 0 -79 -18.5t-59.5 -49t-37 -69t-12.5 -80.5q0 -99 1.5 -168t5.5 -115.5t11 -74.5t18.5 -45.5t28 -28.5t38.5 -22h-242
l3 5q27 0 43.5 14.5t25.5 36.5t11.5 51.5t2.5 58.5v327q0 111 21 182.5t57.5 113.5t85.5 58.5t105 16.5q69 0 119.5 -25t82.5 -65.5t47.5 -92.5t15.5 -107z" />
    <glyph glyph-name="guillemotright" unicode="&#xbb;" horiz-adv-x="675" 
d="M406 -254q22 11 38.5 22t27.5 28.5t18.5 45.5t11.5 74.5t5.5 115.5t1.5 168q0 42 -13 80.5t-37 69t-59 49t-80 18.5q-41 0 -73 -16.5t-54 -43t-33 -62t-11 -74.5q0 -36 8.5 -70.5t26 -63t44 -46t62.5 -17.5q7 0 17 1t19.5 5.5t16 12.5t6.5 23t-5 19.5t-17 10.5
q-24 0 -46.5 4.5t-39 15.5t-26 30.5t-9.5 48.5q0 28 9.5 51t26.5 39.5t39.5 25.5t48.5 9q34 0 61 -11.5t46.5 -31.5t30.5 -47.5t11 -59.5q0 -42 -16 -75.5t-42.5 -56.5t-60.5 -35.5t-70 -12.5q-65 0 -114 27.5t-82 72.5t-49.5 105t-16.5 125q0 55 15 107t47 92.5t82.5 65.5
t120.5 25q56 0 105 -16.5t85 -58.5t57.5 -113.5t21.5 -182.5v-327q0 -29 2.5 -58.5t11 -51.5t25 -36.5t44.5 -14.5l3 -5h-242z" />
    <glyph glyph-name="ellipsis" unicode="&#x2026;" horiz-adv-x="589" 
d="M555 68q0 -16 -5 -31t-14.5 -26.5t-22 -18.5t-28.5 -7q-17 0 -31.5 6.5t-25.5 17.5t-16.5 25.5t-5.5 29.5q0 30 21 54.5t54 24.5q15 0 28.5 -7t24 -17.5t16 -23.5t5.5 -27zM371 68q0 -16 -5.5 -31t-14.5 -26.5t-21.5 -18.5t-28.5 -7q-18 0 -32.5 6.5t-25 17.5t-16.5 25.5
t-6 29.5q0 30 21 54.5t54 24.5q16 0 29.5 -7t23.5 -17.5t16 -23.5t6 -27zM186 68q0 -16 -5 -31t-14.5 -26.5t-22 -18.5t-27.5 -7q-18 0 -32.5 6.5t-25 17.5t-16.5 25.5t-6 29.5q0 30 21 54.5t54 24.5q15 0 28.5 -7t24 -17.5t16 -23.5t5.5 -27z" />
    <glyph glyph-name="OE" unicode="&#x152;" horiz-adv-x="938" 
d="M911 256q0 -52 -17 -101t-48 -86.5t-75.5 -60.5t-98.5 -23q-63 0 -112 27t-82 71q-33 -43 -80 -68.5t-108 -25.5q-59 0 -107 24.5t-82.5 64.5t-53.5 92t-19 108q0 26 3.5 58t11 62.5t19 57.5t26.5 42q-5 -27 -8 -51.5t-3 -49.5q0 -32 12 -67.5t33.5 -64.5t50 -48
t61.5 -19q47 0 83 16t61 44.5t38 67t13 83.5q0 28 -7.5 59t-24.5 57t-42.5 43t-60.5 17q-6 0 -12.5 -1.5t-13 -5t-11 -9.5t-4.5 -15q0 -18 18.5 -28.5t41.5 -22.5t41.5 -28t18.5 -47q0 -53 -31.5 -88.5t-99.5 -35.5q-28 0 -54 11t-46 30t-31.5 45.5t-11.5 55.5q0 40 16.5 72
t43 53t62 32.5t73.5 11.5q66 0 115.5 -30t81.5 -78q37 47 89 76t121 29q37 0 73.5 -13.5t65 -35.5t46.5 -52.5t18 -64.5q0 -39 -10.5 -71.5t-30.5 -56.5t-50 -37.5t-69 -13.5q-36 0 -59 17t-39 37t-29.5 37t-32.5 17q-6 0 -10 -5t-5.5 -12t-2 -13.5t-0.5 -10.5
q0 -34 13.5 -63t36.5 -51t53 -34t62 -12q61 0 110 34t66 97q3 -14 3.5 -26t0.5 -23zM735 503q0 13 -3.5 26t-10.5 24t-18 18t-24 7q-27 0 -48 -18t-36 -44t-23 -54t-8 -49q0 -7 2 -7q12 5 21 6.5t17 1.5q14 0 26 -4t31 -4q21 0 35 8.5t22.5 22t12.5 31t4 35.5z" />
    <glyph glyph-name="oe" unicode="&#x153;" horiz-adv-x="938" 
d="M911 256q0 -52 -17 -101t-48 -86.5t-75.5 -60.5t-98.5 -23q-63 0 -112 27t-82 71q-33 -43 -80 -68.5t-108 -25.5q-59 0 -107 24.5t-82.5 64.5t-53.5 92t-19 108q0 26 3.5 58t11 62.5t19 57.5t26.5 42q-5 -27 -8 -51.5t-3 -49.5q0 -32 12 -67.5t33.5 -64.5t50 -48
t61.5 -19q47 0 83 16t61 44.5t38 67t13 83.5q0 28 -7.5 59t-24.5 57t-42.5 43t-60.5 17q-6 0 -12.5 -1.5t-13 -5t-11 -9.5t-4.5 -15q0 -18 18.5 -28.5t41.5 -22.5t41.5 -28t18.5 -47q0 -53 -31.5 -88.5t-99.5 -35.5q-28 0 -54 11t-46 30t-31.5 45.5t-11.5 55.5q0 40 16.5 72
t43 53t62 32.5t73.5 11.5q66 0 115.5 -30t81.5 -78q37 47 89 76t121 29q37 0 73.5 -13.5t65 -35.5t46.5 -52.5t18 -64.5q0 -39 -10.5 -71.5t-30.5 -56.5t-50 -37.5t-69 -13.5q-36 0 -59 17t-39 37t-29.5 37t-32.5 17q-6 0 -10 -5t-5.5 -12t-2 -13.5t-0.5 -10.5
q0 -34 13.5 -63t36.5 -51t53 -34t62 -12q61 0 110 34t66 97q3 -14 3.5 -26t0.5 -23zM735 503q0 13 -3.5 26t-10.5 24t-18 18t-24 7q-27 0 -48 -18t-36 -44t-23 -54t-8 -49q0 -7 2 -7q12 5 21 6.5t17 1.5q14 0 26 -4t31 -4q21 0 35 8.5t22.5 22t12.5 31t4 35.5z" />
    <glyph glyph-name="endash" unicode="&#x2013;" horiz-adv-x="485" 
d="M483 297q0 -28 -23 -28h-433q-13 0 -18 7t-5 21q0 18 5 23.5t19 5.5h430q15 0 20 -5.5t5 -23.5z" />
    <glyph glyph-name="emdash" unicode="&#x2014;" horiz-adv-x="970" 
d="M963 297q0 -28 -22 -28h-914q-13 0 -18 7t-5 21q0 18 5 23.5t19 5.5h911q14 0 19 -5.5t5 -23.5z" />
    <glyph glyph-name="quotedblleft" unicode="&#x201c;" horiz-adv-x="398" 
d="M374 625q0 -31 -21 -53t-53 -22q-42 0 -60.5 26.5t-18.5 63.5q0 35 8.5 61.5t20.5 44.5t26 27t26 9v-5q-14 -9 -23 -24t-9 -35q0 -9 3 -15q2 -4 3 -5q16 6 30 6q31 0 49.5 -21t18.5 -58zM187 625q0 -31 -20.5 -53t-52.5 -22q-42 0 -60.5 26.5t-18.5 63.5q0 35 8 61.5
t20.5 44.5t26.5 27t26 9v-5q-14 -9 -23.5 -24t-9.5 -35q0 -9 3 -15q2 -4 3 -5q17 6 30 6q31 0 49.5 -21t18.5 -58z" />
    <glyph glyph-name="quotedblright" unicode="&#x201d;" horiz-adv-x="394" 
d="M366 692q0 -35 -8 -61.5t-20.5 -44.5t-26.5 -27t-26 -9v5q14 9 23 24t9 35q0 9 -2 15q-2 4 -3 5q-16 -6 -30 -6q-32 0 -50 21t-18 58q0 31 20.5 53t52.5 22q42 0 60.5 -26.5t18.5 -63.5zM180 692q0 -35 -8.5 -61.5t-20.5 -44.5t-26 -27t-26 -9v5q14 9 23 24t9 35
q0 9 -3 15q-2 4 -3 5q-15 -6 -30 -6q-31 0 -49.5 21t-18.5 58q0 31 21 53t53 22q42 0 60.5 -26.5t18.5 -63.5z" />
    <glyph glyph-name="quoteleft" unicode="&#x2018;" horiz-adv-x="190" 
d="M181 625q0 -31 -21 -53t-53 -22q-42 0 -60.5 26.5t-18.5 63.5q0 35 8.5 61.5t20.5 44.5t26 27t26 9v-5q-14 -9 -23 -24t-9 -35q0 -9 3 -15q2 -4 3 -5q16 6 30 6q31 0 49.5 -21t18.5 -58z" />
    <glyph glyph-name="quoteright" unicode="&#x2019;" horiz-adv-x="183" 
d="M167 692q0 -35 -8.5 -61.5t-20.5 -44.5t-26 -27t-26 -9v5q14 9 23 24t9 35q0 9 -2 15q-2 4 -3 5q-16 -6 -30 -6q-32 0 -50 21t-18 58q0 31 20.5 53t52.5 22q42 0 60.5 -26.5t18.5 -63.5z" />
    <glyph glyph-name="divide" unicode="&#xf7;" horiz-adv-x="675" 
d="M648 258q0 -54 -15.5 -106t-47.5 -93t-82.5 -65.5t-119.5 -24.5q-56 0 -105 16.5t-85.5 58t-57.5 113.5t-21 183v349q0 29 -2.5 58.5t-11.5 51.5t-25.5 36.5t-43.5 14.5l-3 5h242q-22 -11 -38.5 -24t-28 -32.5t-18.5 -50.5t-11 -80.5t-5.5 -119.5t-1.5 -169
q0 -42 12.5 -81t37 -69t59.5 -48.5t79 -18.5q42 0 74 16t54 43t33 62t11 74q0 36 -8.5 71t-26 63t-44.5 45.5t-63 17.5q-6 0 -16.5 -1t-19.5 -5t-15.5 -12.5t-6.5 -22.5q0 -15 5 -20t17 -10q25 0 46.5 -4.5t38 -16t26.5 -30.5t10 -49q0 -28 -10 -50.5t-26.5 -39t-39 -26
t-48.5 -9.5q-34 0 -61.5 12t-47 31.5t-30 47.5t-10.5 60q0 42 16 75t42.5 56.5t60.5 35.5t69 12q65 0 114.5 -27t82.5 -72t49.5 -105t16.5 -126z" />
    <glyph glyph-name="ydieresis" unicode="&#xff;" horiz-adv-x="574" 
d="M395 826q0 -5 -5 -14l-69 -120q-6 -12 -15 -12q-6 0 -17 5q-13 7 -13 18q0 6 4 13l70 121q8 12 15 12q11 0 20.5 -9t9.5 -14zM552 510q0 -22 -5 -43t-17 -37.5t-29.5 -27.5t-42.5 -11q-39 0 -61.5 23.5t-22.5 57.5q0 15 4 27q0 1 -5.5 4t-11.5 3q-9 0 -14 -5.5t-9 -13.5
t-5.5 -16.5t-1.5 -14.5q0 -27 17 -79t37.5 -116t37.5 -134.5t17 -133.5q0 -49 -17 -97.5t-48 -86.5t-75.5 -62t-98.5 -24q-34 0 -65.5 10.5t-56.5 30t-40 48t-15 65.5q0 28 11.5 52t30 41.5t44 27.5t52.5 10q50 0 81.5 -32.5t31.5 -83.5q0 -31 -14.5 -46.5t-32 -25
t-32 -17.5t-14.5 -23t11.5 -22.5t22.5 -7.5q26 0 46.5 13t34.5 33.5t20.5 45t6.5 46.5q0 32 -10.5 58t-28.5 45.5t-43 34t-53 24.5l-141 464q-11 36 -35 63t-63 38v6h345v-4q-29 -10 -46 -22t-25.5 -26t-11 -31.5t-2.5 -39.5q0 -42 10 -90t26.5 -97t38 -95.5t42.5 -84.5
q5 0 7 7.5t3.5 16.5t1.5 18.5v14.5q0 34 -8 66t-16.5 64.5t-16.5 65.5t-8 68q0 32 9 64.5t26.5 57t44 40t62.5 15.5q24 0 46 -9.5t38.5 -26t26 -38.5t9.5 -45z" />
    <glyph glyph-name="currency" unicode="&#xa4;" horiz-adv-x="602" 
d="M570 292q0 -57 -13.5 -112.5t-43.5 -98.5t-76 -69.5t-110 -26.5q-55 0 -100 21.5t-78 57t-53 81.5t-26 96h-28q-14 0 -19 2.5t-5 6.5q0 6 5 8t20 2h25v18v12h-26q-14 0 -19 2.5t-5 7.5q0 6 5 8t20 2h26q5 56 25.5 112t55.5 100t84 71.5t111 27.5q39 0 78 -11t69.5 -33.5
t50 -55t19.5 -75.5q0 -32 -11 -62t-31.5 -51.5t-48 -35t-61.5 -13.5q-30 0 -57.5 10t-48.5 27.5t-33 42.5t-12 56t11.5 51t30 32t43 16t51.5 4q22 6 22 31q-1 14 -17.5 24t-32.5 10q-41 0 -70 -18.5t-48.5 -47t-28.5 -63.5t-9 -68q0 -42 13 -81h62q15 0 20 -2t5 -8
q0 -10 -23 -10h-56q4 -7 8.5 -15t9.5 -15h104q15 0 20 -2t5 -8q0 -9 -23 -9h-90q23 -25 55.5 -39.5t73.5 -14.5q30 0 58.5 11t50.5 30t37.5 45t20.5 56l5 -4q0 -3 1.5 -15t1.5 -18z" />
    <glyph glyph-name="guilsinglleft" unicode="&#x2039;" horiz-adv-x="969" 
d="M956 183q0 -43 -18 -78t-48 -59t-68.5 -37t-78.5 -13q-80 0 -125 27t-68 70t-28.5 98.5t-5.5 112.5v32.5t0.5 50t0.5 59.5v60v53t1 36h-268v-277q-1 -1 -2 -3q-2 -6 -2 -8q-10 -17 -19.5 -31t-16 -28t-10.5 -29.5t-4 -35.5q0 -31 10.5 -57.5t30 -46.5t47 -31t59.5 -11
q12 0 26 4t25.5 11t18.5 18t7 25q0 22 -18 22q-13 -2 -19 -6.5t-12.5 -9t-16.5 -8t-31 -3.5q-19 0 -36 10.5t-29 27t-19.5 36t-7.5 38.5q0 27 11.5 49.5t31 38t44.5 23.5t50 8q28 0 53 -10.5t43.5 -29t28.5 -43.5t10 -55q0 -43 -18 -78t-48 -59t-68.5 -37t-79.5 -13
q-79 0 -124.5 27t-68 70t-28.5 98.5t-6 112.5v32.5t0.5 50t0.5 59.5t0.5 60t1 53t0.5 36h-72q-12 0 -12 6t13 6q64 0 110 23.5t76.5 58t45 72.5t14.5 67h10v-213h263q22 0 44 15t42 38.5t37 53t30 59t20 55.5t7 43h10v-264h210q14 0 19 -2.5t5 -7.5q0 -6 -5 -8t-18 -2h-211
v-277q-1 -1 -2 -3q-2 -6 -2 -8q-10 -17 -19 -31t-16 -28t-10.5 -29.5t-3.5 -35.5q0 -31 10.5 -57.5t30 -46.5t46.5 -31t59 -11q13 0 26.5 4t25 11t19 18t7.5 25q0 22 -19 22q-12 -2 -18.5 -6.5l-13 -9t-16.5 -8t-30 -3.5t-37 10.5t-29 27t-19.5 36t-7.5 38.5q0 27 12 49.5
t31.5 38t44 23.5t49.5 8q29 0 53.5 -10.5t43 -29t28.5 -43.5t10 -55z" />
    <glyph glyph-name="guilsinglright" unicode="&#x203a;" horiz-adv-x="382" 
d="M296 729q0 -20 -7 -39.5t-21.5 -34.5t-34 -24.5t-45.5 -9.5q-21 0 -39.5 9.5t-32 24.5t-21.5 34.5t-8 39.5q0 47 29.5 76.5t73.5 29.5q30 0 50.5 -10t32.5 -26t17.5 -34t5.5 -36zM364 1q-33 -1 -81 -1h-95h-92.5t-78.5 1l2 5q28 0 43.5 14t23.5 37.5t10 52.5t2 59v211
q0 30 -2 59t-10 52.5t-23.5 37.5t-43.5 14l-2 5q32 1 78.5 1h92.5h95t81 -1l-3 -5q-27 0 -42.5 -14t-24 -37.5t-10 -52.5t-1.5 -59v-211q0 -30 1.5 -59t10 -52.5t24 -37.5t42.5 -14z" />
    <glyph glyph-name="daggerdbl" unicode="&#x2021;" horiz-adv-x="609" 
d="M577 117q-15 28 -30 46.5t-32.5 29.5t-38.5 15.5t-46 4.5h-62v-71q0 -59 22 -92t82 -46v-4h-306v6q28 11 44.5 26t25 32.5t11 37t2.5 43.5v68h-69q-59 0 -92 -22t-46 -82h-4v247h6q11 -28 25.5 -44.5t32 -24.5t37.5 -10.5t44 -2.5h66v306h-69q-59 0 -92 -22t-46 -82h-4
v247h6q11 -28 25.5 -44.5t32 -24.5t37.5 -10.5t44 -2.5h66v62q0 29 -4 52t-14 40.5t-27 31t-42 24.5v4h302q-28 -14 -46.5 -29t-29.5 -32.5t-15.5 -38.5t-4.5 -46v-68h56q29 0 52 4t40.5 13.5t31 26.5t25.5 42h4v-244q-15 29 -30 47.5t-32.5 29.5t-38.5 15.5t-46 4.5h-62
v-306h56q29 0 52 4t40.5 13.5t31 26.5t25.5 42h4v-243z" />
    <glyph glyph-name="periodcentered" unicode="&#xb7;" horiz-adv-x="195" 
d="M177 320q0 -15 -5.5 -30t-14.5 -27t-22 -18.5t-28 -6.5q-18 0 -32.5 6.5t-25 17.5t-16.5 25t-6 30q0 30 21 54t54 24q15 0 29 -6.5t24 -17.5t16 -24t6 -27z" />
    <glyph glyph-name="quotesinglbase" unicode="&#x201a;" horiz-adv-x="183" 
d="M167 51q0 -34 -8.5 -61t-20.5 -45t-26 -26.5t-26 -8.5v5q14 8 23 23t9 35q0 10 -2 15q-2 4 -3 5q-16 -6 -30 -6q-32 0 -50 21t-18 58q0 31 20.5 53t52.5 22q42 0 60.5 -26.5t18.5 -63.5z" />
    <glyph glyph-name="quotedblbase" unicode="&#x201e;" horiz-adv-x="394" 
d="M366 51q0 -34 -8 -61t-20.5 -45t-26.5 -26.5t-26 -8.5v5q14 8 23 23t9 35q0 10 -2 15q-2 4 -3 5q-16 -6 -30 -6q-32 0 -50 21t-18 58q0 31 20.5 53t52.5 22q42 0 60.5 -26.5t18.5 -63.5zM180 51q0 -34 -8.5 -61t-20.5 -45t-26 -26.5t-26 -8.5v5q14 8 23 23t9 35
q0 10 -3 15q-2 4 -3 5q-15 -6 -30 -6q-31 0 -49.5 21t-18.5 58q0 31 21 53t53 22q42 0 60.5 -26.5t18.5 -63.5z" />
    <glyph glyph-name="perthousand" unicode="&#x2030;" horiz-adv-x="515" 
d="M485 135q0 -44 -23 -73t-56 -46t-69.5 -24t-62.5 -7q-41 0 -84 7t-79 24.5t-59 48.5t-23 81q0 32 13 57t34.5 43.5t48.5 30.5t55 19q-30 12 -55 23t-43.5 27t-29 40t-10.5 60q0 41 20 72.5t52 53t71 32.5t77 11t77.5 -9.5t71.5 -30t52 -51.5t20 -74q0 -24 -8.5 -45.5
t-24 -37.5t-37 -25t-46.5 -9q-23 0 -45.5 6.5t-40 19.5t-28 33t-10.5 46q0 23 6 39.5t16.5 27t23 15t25.5 4.5q16 0 26 -4t24 -4q11 0 18.5 5.5t7.5 17.5t-8 20t-19.5 12t-23.5 5t-20 1q-29 0 -54 -11.5t-44 -30t-30 -44t-11 -53.5q0 -33 13 -59t34 -43.5t48 -26.5t55 -9v-8
q-71 -8 -108.5 -39t-37.5 -103q0 -26 8 -50t23 -43t37 -30.5t49 -11.5q8 0 20 1.5t23 6t19 13t8 20.5q0 7 -4 11t-10 6t-11.5 2.5t-10.5 0.5q-40 0 -63.5 17t-23.5 65q0 23 9 41t24.5 31.5t36 20.5t41.5 7q25 0 48 -9.5t40.5 -26.5t27.5 -39.5t10 -47.5z" />
    <glyph glyph-name="Edieresis" unicode="&#xcb;" horiz-adv-x="552" 
d="M392 728q0 -19 -13 -36t-32 -17q-23 0 -38 16t-15 36t13.5 36t36.5 16q20 0 34 -15.5t14 -35.5zM258 728q0 -19 -13 -36t-32 -17q-23 0 -38 16t-15 36t13.5 36t36.5 16q20 0 34 -15.5t14 -35.5zM521 256q0 -52 -17 -101t-48 -86.5t-75 -60.5t-98 -23q-60 0 -107.5 24.5
t-80.5 64.5t-50.5 91.5t-17.5 105.5q0 63 18.5 124t55 109t89.5 78t122 30q37 0 73 -13.5t65 -35.5t47 -52.5t18 -64.5q0 -39 -10.5 -71.5t-31 -56.5t-50.5 -37.5t-69 -13.5q-36 0 -58.5 17t-38.5 37t-29.5 37t-32.5 17q-7 0 -10.5 -5t-5 -12t-2 -13.5t-0.5 -10.5
q0 -34 13.5 -63t36.5 -51t53 -34t62 -12q61 0 110 34t65 97q3 -14 3.5 -26t0.5 -23zM346 503q0 13 -3.5 26t-11 24t-18 18t-24.5 7q-26 0 -47.5 -18t-36.5 -44t-22.5 -54t-7.5 -49q0 -7 2 -7q11 5 20.5 6.5t17.5 1.5q14 0 25.5 -4t31.5 -4t34 8.5t23 22t13 31t4 35.5z" />
    <glyph glyph-name="Icircumflex" unicode="&#xce;" horiz-adv-x="374" 
d="M281 703q0 -11 -14 -18q-10 -5 -17 -5q-8 0 -15 12l-49 123l-48 -123q-7 -12 -16 -12q-5 0 -16 5q-14 7 -14 18q0 6 4 13q24 42 38 65.5t20.5 35t8.5 15t3 4.5q8 14 20 14t20 -14l71 -120q4 -7 4 -13zM363 1q-33 -1 -81 -1h-95h-92.5t-78.5 1l2 5q28 0 43.5 14t23.5 37.5
t10 52.5t2 59v269q0 30 -2 59t-10 52.5t-23.5 37.5t-43.5 14l-2 5q32 1 78.5 1h92.5h95t81 -1l-3 -5q-27 0 -42.5 -14t-24 -37.5t-10 -52.5t-1.5 -59v-269q0 -30 1.5 -59t10 -52.5t24 -37.5t42.5 -14z" />
    <glyph glyph-name="circumflex" unicode="&#x2c6;" horiz-adv-x="325" 
d="M268 703q0 -11 -14 -18q-9 -5 -16 -5q-9 0 -16 12l-48 123l-49 -123q-7 -12 -15 -12q-6 0 -17 5q-13 7 -13 18q0 6 3 13q25 42 38.5 65.5t20.5 35t8.5 15t2.5 4.5q8 14 21 14q11 0 19 -14l71 -120q4 -7 4 -13z" />
    <glyph glyph-name="tilde" unicode="&#x2dc;" horiz-adv-x="298" 
d="M278 736q0 -18 -8.5 -28.5t-20.5 -17.5t-26.5 -9t-27.5 -2q-17 0 -31.5 4.5t-29.5 11t-32 11.5t-40 5q-17 0 -24.5 -5.5t-14.5 -11.5q0 37 25.5 51t61.5 14q20 0 37.5 -5.5t33.5 -12t30.5 -12.5t29.5 -6q11 0 21 4.5t16 8.5z" />
    <glyph glyph-name="macron" unicode="&#xaf;" horiz-adv-x="939" 
d="M971 688q0 -30 -12 -56t-32.5 -45t-48 -29.5t-58.5 -10.5q-54 0 -88 33.5t-34 89.5q0 38 18 56.5t40 28.5t40 18t18 24q0 20 -15.5 25.5t-30.5 5.5q-26 0 -47.5 -14.5t-37 -37t-24 -49t-8.5 -49.5q0 -45 14 -77.5t45.5 -54t81.5 -31.5t123 -10h14v-21q-9 2 -12 2.5
t-8 0.5q-36 0 -70 -2t-61 -14t-43 -37t-16 -71v-268q0 -23 11 -39.5t23.5 -28t23 -18t10.5 -9.5h-326q0 2 11.5 6.5t26.5 15t26.5 28.5t11.5 45v287q0 25 -5 44.5t-19.5 33t-41.5 20.5t-71 7q-14 0 -36 -2t-43 -14t-36.5 -37t-15.5 -71v-268q0 -23 10.5 -39.5t23.5 -28
t23.5 -18t10.5 -9.5h-326q0 2 11.5 6.5t26 15t26 28.5t11.5 45v287q0 28 -3.5 48t-14.5 32.5t-29.5 19t-46.5 7.5v14q0 1 13 2t29.5 6t31.5 17t17 35q6 54 24.5 107t49.5 96t75.5 69.5t103.5 26.5q37 0 70.5 -13.5t58.5 -37t40 -55t15 -68.5q0 -30 -12 -56t-32.5 -45
t-47.5 -29.5t-58 -10.5q-54 0 -88 33.5t-34 89.5q0 38 17.5 56.5t39.5 28.5t40 18t18 24q0 20 -15.5 25.5t-30.5 5.5q-26 0 -47 -14.5t-37 -37t-24 -49t-8 -49.5q0 -90 52 -131.5t165 -41.5q48 0 79.5 11.5t36.5 46.5q6 54 24.5 107t49.5 96t75 69.5t103 26.5
q37 0 70.5 -13.5t59 -37t40.5 -55t15 -68.5z" />
    <glyph glyph-name="cedilla" unicode="&#xb8;" horiz-adv-x="288" 
d="M203 -150q0 -24 -17 -39.5t-42 -15.5q-23 0 -37.5 16.5t-14.5 38.5q0 11 4 21t10 19l12 18t10 20q8 20 10.5 41t2.5 40q0 5 5 5q4 0 4.5 -1t0.5 -3q1 -17 3 -39t12 -41q4 -12 10.5 -21t12 -17.5t10 -18.5t4.5 -23z" />
    <glyph glyph-name="Euro" unicode="&#x20ac;" horiz-adv-x="602" 
d="M570 292q0 -57 -13.5 -112.5t-43.5 -98.5t-76 -69.5t-110 -26.5q-55 0 -100 21.5t-78 57t-53 81.5t-26 96h-28q-14 0 -19 2.5t-5 6.5q0 6 5 8t20 2h25v18v12h-26q-14 0 -19 2.5t-5 7.5q0 6 5 8t20 2h26q5 56 25.5 112t55.5 100t84 71.5t111 27.5q39 0 78 -11t69.5 -33.5
t50 -55t19.5 -75.5q0 -32 -11 -62t-31.5 -51.5t-48 -35t-61.5 -13.5q-30 0 -57.5 10t-48.5 27.5t-33 42.5t-12 56t11.5 51t30 32t43 16t51.5 4q22 6 22 31q-1 14 -17.5 24t-32.5 10q-41 0 -70 -18.5t-48.5 -47t-28.5 -63.5t-9 -68q0 -42 13 -81h62q15 0 20 -2t5 -8
q0 -10 -23 -10h-56q4 -7 8.5 -15t9.5 -15h104q15 0 20 -2t5 -8q0 -9 -23 -9h-90q23 -25 55.5 -39.5t73.5 -14.5q30 0 58.5 11t50.5 30t37.5 45t20.5 56l5 -4q0 -3 1.5 -15t1.5 -18z" />
    <glyph glyph-name="uni00A0" unicode="&#xa0;" horiz-adv-x="292" 
 />
    <glyph glyph-name="exclam" unicode="!" horiz-adv-x="216" 
d="M38 679q12 18 34 27t44.5 7t42.5 -14.5t28 -33.5q16 -31 11.5 -65t-9.5 -67q-7 -39 -20 -90t-26 -97q-16 -55 -32 -112q-18 55 -33 109q-7 22 -14.5 47t-13.5 48.5t-12 46.5t-10 41q-3 19 -6.5 38.5t-3.5 39.5t4 38.5t16 36.5zM65 150q23 15 49 11.5t46 -19t28 -39
t-4 -50.5q-5 -23 -23.5 -36.5t-40.5 -16.5t-43.5 5t-33.5 28q-11 14 -14 31t0 33t12 30t24 23z" />
    <glyph glyph-name="quotedbl" unicode="&#x22;" horiz-adv-x="171" 
d="M12 680q5 7 13.5 10.5t17.5 3t17.5 -5.5t12.5 -15q6 -13 4.5 -26.5t-3.5 -26.5q-4 -16 -9.5 -37t-10.5 -40q-5 -24 -13 -47q-8 22 -14 45q-5 19 -10.5 39.5t-8.5 36.5q-3 15 -5 32t9 31zM101 682q6 7 14.5 10.5t18.5 3t17.5 -6t11.5 -13.5q7 -13 4.5 -26.5t-4.5 -27.5
q-3 -16 -8 -37t-10 -40q-6 -23 -13 -46q-8 22 -15 45q-5 19 -10.5 39.5t-8.5 35.5q-3 16 -5 32.5t8 30.5z" />
    <glyph glyph-name="numbersign" unicode="#" horiz-adv-x="537" 
d="M174 728h70l-28 -211l126 -2l31 207h64q-5 -39 -9 -76q-4 -32 -7.5 -67.5t-7.5 -62.5h92l-8 -61l-93 -3l-21 -153l92 -1l-9 -65l-88 -6l-30 -207l-71 -3l27 208l-126 -2l-28 -205h-69l26 207l-89 -1l9 69l88 -1l23 157l-88 -1l6 67l90 2zM207 451l-21 -153l127 1l21 155z
" />
    <glyph glyph-name="dollar" unicode="$" horiz-adv-x="416" 
d="M173 734h46v-57q16 -3 37 -7.5t40 -9.5q22 -5 46 -10q-1 -21 -3 -40q-2 -18 -3 -37t-2 -32q-22 32 -50 57.5t-65 39.5l-1 -178q23 -12 46.5 -25t45.5 -28.5t40 -34.5t30 -43q7 -23 9 -48.5t-2.5 -50t-16.5 -46.5t-30 -39q-24 -26 -56.5 -35.5t-64.5 -18.5l-1 -71h-45v27
v22t1 20q-24 -1 -51 4.5t-49 12.5q-26 8 -54 16q-1 24 -1 48v80q12 -23 29.5 -45t38 -38.5t42.5 -27.5t43 -11q1 52 1 102.5v102.5q-28 16 -58 34.5t-53 42.5t-36.5 54t-8.5 67q0 32 14.5 57.5t36 43.5t49 30t55.5 17zM115 566q0 -14 5.5 -25.5t14 -21.5t18 -19.5
l18.5 -18.5l1 155q-22 -7 -41 -26t-16 -44zM220 312q-2 -24 -2 -55.5v-59.5v-68q6 3 18.5 9t24 15t20 21t8.5 27q3 18 -2.5 34t-16.5 29.5t-24.5 25t-25.5 22.5z" />
    <glyph glyph-name="percent" unicode="%" horiz-adv-x="627" 
d="M263 339q0 -64 -31 -102q-32 -41 -94 -41t-95 41q-30 39 -30 102q0 64 30 101q32 41 95 41q60 0 94 -41q31 -39 31 -101zM138 253q22 0 32 31q8 20 8 51q0 89 -40 89t-40 -85q0 -86 40 -86zM397 471v3.5t-1 6.5h91q-7 -8 -13 -14t-9 -12l-243 -426q-4 -7 -4 -13
q0 -2 2 -10h-91q15 16 23 33l242 422q3 6 3 10zM603 149q0 -63 -30 -101q-36 -42 -95 -42q-61 0 -95 42q-32 37 -32 101q0 62 32 101q34 42 95 42q59 0 95 -42q30 -40 30 -101zM478 63q23 0 32 31q7 21 7 51q0 89 -39 89q-40 0 -40 -85q0 -86 40 -86z" />
    <glyph glyph-name="ampersand" unicode="&#x26;" horiz-adv-x="763" 
d="M145 601q9 34 32 59t53.5 41t65.5 21t69 0t64.5 -20.5t52.5 -41.5q18 -37 11.5 -70t-28 -60.5t-52.5 -50t-62 -36.5q36 -51 75 -104t76 -103q13 26 27 57t19 61.5t-3 59t-40 48.5q37 -2 74.5 -2.5t75.5 -1.5q-7 -37 -21.5 -71.5t-31 -67t-34.5 -65t-35 -65.5
q35 -51 90 -78.5t119 -20.5q-31 -37 -75 -55.5t-90 -20t-90 15.5t-76 53q-32 -22 -69 -39.5t-76 -26t-78.5 -6t-77.5 19.5q-29 12 -51 34t-34 50.5t-14 59.5t8 60q8 31 27 55t43.5 42.5t51.5 34.5t53 32q-11 21 -23.5 46.5t-20.5 51.5t-10.5 52.5t5.5 51.5zM266 642
q-4 -24 0.5 -44.5t14 -39.5t22.5 -37.5t25 -37.5q15 19 29 40t22 42t7.5 43.5t-14.5 45.5q-8 17 -24 24t-33 5.5t-31 -12.5t-18 -29zM189 134q19 -23 43 -32t50.5 -9.5t53 5.5t50.5 13q-19 33 -47.5 75.5t-55.5 81.5q-31 46 -63 91q-22 -23 -37.5 -51t-21.5 -58t0 -60
t28 -56z" />
    <glyph glyph-name="quotesingle" unicode="'" horiz-adv-x="82" 
d="M10 677q5 7 13.5 10.5t17.5 3t17.5 -5.5t12.5 -15q6 -13 4.5 -26.5t-3.5 -26.5q-4 -16 -9.5 -37t-10.5 -40q-5 -23 -13 -47q-8 23 -14 45q-5 19 -10.5 39.5t-8.5 36.5q-3 15 -5 32t9 31z" />
    <glyph glyph-name="parenleft" unicode="(" horiz-adv-x="305" 
d="M250 -180q-58 49 -101.5 108.5t-73 124t-44.5 131t-15 129.5q0 42 12 90t32 96.5t46 94.5t54 84.5t56.5 68t52.5 44.5h20q-128 -186 -128 -472q0 -300 114 -499h-25z" />
    <glyph glyph-name="parenright" unicode=")" horiz-adv-x="854" 
d="M68 808q57 -49 101.5 -108.5t74 -124t44.5 -131t15 -129.5q0 -43 -12 -91t-32 -95.5t-47 -93.5t-55 -84.5t-56 -68.5t-52 -45h-21q128 186 128 471q0 150 -27.5 275t-85.5 225h25z" />
    <glyph glyph-name="asterisk" unicode="*" horiz-adv-x="348" 
d="M206 573l83 40q8 4 13 7.5t8 6.5l27 -86q-10 2 -15 2q-4 0 -6 -0.5t-4 -0.5l-90 -21l63 -72q5 -5 9.5 -9t9.5 -7l-70 -54q-1 14 -7 26l-45 84l-48 -84q-3 -6 -5 -12.5t-3 -13.5l-70 54q6 3 11 7t10 9l62 72l-91 20q-10 2 -12 2q-4 0 -7 -0.5t-7 -1.5l28 86q10 -10 19 -14
l84 -40l-9 96q-1 6 -2.5 12t-6.5 13h87q-6 -14 -7 -25z" />
    <glyph glyph-name="plus" unicode="+" horiz-adv-x="512" 
d="M217 490h90v-187h182v-87h-182v-190h-90v190h-183v87h183v187v0z" />
    <glyph glyph-name="comma" unicode="," horiz-adv-x="206" 
d="M45 -134q33 33 33 56q0 16 -26 43q-26 24 -26 52q0 29 21 48q20 20 48 20q40 0 60 -26q21 -24 21 -65q0 -45 -34 -87t-80 -42q-12 0 -17 1z" />
    <glyph glyph-name="hyphen" unicode="-" horiz-adv-x="294" 
d="M65 333q13 -9 33 -9h99q29 0 52 15l-24 -113q-11 11 -33 11h-101q-20 0 -47 -15z" />
    <glyph glyph-name="period" unicode="." horiz-adv-x="274" 
d="M68 182q17 15 39.5 18t43.5 -5t35.5 -24.5t16.5 -39.5q5 -22 -5 -42t-27 -32.5t-38.5 -16.5t-42.5 6q-20 6 -32 23t-15.5 37.5t2.5 41t23 34.5z" />
    <glyph glyph-name="slash" unicode="/" horiz-adv-x="385" 
d="M131 -25q0 -10 4 -18h-118q20 18 26 37l206 698q1 8 1 13q0 9 -3 16h118q-21 -20 -26 -37l-206 -699q-1 -3 -1.5 -5.5t-0.5 -4.5z" />
    <glyph glyph-name="zero" unicode="0" horiz-adv-x="555" 
d="M214 702q37 13 76.5 10t75.5 -19t66 -43t49 -62q32 -57 47.5 -123t12.5 -133t-24.5 -130.5t-61.5 -117.5q-28 -37 -69.5 -58t-87.5 -24.5t-90.5 10.5t-78.5 47q-41 39 -66.5 88.5t-37.5 104.5t-11 111t14 110q9 37 25 73t39.5 66.5t53.5 54t68 35.5zM256 663
q-23 -15 -35 -37.5t-18.5 -48.5t-9.5 -53t-6 -51q-1 -44 -2 -89t0.5 -89.5t7.5 -89t18 -88.5q4 -14 12.5 -30t20.5 -27t27.5 -14.5t33.5 5.5q20 13 31 32t16.5 42t8 46t5.5 45q2 47 4 94.5t1.5 95t-6 95t-16.5 93.5q-3 16 -11.5 31.5t-21 26.5t-27.5 15t-33 -4z" />
    <glyph glyph-name="one" unicode="1" horiz-adv-x="351" 
d="M37 591q32 14 76 35t84 40q47 22 96 47l2 -713h-159q1 99 1 194v84t-1 85.5t-2 82t-2 71.5q0 21 -9 33t-24 20.5t-31.5 12.5t-30.5 8z" />
    <glyph glyph-name="two" unicode="2" horiz-adv-x="533" 
d="M161 685q33 18 73 23t78 -2.5t70.5 -28t52.5 -54.5q15 -29 18.5 -61t-1 -64t-17.5 -62t-30 -56q-23 -36 -51 -68.5t-58 -63.5t-61 -60.5t-60 -60.5q38 0 81.5 -4t87 -2t85 15.5t73.5 45.5q-8 -23 -18 -54t-19 -59q-11 -33 -20 -69h-156h-67t-69 0.5t-65.5 1t-57.5 1.5
q29 56 69.5 105.5t80 99t73 102.5t48.5 116q7 24 7.5 49.5t-8 49.5t-24.5 42.5t-41 28.5q-26 10 -52.5 10t-52 -7t-50 -18t-47.5 -24q13 19 26.5 38t28.5 36t33 31t40 23z" />
    <glyph glyph-name="three" unicode="3" horiz-adv-x="514" 
d="M51 601q26 44 70.5 72.5t94.5 38t99.5 -4t85.5 -54.5q21 -29 21.5 -59t-12.5 -57.5t-36.5 -51.5t-48.5 -39q30 -15 60.5 -30t51.5 -43q22 -28 33 -62.5t11 -70.5t-11.5 -71t-31.5 -64q-37 -49 -94 -74.5t-117.5 -26t-116.5 25t-91 78.5q30 -9 60.5 -17t61.5 -11t61.5 0.5
t59.5 20.5q30 16 48 45t22.5 61.5t-5.5 65t-34 55.5q-16 15 -35 24.5t-39.5 16t-41.5 10.5t-41 9q34 20 69.5 38t57.5 52q12 17 14.5 38t-3 41t-18 36.5t-33.5 24.5q-21 10 -43 12.5t-44 -1.5t-43.5 -11.5t-41.5 -16.5z" />
    <glyph glyph-name="four" unicode="4" horiz-adv-x="624" 
d="M20 145q36 79 83.5 157t104.5 150.5t121.5 138t134.5 121.5q1 -121 0.5 -239.5t-0.5 -238.5q29 3 57 10t53 23q-6 -16 -12.5 -36.5t-11.5 -40.5l-14 -46h-71l-1 -144h-149v144q-74 0 -147.5 -0.5t-147.5 1.5zM139 239h177v92q0 39 -0.5 80.5t-0.5 72.5
q-53 -56 -95.5 -118t-80.5 -127z" />
    <glyph glyph-name="five" unicode="5" horiz-adv-x="510" 
d="M138 686q41 1 87.5 -0.5t89 -1t76.5 5.5t51 19q-8 -34 -13.5 -69t-10.5 -70q-31 -1 -75.5 -1h-84.5h-97l-24 -105q35 0 72 -1.5t72.5 -9t68.5 -22t60 -41.5q38 -34 53.5 -81.5t9.5 -97t-31 -93.5t-66 -71q-41 -26 -90 -37.5t-97.5 -7.5t-93 24.5t-75.5 59.5
q30 -4 60 -10.5t60 -9t59 2.5t57 21q31 18 47.5 50t18 67t-12.5 68t-43 54q-21 16 -46 24t-50.5 11t-52.5 3h-53z" />
    <glyph glyph-name="six" unicode="6" horiz-adv-x="563" 
d="M221 675q51 29 108.5 34.5t115.5 4.5q-52 -14 -95 -41.5t-75.5 -66.5t-54 -85.5t-30.5 -98.5q31 13 64.5 22.5t68 12t67.5 -3.5t64 -26q39 -23 60 -62t26 -82.5t-5 -88t-32 -80.5q-26 -43 -67.5 -69t-89 -36t-97.5 -4.5t-93 25.5q-36 18 -61.5 47.5t-41.5 65t-23 75
t-5 77.5q-2 55 10 111t36 107t61.5 93.5t88.5 68.5zM245 387q-9 -4 -19 -8.5t-18.5 -11t-14.5 -15t-6 -19.5l-2 -62t1 -62t9 -61.5t22 -58.5q9 -18 27 -28t38 -10.5t38.5 7.5t29.5 25q33 57 36 123.5t-13 127.5q-5 20 -19 34t-32 20.5t-39 6.5t-38 -8z" />
    <glyph glyph-name="seven" unicode="7" horiz-adv-x="536" 
d="M27 508q7 25 13.5 61t10.5 69q6 39 11 78l435 -1l-235 -711l-112 -1l220 581q-51 1 -98 1q-41 0 -86 -1t-77 -6q-15 -2 -26.5 -9t-21 -17t-17.5 -22t-17 -22z" />
    <glyph glyph-name="eight" unicode="8" horiz-adv-x="537" 
d="M50 567q15 54 54.5 87.5t89.5 48t104.5 11t100.5 -24.5q26 -10 42.5 -30.5t24.5 -46.5t6.5 -53.5t-13.5 -51.5q-16 -31 -46 -49t-60 -35q20 -11 40 -23t38.5 -25.5t33.5 -30.5t24 -38q16 -30 20 -64.5t-3.5 -67.5t-25.5 -62.5t-45 -51.5q-35 -26 -76.5 -40.5t-86 -17.5
t-88 6t-82.5 30q-26 13 -44.5 35.5t-28.5 49t-11 55.5t10 55q7 22 21 39t32 31t38.5 24.5t39.5 20.5q-28 17 -52 40.5t-40.5 52t-21.5 60.5t5 66zM225 661q-27 -16 -36.5 -38.5t-7.5 -47t15 -47.5t32 -42t42 -30.5t47 -10.5q16 20 27 46t14 52t-2.5 51.5t-23.5 47.5
q-21 20 -51 25t-56 -6zM184 336q-16 -28 -28 -60t-16 -64.5t3 -64.5t29 -60q14 -19 36 -29t46 -11.5t47 4.5t41 20t28.5 35t8.5 47q0 39 -19.5 67.5t-48.5 49.5t-63 36.5t-64 29.5z" />
    <glyph glyph-name="nine" unicode="9" horiz-adv-x="552" 
d="M135 680q39 23 86 31.5t93 2.5t87 -28t68 -61q24 -34 36 -71.5t15 -77.5t-0.5 -80.5t-10.5 -78.5q-10 -48 -29 -94.5t-47.5 -86.5t-67.5 -70.5t-86 -46.5q-43 -17 -87.5 -14t-89.5 11q52 7 95 33t74 63.5t51 85t28 96.5q-32 -11 -64.5 -17t-65 -6t-63.5 9t-58 31
q-43 35 -60.5 87t-11.5 105.5t33.5 101.5t74.5 75zM245 667q-28 -11 -42 -37.5t-20 -53.5q-9 -51 -6 -103.5t23 -99.5q10 -21 28.5 -32t39.5 -14.5t42.5 2t38.5 19.5q8 29 11 58.5t2 59.5t-5.5 60t-8.5 59q-3 18 -12 36t-22 31.5t-31 18.5t-38 -4z" />
    <glyph glyph-name="colon" unicode=":" horiz-adv-x="230" 
d="M115 333q-19 0 -35 7t-27.5 19t-18.5 28t-7 34q0 36 25.5 62t62.5 26q36 0 62 -26t26 -62q0 -18 -7 -34t-19 -28t-28 -19t-34 -7zM115 2q-37 0 -62.5 25.5t-25.5 62.5t25.5 62.5t62.5 25.5q36 0 62 -25.5t26 -62.5t-26 -62.5t-62 -25.5z" />
    <glyph glyph-name="semicolon" unicode=";" horiz-adv-x="220" 
d="M110 335q-37 0 -62.5 25.5t-25.5 62.5t25.5 62.5t62.5 25.5t62.5 -25.5t25.5 -62.5t-25.5 -62.5t-62.5 -25.5zM48 -96q37 36 37 62q0 18 -29 48q-29 27 -29 57q0 33 23 55q21 22 54 22q45 0 68 -30q21 -29 21 -71q0 -53 -37 -98q-37 -47 -89 -47q-5 0 -10 0.5t-9 1.5z
" />
    <glyph glyph-name="less" unicode="&#x3c;" horiz-adv-x="583" 
d="M527 520v-103l-352 -147l352 -144v-106l-487 202v96l487 202v0z" />
    <glyph glyph-name="equal" unicode="=" horiz-adv-x="621" 
d="M46 434h497v-95h-497v95v0zM46 249h497v-96h-497v96v0z" />
    <glyph glyph-name="greater" unicode="&#x3e;" horiz-adv-x="673" 
d="M64 527l488 -202v-97l-488 -201v106l355 144l-355 146v104v0z" />
    <glyph glyph-name="question" unicode="?" horiz-adv-x="488" 
d="M74 690q35 12 72.5 22t75.5 14.5t75.5 -0.5t72.5 -22q31 -17 47 -45t19.5 -60.5t-5.5 -65.5t-28 -59q-22 -30 -47 -58t-49.5 -55.5t-46.5 -56.5t-38 -64q-3 12 -7 25t-7.5 26t-5 26t0.5 27q6 31 21 59t30.5 56t28.5 57t15 62q2 19 -5.5 37t-21 31.5t-32 20t-37.5 2.5
q-25 -2 -44.5 -13.5t-35 -29.5t-27 -39.5t-18.5 -41.5q2 36 0.5 72t-3.5 73zM189 159q17 16 39.5 19.5t43 -4.5t35.5 -25t17 -40q4 -23 -5 -42.5t-26.5 -33t-39.5 -17t-41 5.5q-21 7 -33.5 24.5t-15.5 38t3.5 41t22.5 33.5z" />
    <glyph glyph-name="at" unicode="@" horiz-adv-x="883" 
d="M117 552q45 67 114 108t146.5 56t157.5 3.5t148 -50.5q46 -28 75 -73.5t39.5 -97t1.5 -105.5t-38 -99q-21 -36 -56 -60t-75.5 -34.5t-82 -4t-76.5 31.5q-22 -12 -48 -22t-52.5 -13.5t-52.5 2.5t-48 24q-25 27 -34 61.5t-5 70t18.5 70t36.5 61.5q32 33 74 50t86.5 18.5
t89.5 -10t82 -33.5q-10 -65 -23.5 -129.5t-11.5 -130.5q43 3 74 24.5t50.5 54t26.5 73t1 80t-25 74t-50 58.5q-58 40 -129.5 53t-141 -1t-129.5 -54t-96 -102q-20 -33 -31.5 -71.5t-13.5 -78t5.5 -79t25.5 -74t45.5 -62t66.5 -44.5q57 -22 119 -27.5t123 4t118.5 34.5
t105.5 64q-12 -25 -20.5 -52t-27.5 -49q-87 -44 -184.5 -55.5t-192.5 6.5q-65 13 -123 50.5t-90 98.5q-23 45 -32.5 94.5t-6 100t20.5 98.5t45 88zM351 290q0 -22 15.5 -33t34 -12t37 8t25.5 27q17 54 24.5 110t7.5 113q-45 12 -74.5 -8t-45.5 -54.5t-20.5 -76.5t-3.5 -74z
" />
    <glyph glyph-name="A" unicode="A" horiz-adv-x="683" 
d="M310 711h59q77 -174 156.5 -356t157.5 -356h-205q-23 51 -45 101t-45 100q-57 -1 -113.5 -1h-113.5q-7 -16 -15.5 -36t-16 -39.5t-11.5 -36.5t-4 -27q0 -15 12 -30t28 -31h-155q41 92 79.5 180.5t76.5 175.5t76.5 175t78.5 181zM275 453q-22 -49 -43 -97.5t-44 -98.5h175
q-21 50 -43.5 98.5t-44.5 97.5z" />
    <glyph glyph-name="B" unicode="B" horiz-adv-x="727" 
d="M2 685q58 6 117 13.5t117 11.5t117 2.5t117 -12.5q27 -5 52.5 -18t43.5 -33t28.5 -45t6.5 -54q1 -29 -9 -50.5t-27.5 -39.5t-40 -31.5t-43.5 -25.5q38 -16 76.5 -36t60.5 -59q22 -37 24.5 -79.5t-12 -81.5t-44.5 -69.5t-71 -43.5q-53 -17 -107.5 -24.5t-109 -7
t-109.5 7.5t-108 17q-6 147 -3 293.5t-1 294.5q1 16 -5.5 27.5t-17.5 19.5t-25 13.5t-27 9.5zM258 631q-7 -55 -5 -109t1 -109q26 3 52 3.5t50 8.5q33 16 50.5 48t20 67.5t-12 69t-45.5 50.5q-14 8 -31.5 10.5t-33.5 -0.5t-29 -12.5t-17 -26.5zM254 374q1 -36 0 -71.5
t-1.5 -71.5t1 -71t7.5 -70q13 -23 36.5 -33.5t50 -9t50 14t35.5 35.5q15 26 21.5 56.5t5 61.5t-11.5 59.5t-31 51.5q-15 18 -35 26.5t-41.5 13t-43.5 5.5t-43 3z" />
    <glyph glyph-name="C" unicode="C" horiz-adv-x="714" 
d="M61 494q17 44 45.5 81.5t66 65t80.5 45t90 23.5q51 8 92.5 3t76.5 -14t65.5 -15.5t59.5 -0.5q-4 -47 -7.5 -96.5t-5.5 -96.5q-14 28 -31.5 56.5t-39.5 52t-49 41.5t-60 25q-30 7 -60 1.5t-55 -21t-45 -38.5t-32 -50q-33 -78 -35 -165t17 -170q8 -32 25.5 -61t42.5 -50.5
t56 -33t65 -9.5q36 -2 68.5 8.5t62 28.5t56.5 41t52 45l11 -25q-12 -19 -26 -39q-13 -16 -30.5 -35t-39.5 -35q-50 -30 -108 -43t-116.5 -9.5t-114 24.5t-99.5 58q-41 38 -65 87.5t-33.5 104t-4 110.5t24.5 106z" />
    <glyph glyph-name="D" unicode="D" horiz-adv-x="837" 
d="M9 692q46 -1 91 4t89.5 10.5t89.5 8t93.5 -1.5t101 -18.5t111.5 -44.5q53 -32 84.5 -80.5t45 -104.5t10.5 -116.5t-19 -114.5q-13 -41 -36.5 -76.5t-55.5 -63t-70.5 -47t-79.5 -28.5q-48 -10 -97.5 -13t-98.5 -0.5t-98 7.5t-97 12q-1 149 0.5 297t-2.5 296q0 14 -6.5 24
t-15.5 18.5t-20.5 15.5t-19.5 16zM274 654q-12 -9 -17 -21.5t-6 -25.5t-1 -26t-1 -26q1 -97 1 -191.5v-190.5q0 -25 1.5 -52.5t18.5 -48.5q23 -17 51.5 -21t56 1.5t52 20.5t42.5 37q19 26 31.5 55.5t19 61t9 63.5t3.5 64q0 63 -11.5 126.5t-50.5 114.5q-17 22 -40 38.5
t-50 25t-55 8t-54 -12.5z" />
    <glyph glyph-name="E" unicode="E" horiz-adv-x="677" 
d="M6 713h543q-2 -49 -5 -98.5t-2 -98.5q-12 19 -24 40t-27 39t-33.5 31.5t-41.5 19.5q-41 8 -82.5 6.5t-82.5 -0.5v-236q40 -3 78 -2q32 1 66.5 5.5t57.5 18.5v-115q-23 14 -57.5 20t-66.5 7q-38 0 -78 -2v-285q31 1 62.5 0.5t62.5 1.5t61 8.5t58 21.5q33 18 55 47t42 58
q-8 -50 -13.5 -99t-12.5 -98q-124 -2 -248.5 -1t-248.5 0v625q0 16 -6 28t-15 22t-20 19t-22 17z" />
    <glyph glyph-name="F" unicode="F" horiz-adv-x="624" 
d="M5 714h561q-3 -46 -5 -94t-3 -94q-12 17 -24 35.5t-25.5 34.5t-30 29t-37.5 19q-43 11 -85 9.5t-86 -0.5v-248q43 -3 81 -1q34 2 70 7.5t62 18.5q-1 -28 -0.5 -57t0.5 -57q-25 14 -61 20t-70 8q-39 2 -82 0v-342h-181q-1 155 0.5 308t-2.5 307q2 20 -4 36t-18 28
t-27.5 20.5t-32.5 12.5z" />
    <glyph glyph-name="G" unicode="G" horiz-adv-x="707" 
d="M46 469q13 49 42 91.5t68.5 74t87 51.5t98.5 25q38 6 75.5 3t75 -9.5t74.5 -14t75 -11.5q-3 -47 -5.5 -94t-4.5 -94q-17 26 -36 54t-42.5 51t-51 40.5t-61.5 25.5q-25 7 -50 4.5t-48.5 -12.5t-43 -27.5t-33.5 -39.5q-19 -30 -30.5 -63.5t-16.5 -69t-6 -71t1 -70.5
q2 -31 7.5 -63.5t17 -63t30.5 -56t48 -43.5q20 -14 51 -19t61 -6q35 -1 73 4l1 212q-9 15 -19 29q-7 10 -17.5 21t-20.5 15h221v-281q-56 -24 -118 -40t-124.5 -19t-124 8t-117.5 41q-55 30 -89 78.5t-50.5 105t-15.5 117.5t18 116z" />
    <glyph glyph-name="H" unicode="H" horiz-adv-x="732" 
d="M5 714l261 -1q1 -76 0.5 -152t-0.5 -151h253l1 227q-1 15 -9 26.5t-20 19.5t-26 15t-25 15l260 1v-268v-116t0.5 -118.5t0.5 -112v-98.5h-181q-2 85 -1 168t-1 169l-249 1l-3 -338h-180q-2 160 0 318.5t-3 318.5q0 16 -8 28t-19.5 20t-25 15t-25.5 13z" />
    <glyph glyph-name="I" unicode="I" horiz-adv-x="290" 
d="M5 709h249v-268v-116v-118t-0.5 -112.5t-0.5 -99.5q-46 1 -91 1t-90 2q0 152 1 302t-2 303q2 36 -18 61.5t-48 44.5z" />
    <glyph glyph-name="J" unicode="J" horiz-adv-x="282" 
d="M4 728h247l1 -740q0 -33 -11 -64.5t-30.5 -57t-47 -44t-60.5 -25.5q-59 -17 -117 1t-103 57q25 1 56 2t58.5 9t46.5 26t21 53v686q2 17 -3.5 30.5t-14.5 25t-20.5 21.5t-22.5 20z" />
    <glyph glyph-name="K" unicode="K" horiz-adv-x="758" 
d="M6 716h270l1 -316q25 23 57.5 52t65.5 60t63.5 64.5t52.5 65.5q8 10 5 21.5t-11.5 21t-19.5 18t-19 13.5h222q-71 -63 -135 -129.5t-133 -131.5q79 -112 153 -225t152 -225q-55 -1 -110.5 -0.5t-110.5 2.5l-233 334v-336h-92.5t-92.5 1l1 611q2 21 -4 37t-19 28
t-29.5 20.5t-33.5 13.5z" />
    <glyph glyph-name="L" unicode="L" horiz-adv-x="635" 
d="M3 712h271v-645q53 1 108.5 -1t107.5 10q21 4 38 14.5t31.5 24t27 29.5t24.5 32q-11 -44 -18 -87.5t-13 -88.5q-124 0 -245.5 0.5t-245.5 -0.5q-3 158 -1 314t-3 313q0 18 -7 31.5t-19 23.5t-27 17.5t-29 12.5z" />
    <glyph glyph-name="M" unicode="M" horiz-adv-x="920" 
d="M-3 715h292q32 -81 63 -158q13 -33 27.5 -68t28.5 -69.5t27.5 -66t23.5 -56.5l181 418h261q-29 -17 -51.5 -41.5t-20.5 -61.5q-4 -154 -2 -306t0 -305h-181q2 140 1.5 280t-1.5 279q-34 -72 -65 -144.5t-61 -146t-61 -146.5t-65 -145q-64 145 -121.5 291.5t-122.5 290.5
v-558h-71v232v100.5v102t-0.5 98t-1.5 85.5q1 19 -5.5 34t-18 26.5t-26 20t-30.5 14.5z" />
    <glyph glyph-name="N" unicode="N" horiz-adv-x="719" 
d="M1 714h244q88 -100 178 -199.5t179 -198.5v321q-1 14 -8.5 25.5t-17 20t-20.5 16t-21 15.5h145l-4 -745q-98 109 -193 212q-41 43 -85 90.5t-86.5 94t-83 89t-73.5 77.5q-2 -134 -1.5 -266t0.5 -265h-71q1 118 1 232v100.5t-0.5 102t-1 98t-1.5 84.5q1 19 -6.5 32.5
t-19.5 24.5t-26.5 20t-27.5 19z" />
    <glyph glyph-name="O" unicode="O" horiz-adv-x="776" 
d="M319 709q77 13 154.5 -4t139.5 -67q41 -34 69 -78.5t41.5 -95.5t13.5 -105t-14 -105t-42.5 -96t-69.5 -78q-42 -35 -92.5 -54t-104.5 -22.5t-107.5 8t-100 37.5t-83 65t-56.5 92q-23 49 -29.5 104t3 108.5t32 103t58.5 89t83.5 65.5t104.5 33zM381 669
q-33 -2 -58.5 -17.5t-43 -40t-27.5 -54t-14 -58.5q-6 -47 -10 -94.5t-2 -95t11 -94t27 -90.5q14 -31 41.5 -50t59.5 -23.5t64 4.5t54 34q19 22 30 46.5t17.5 51.5t9.5 54.5t4 54.5q1 37 1 74.5t-3.5 74.5t-12 73t-23.5 70q-17 37 -51.5 60t-73.5 20z" />
    <glyph glyph-name="P" unicode="P" horiz-adv-x="614" 
d="M0 691q60 -1 121.5 7t123 13.5t121.5 2t117 -27.5q41 -16 68 -53.5t35.5 -82.5t-2.5 -90t-44 -77q-30 -29 -66 -45t-75 -24.5t-79.5 -11t-79.5 -2.5v-187q0 -55 1 -113h-185v594q2 16 -2.5 29.5t-13.5 25t-19.5 22zM244 634q-7 -73 -4.5 -145t1.5 -145q16 3 34 4.5t35 5
t32 11.5t27 22q19 24 29.5 52.5t13 58.5t-3.5 60.5t-19 57.5q-8 20 -28 34t-42.5 18.5t-43.5 -3.5t-31 -31z" />
    <glyph glyph-name="Q" unicode="Q" horiz-adv-x="783" 
d="M130 617q50 50 117.5 75t137.5 25t137 -25.5t117 -75.5q42 -41 66 -94.5t31.5 -111t-2.5 -115t-36 -108.5q-22 -43 -56 -75.5t-70 -63.5q18 -19 36.5 -38.5t40 -34.5t45.5 -23.5t54 -5.5q-20 -27 -46.5 -41t-56 -18t-60.5 1.5t-57 20.5q-31 17 -55 43t-49 51
q-70 1 -138.5 15.5t-123.5 59.5q-62 46 -95.5 115.5t-38 146t21 150t80.5 127.5zM315 650q-32 -21 -49.5 -50t-27.5 -62.5t-13.5 -69t-5.5 -68.5q-1 -35 -1 -71.5t3.5 -72.5t13.5 -70.5t28 -65.5q16 -28 43 -44t58 -20.5t61.5 4t53.5 30.5q22 21 35 46t20.5 53t10 57t4.5 57
q1 37 1 75.5t-4.5 75.5t-14 73.5t-27.5 70.5q-14 24 -36 40.5t-48.5 23.5t-54 4t-50.5 -16z" />
    <glyph glyph-name="R" unicode="R" horiz-adv-x="707" 
d="M-1 689q60 -3 119.5 5t118.5 15t119.5 5t124.5 -24q34 -12 60.5 -33t43.5 -47.5t22.5 -58t-3.5 -64.5q-3 -28 -15.5 -49.5t-31.5 -40t-42 -33t-45 -25.5q13 -22 28.5 -47.5t31.5 -53t33 -56.5t32 -55q37 -62 75 -127l-208 -1q-34 61 -66 120q-27 51 -56.5 105.5
t-50.5 93.5h-42v-44v-50.5v-53v-51.5v-119h-182v592q2 18 -4 32t-15.5 25.5t-22 21.5t-24.5 18zM250 632l-2 -271q18 0 39 2t41.5 8t38 17t29.5 29q16 24 23 52.5t5.5 57.5t-11 57t-27.5 50q-12 14 -32 24t-41 11.5t-38.5 -7t-24.5 -30.5z" />
    <glyph glyph-name="S" unicode="S" horiz-adv-x="544" 
d="M130 681q39 23 81.5 29t87 3.5t88.5 -10t87 -11.5q-2 -40 -4 -78t-4 -77q-19 24 -42.5 50.5t-50 45.5t-58 29t-66.5 2q-26 -4 -42.5 -21t-22 -39t0 -46t25.5 -40q28 -26 62.5 -44t69.5 -35t68.5 -36.5t59.5 -48.5q24 -23 37 -53.5t16 -63t-3.5 -65.5t-22.5 -62
q-25 -45 -70.5 -70.5t-96.5 -33.5q-38 -7 -75.5 -5.5t-75 6l-75 9t-75.5 4.5q3 98 0 195q16 -42 44.5 -77t66.5 -57.5t81.5 -28.5t88.5 8q24 5 39.5 23t21 41t0 46.5t-22.5 40.5q-30 31 -66.5 51.5t-74.5 40t-73.5 43t-61.5 58.5q-25 32 -32.5 72.5t0.5 79t30.5 72
t59.5 53.5z" />
    <glyph glyph-name="T" unicode="T" horiz-adv-x="690" 
d="M20 501q6 53 7 105.5t6 106.5l617 1l7 -214q-2 42 -22 73.5t-51.5 52t-69.5 28.5t-76 3v-410v-246h-192v247v411q-21 -2 -42 -3t-41.5 -4.5t-39.5 -11.5t-36 -22q-14 -10 -24.5 -23.5t-17.5 -29t-13 -32t-12 -32.5z" />
    <glyph glyph-name="U" unicode="U" horiz-adv-x="719" 
d="M662 714q0 -84 1 -164q0 -34 0.5 -71t0.5 -72.5t0.5 -67.5t1.5 -58q0 -31 -4 -64t-14.5 -63t-28.5 -56t-45 -45q-36 -24 -77 -36t-83.5 -15t-85.5 2t-83 15q-32 8 -60.5 25t-50 41t-36 53t-17.5 62q-6 55 -6 111.5t0.5 112.5t0.5 111.5t-6 111.5q-1 14 -8 24t-17 17
t-21.5 13t-21.5 13l256 1q-1 -96 -1 -186v-80v-81.5t0.5 -78t1.5 -67.5q0 -23 6 -47t17.5 -44t29 -36t40.5 -24q28 -8 57 -8.5t56.5 6.5t52 22t40.5 39q15 20 21 44t8 49t1.5 49.5t-0.5 48.5l-2 318q0 15 -7.5 27t-18.5 20.5t-25 15t-25 12.5h152v0z" />
    <glyph glyph-name="V" unicode="V" horiz-adv-x="748" 
d="M390 0q-58 125 -115 245q-25 50 -51.5 104.5t-53 107.5t-52.5 101.5t-47 88.5q-5 8 -16.5 20.5t-23.5 22.5q-14 13 -29 26h96q40 0 81 -0.5t69 0.5q52 -109 100.5 -219t101.5 -219q12 32 27.5 68.5t31.5 74t30 75t24.5 70t15 59t1.5 43.5q-8 15 -20.5 27t-19.5 20h157z
" />
    <glyph glyph-name="W" unicode="W" horiz-adv-x="1071" 
d="M1000 715l-265 -717q-37 87 -73 170l-31.5 73.5t-32.5 75t-32 70.5t-28 63l-200 -450q-47 118 -93 232q-20 49 -41.5 100.5t-43 101.5t-42 97t-37.5 85q-9 23 -20 39.5t-21.5 27.5t-20 18t-18.5 12h234q11 -26 23.5 -57t26 -64.5t27.5 -68t27 -66.5q30 -74 61 -153
q19 46 37 91q15 38 31 80t29 73q-11 24 -21 47t-22.5 44t-29 40t-40.5 34l235 -1q31 -79 62 -154q12 -32 26 -66.5t28.5 -68t27.5 -64.5t23 -56q15 40 30 79.5t29.5 79.5t26.5 80.5t20 82.5q7 20 4 37t-10 28q-7 14 -19 25h133z" />
    <glyph glyph-name="X" unicode="X" horiz-adv-x="763" 
d="M2 713l241 1q29 -46 56 -90q23 -37 48.5 -77t43.5 -69q19 25 43.5 55t41 61.5t18 62t-24.5 57.5l180 1q-44 -58 -84 -111q-35 -47 -72.5 -97t-64.5 -87q18 -26 38 -58t42.5 -66t45.5 -69t44 -68q50 -76 101 -156l-234 1q-31 50 -61 99q-25 42 -53.5 87t-47.5 79
q-25 -34 -58 -79.5t-64 -87.5q-36 -49 -74 -100l-93 1q46 64 92 124q19 26 39.5 54t41 55t39.5 52.5t34 45.5q-16 23 -35.5 52.5t-41 60.5t-43 63t-41.5 61q-48 69 -97 142z" />
    <glyph glyph-name="Y" unicode="Y" horiz-adv-x="705" 
d="M4 715h245l186 -324q36 64 64 120q12 23 23.5 47.5t20 45t14 37t4.5 25.5q0 8 -3 16.5t-7 15.5q-3 8 -10 15h134l-215 -409l-5 -305h-193v310z" />
    <glyph glyph-name="Z" unicode="Z" horiz-adv-x="645" 
d="M52 711l549 -1q-68 -126 -133 -244q-28 -50 -57.5 -104.5t-59 -108t-56 -103t-47.5 -90.5q28 0 56.5 -1t57 -1t57.5 2t57 9q25 7 46 21t38 32t31.5 39.5t27.5 41.5q-8 -52 -13 -102.5t-10 -103.5h-82.5t-94 0.5t-98.5 0.5h-97q-109 0 -222 1q72 125 140 247
q29 51 60.5 106.5t62 110t59 104.5t52.5 92q-30 -1 -61 0t-61 0t-59.5 -5.5t-56.5 -18.5q-37 -17 -61 -49.5t-44 -65.5q4 24 7.5 56.5t6.5 62.5q3 35 5 72z" />
    <glyph glyph-name="bracketleft" unicode="[" horiz-adv-x="309" 
d="M283 649q-15 12 -37 12h-79v-582h79q23 0 37 11v-144q-26 16 -56 16h-216q7 16 10 30.5t3 27.5v697q0 30 -13 60h216q29 0 56 15v-143z" />
    <glyph glyph-name="backslash" unicode="\" horiz-adv-x="390" 
d="M230 -16q3 7 3 17q0 8 -1 12l-194 662q-2 8 -9 16.5t-16 18.5h111q-4 -7 -4 -16q0 -3 0.5 -6t1.5 -6l195 -662q5 -17 27 -36h-114z" />
    <glyph glyph-name="bracketright" unicode="]" horiz-adv-x="322" 
d="M15 654v144q25 -15 56 -15h217q-16 -35 -16 -61v-696q0 -25 16 -58h-217q-15 0 -29 -4t-27 -13v145q12 -12 37 -12h79v583h-79q-24 0 -37 -13z" />
    <glyph glyph-name="asciicircum" unicode="^" horiz-adv-x="375" 
d="M36 829l119 148h79l120 -148h-45l-114 76l-114 -76h-45v0z" />
    <glyph glyph-name="underscore" unicode="_" horiz-adv-x="501" 
d="M18 106h453v-106h-453v106v0z" />
    <glyph glyph-name="grave" unicode="`" horiz-adv-x="299" 
d="M222 768l-154 90q-46 25 -46 57q0 48 44 48q30 0 67 -43l134 -152h-45z" />
    <glyph glyph-name="a" unicode="a" horiz-adv-x="689" 
d="M157 489q47 24 97.5 31.5t101.5 2t99.5 -23.5t91.5 -46q1 -84 -1 -167.5t3 -168.5q2 -20 15.5 -30t31.5 -15t36.5 -8t33.5 -9q-30 -21 -65 -34.5t-71 -16t-71 7.5t-65 36q-35 -23 -78.5 -35.5t-87.5 -11t-84 18t-68 52.5q-33 47 -45 107.5t-1.5 119.5t42 110t85.5 80z
M267 466q-19 -14 -30 -33.5t-16.5 -42t-8.5 -46t-5 -44.5q-1 -27 -1.5 -55t2.5 -55.5t10.5 -53t24.5 -48.5q14 -19 37 -23.5t44.5 2.5t37 24t16.5 41q6 72 6.5 143.5t-6.5 142.5q-2 19 -14 33t-28.5 21.5t-34.5 6.5t-34 -13z" />
    <glyph glyph-name="b" unicode="b" horiz-adv-x="586" 
d="M2 717h210l-3 -242q34 24 77 37.5t86.5 12t82 -20t63.5 -56.5q30 -49 39 -107.5t-1.5 -115.5t-42.5 -106t-85 -78q-45 -24 -93 -31.5t-96.5 -4t-96.5 16.5t-92 31q-2 148 -1 292.5t0 292.5q1 12 -3.5 23t-12 20t-16 18.5t-15.5 17.5zM218 385q-2 -20 -4 -45t-2.5 -52
t-1 -54.5t-0.5 -53.5q0 -61 3 -125q21 -2 45.5 -1.5t47 6.5t40 19.5t25.5 38.5q11 36 16.5 75t5.5 78t-7 76t-23 72q-12 26 -35 33t-46.5 1.5t-42 -23.5t-21.5 -45z" />
    <glyph glyph-name="c" unicode="c" horiz-adv-x="534" 
d="M176 487q38 21 79 28.5t83.5 5.5t84 -13.5t80.5 -28.5q-6 -38 -10.5 -76t-9.5 -77q-8 22 -18.5 44t-24.5 41.5t-32.5 34t-42.5 21.5q-23 9 -47 5.5t-44 -15.5t-34.5 -31.5t-20.5 -42.5q-10 -36 -14 -77t2.5 -80.5t25 -73.5t53.5 -56q28 -16 57 -20t59 0.5t59 13.5t57 20
q-34 -49 -86 -75.5t-109.5 -32.5t-114.5 10t-100 54q-43 44 -59 105t-7 122t42.5 113.5t91.5 80.5z" />
    <glyph glyph-name="d" unicode="d" horiz-adv-x="670" 
d="M343 714l206 1l1 -582q0 -23 13 -35.5t31 -18t38 -7.5t37 -4q-27 -28 -62.5 -43.5t-73 -18.5t-74.5 8t-66 37q-55 -38 -122.5 -48t-128.5 19q-30 15 -51.5 38.5t-34.5 53t-19.5 61.5t-6.5 63q-3 38 4.5 76t23.5 72.5t41 63.5t60 47q26 15 54.5 20.5t57 5t57.5 -6
t56 -13.5q-1 27 0.5 55t0 56t-11 53.5t-30.5 46.5zM275 466q-24 -17 -37.5 -41.5t-20 -52t-9 -56.5t-3.5 -56q1 -23 2.5 -48t6.5 -48t16 -44.5t30 -36.5q20 -12 41 -11t39 11.5t30 29t12 40.5q3 64 3.5 127.5t-3.5 127.5q-2 19 -13 32.5t-26 21.5t-33 9t-35 -5z" />
    <glyph glyph-name="e" unicode="e" horiz-adv-x="556" 
d="M153 488q33 20 70.5 30.5t76.5 12.5t77.5 -6t72.5 -24q27 -15 41.5 -38.5t17.5 -50t-6.5 -52.5t-30.5 -44q-29 -26 -62.5 -41.5t-69.5 -25t-73.5 -16t-73.5 -13.5q5 -20 12.5 -40.5t19 -38.5t28 -31.5t38.5 -19.5q30 -11 60.5 -11t60.5 7t58.5 19t56.5 24
q-32 -51 -83.5 -81.5t-109.5 -41t-118 1t-107 45.5q-50 42 -70 103t-13 125t39.5 119.5t87.5 87.5zM230 452q-14 -21 -21.5 -51t-11.5 -58.5t-4.5 -51.5t-0.5 -30q21 6 43.5 10t44 11t39.5 19.5t29 33.5q11 29 12.5 62t-14.5 61q-10 16 -26 22.5t-33 5t-32.5 -9.5t-24.5 -24
z" />
    <glyph glyph-name="f" unicode="f" horiz-adv-x="423" 
d="M138 652q29 26 63.5 36.5t71 10.5t73 -8t70.5 -19q-5 -35 -9.5 -70.5t-9.5 -71.5q-12 18 -22.5 39t-24.5 39.5t-33 30t-45 7.5q-18 -17 -25.5 -44.5t-10.5 -54.5q-4 -32 -2 -67q13 -1 30.5 -1h33.5h39v-53h-100v-426h-164l1 424h-60l21 22q9 8 18 17.5t17 15.5
q2 23 5.5 47t10.5 47t19.5 43.5t32.5 35.5z" />
    <glyph glyph-name="g" unicode="g" horiz-adv-x="574" 
d="M182 494q44 16 93 21t97 -1t92.5 -25t81.5 -51q6 -107 3.5 -214t-0.5 -213q1 -30 -6.5 -59.5t-23 -55t-37.5 -46.5t-49 -33q-46 -23 -97.5 -30.5t-102 -1.5t-96.5 28.5t-81 61.5q35 -5 71.5 -11t72.5 -7.5t71 5.5t67 28q16 11 26 25.5t14.5 31.5t7 35.5t4.5 36.5
q-29 -7 -64 -12t-71 -4.5t-70.5 9.5t-65.5 32q-36 27 -58 66.5t-30 84t-1.5 90.5t26 87t51 73.5t75.5 48.5zM224 409q-22 -73 -22.5 -151.5t28.5 -149.5q11 -24 30 -34.5t41.5 -13t47 0.5t44.5 7q1 66 0 130q-1 54 -3 113.5t-6 103.5q-6 28 -30 41t-50.5 11.5t-50 -16.5
t-29.5 -42z" />
    <glyph glyph-name="h" unicode="h" horiz-adv-x="667" 
d="M-1 701h221v-248q22 12 45 24t47.5 21t49 12t51.5 -3q23 -2 45 -12t39.5 -25.5t29 -35.5t15.5 -45q5 -35 5 -70.5t-0.5 -71.5t-0.5 -72.5t4 -72.5q5 -20 20.5 -30t34 -13.5t37.5 -2t31 2.5q-23 -30 -61.5 -49t-79.5 -22t-78 13t-58 54q-12 39 -13.5 79t-0.5 80t2 80.5
t-5 80.5q-2 18 -13.5 31t-27 20.5t-33.5 7t-32 -9.5q-28 -11 -40.5 -40t-11.5 -57q-1 -20 -1.5 -45.5t-0.5 -52v-54v-53.5q0 -60 1 -123h-162v226v99v100.5t-0.5 95.5t-1.5 84q4 33 -15 56t-42 41z" />
    <glyph glyph-name="i" unicode="i" horiz-adv-x="261" 
d="M2 494q28 0 67 0.5t74 1.5q40 1 84 1v-494l-161 -2v162v70.5t-0.5 72t-1 68.5t-1.5 60q2 14 -4.5 22.5t-16 15t-20.5 11.5t-20 11zM229 628q0 -36 -25.5 -61.5t-61.5 -25.5q-37 0 -63 25.5t-26 61.5q0 37 26 63t63 26q36 0 61.5 -26t25.5 -63z" />
    <glyph glyph-name="j" unicode="j" horiz-adv-x="263" 
d="M0 509q29 1 69 1t77 1q42 0 87 1q1 -109 1 -213v-92.5t-0.5 -94t-1 -89.5t-0.5 -79q0 -32 -11.5 -62.5t-32 -54.5t-48 -40t-60.5 -19q-27 -6 -51.5 -3.5t-48.5 11t-45.5 22.5t-41.5 28q19 2 38.5 1.5t39.5 1t38 7.5t34 19q14 12 19.5 28t7 33t0.5 34.5t0 33.5
q-2 118 0.5 233t-3.5 231q1 14 -6 24t-17 16t-22 11t-22 10zM230 647q0 -37 -25.5 -63t-62.5 -26q-36 0 -61.5 26t-25.5 63q0 36 25.5 62t61.5 26q37 0 62.5 -26t25.5 -62z" />
    <glyph glyph-name="k" unicode="k" horiz-adv-x="633" 
d="M-2 716h209v-168v-73t0.5 -74.5t1 -71t0.5 -61.5q19 19 44 41.5t49.5 48.5t46 56t33.5 63q-13 5 -33 12t-32 12h217q-33 -32 -65 -64l-56.5 -56.5t-51.5 -50.5q42 -58 78.5 -119.5t82.5 -117.5q11 -12 24.5 -18.5t28.5 -9.5t30 -5t30 -5q-25 -25 -57.5 -42t-68 -22.5
t-70 3.5t-62.5 35q-43 46 -74 98.5t-68 101.5l-25 -24v-205h-167v239v102.5v106t-0.5 101t-1.5 88.5q0 12 -4.5 22t-11 19.5t-14 18.5t-13.5 19z" />
    <glyph glyph-name="l" unicode="l" horiz-adv-x="237" 
d="M1 701h214l1 -699l-165 2q1 119 1 233v100v103t-0.5 98t-0.5 86q1 13 -3.5 23.5t-13 19.5t-17.5 17t-16 17z" />
    <glyph glyph-name="m" unicode="m" horiz-adv-x="1016" 
d="M-1 515h230q0 -9 -0.5 -24.5t-0.5 -25.5q35 26 78 42t86.5 16.5t83.5 -16t69 -55.5q23 20 50.5 36.5t57.5 26t62 11.5t63 -8q40 -8 67.5 -41t32.5 -74q5 -38 5 -76t-0.5 -75.5t-0.5 -75t4 -75.5q7 -19 22 -29t32.5 -14.5t35.5 -4.5h33q-26 -29 -64.5 -46.5t-79 -20
t-77 13.5t-58.5 52q-16 44 -17.5 90.5t1 93.5t2 93.5t-15.5 89.5q-14 23 -35.5 28.5t-43.5 -1t-39.5 -23.5t-21.5 -40q-3 -24 -4 -53t-2 -60t-1 -63v-61q0 -70 2 -143l-167 -1q1 74 1 144q0 60 -1.5 125.5t-4.5 113.5q0 16 -7.5 29t-18.5 22.5t-25.5 12.5t-30.5 0
q-19 -3 -33 -14t-22.5 -26.5t-13 -33.5t-3.5 -34q-1 -22 -1.5 -47.5t-0.5 -53v-56.5v-55q0 -62 1 -126l-167 -2q1 82 1 161v69.5t-0.5 71.5t-1.5 67.5t-2 58.5q1 16 -3.5 28.5t-13 22.5t-19.5 18.5t-23 16.5z" />
    <glyph glyph-name="n" unicode="n" horiz-adv-x="668" 
d="M-2 514l214 2v-26v-21t1 -16q34 26 68.5 46t77.5 22q27 3 56 -3t52.5 -20.5t41.5 -36t25 -49.5q7 -39 7 -78.5t-1.5 -78.5t-0.5 -78.5t9 -77.5q6 -18 20.5 -26.5t31.5 -11.5t35.5 -3.5t34.5 -4.5q-26 -26 -62 -43.5t-74 -21.5t-74 8t-62 43q-20 41 -24.5 85.5t-3 90l3 91
t-7.5 89.5q-10 29 -33 39t-48.5 4.5t-46.5 -23.5t-23 -45q-1 -13 -1.5 -35.5t-1 -51t-1 -60.5t-0.5 -63q-1 -74 -1 -158h-169q1 80 1 154v66.5v68.5t-0.5 65t-0.5 58q2 14 -1.5 27.5t-10.5 26t-15 24t-16 22.5z" />
    <glyph glyph-name="o" unicode="o" horiz-adv-x="610" 
d="M182 515q41 15 88 20.5t92 -2t85.5 -27.5t72.5 -55q39 -43 54.5 -100.5t8 -115t-38 -108t-82.5 -79.5q-45 -26 -97 -37t-104.5 -6.5t-100.5 26t-84 61.5q-40 50 -52 114t2 125.5t53 111.5t103 72zM285 495q-17 -4 -29.5 -15t-22 -25.5t-15 -31.5t-9.5 -33
q-23 -127 4 -252q3 -17 10 -34t17.5 -31t26 -22.5t34.5 -8.5q21 0 36.5 9.5t27.5 25.5t19 35t11 38q12 68 12 139t-21 138q-3 17 -12.5 31.5t-23 24.5t-30 14t-35.5 -2z" />
    <glyph glyph-name="p" unicode="p" 
d="M4 513l212 3q-1 -10 -1 -19q0 -8 -0.5 -15t0.5 -12q35 29 79.5 42t89 9t85 -26t66.5 -64q26 -45 36.5 -98t3.5 -106.5t-32 -101t-68 -80.5q-28 -21 -60 -30.5t-65 -10.5t-65.5 6.5t-62.5 22.5v-218h-162l-1 604q0 19 -4 32.5t-11.5 24t-17.5 19.5t-22 18zM281 450
q-31 -9 -45 -37t-13 -57q-1 -58 -2 -115.5t5 -115.5q4 -25 23.5 -40t43.5 -18.5t46 6t33 33.5q28 60 28.5 128t-11.5 132q-3 18 -12.5 36.5t-24 32t-33 18.5t-38.5 -3z" />
    <glyph glyph-name="q" unicode="q" horiz-adv-x="587" 
d="M164 500q45 20 93.5 25t96.5 -1.5t94 -24t87 -43.5q3 -143 1.5 -283.5t1.5 -282.5q-1 -12 5.5 -26t13.5 -25q10 -14 22 -27h-205v84q0 35 -0.5 73.5t0.5 66.5q-37 -19 -79 -28.5t-82.5 -6.5t-78 20.5t-63.5 53.5q-34 49 -45.5 112t0 123.5t46 112t92.5 77.5zM255 468
q-16 -8 -26.5 -21.5t-16.5 -29.5t-10.5 -33t-7.5 -33q-3 -32 -5.5 -65t0 -65.5t10 -63.5t22.5 -60q15 -24 40.5 -31t50.5 0.5t43 27t17 47.5q2 70 2.5 139t-4.5 138q-2 21 -13.5 35t-29 21t-37 6t-35.5 -12z" />
    <glyph glyph-name="r" unicode="r" horiz-adv-x="429" 
d="M3 531l210 2v-36v-28.5t-1 -21.5q18 25 42 46t51 32.5t57 12.5t61 -14q-5 -36 -9.5 -71.5t-8.5 -70.5q-12 10 -23.5 22t-24 22t-26.5 16.5t-32 6.5q-19 -3 -33.5 -14.5t-24 -26.5t-15 -33.5t-6.5 -35.5q-2 -22 -2.5 -47.5t-1 -53t-0.5 -56.5v-55q0 -62 1 -126h-163
q1 86 1 169v73t-0.5 74.5t-1 70.5t-0.5 62q2 14 -5 28.5t-18 26.5q-12 13 -27 26z" />
    <glyph glyph-name="s" unicode="s" horiz-adv-x="429" 
d="M103 507q32 15 66 21t68.5 4t69 -9t66.5 -17q-6 -60 -9 -122q-12 16 -23 33t-24.5 31.5t-30 24.5t-37.5 13q-19 7 -40.5 2.5t-37 -16.5t-19 -30t13.5 -37q22 -19 48 -32t52 -25.5t51.5 -26.5t46.5 -35q27 -24 39 -59.5t8.5 -72t-22.5 -69t-51 -49.5q-38 -21 -79 -28.5
t-82 -5.5t-82.5 11.5t-79.5 23.5q2 37 3.5 74.5t2.5 73.5q10 -20 21 -41.5t26 -40t33.5 -32.5t43.5 -19q14 -2 30 -4.5t31.5 -2t30 5.5t26.5 18q10 9 14 21t2.5 24t-8 23t-17.5 17q-23 21 -50 35.5t-55 28.5t-52.5 30.5t-43.5 42.5t-25 57.5t1 62t26 56t48 40.5z" />
    <glyph glyph-name="t" unicode="t" horiz-adv-x="411" 
d="M20 481q47 22 87.5 48t71.5 49q36 25 65 50l-1 -122l107 1l-30 -57h-76q-3 -62 -3 -120q0 -50 1.5 -104t7.5 -93q10 -26 28 -38.5t40.5 -17.5t45.5 -4t44 4q-30 -32 -72 -52t-85.5 -23t-84.5 12.5t-68 55.5q-10 13 -16 54q-3 18 -5.5 44t-4 63t-1 85t2.5 110
q0 13 -5.5 21.5t-13.5 15t-18 11t-17 7.5z" />
    <glyph glyph-name="u" unicode="u" horiz-adv-x="737" 
d="M5 522l233 -1q-2 -72 -2 -141v-62t1 -63t2.5 -60t3.5 -52q3 -31 27 -46t52 -15t53.5 15.5t30.5 44.5q2 23 3.5 52t2.5 60t1.5 63.5t0.5 62.5q0 70 -2 142l175 -1q0 -85 1 -162q0 -33 0.5 -67t1 -65.5t1 -59t1.5 -46.5q3 -23 19.5 -33.5t38.5 -14.5t44 -3.5t35 -0.5
q-31 -29 -72.5 -46.5t-85 -20.5t-83.5 11.5t-70 49.5q-35 -28 -84.5 -45.5t-98.5 -17.5t-92.5 20t-67.5 65q-14 47 -16 94.5t-0.5 95t3 95.5t-5.5 95q-6 19 -20.5 32t-30.5 25z" />
    <glyph glyph-name="v" unicode="v" horiz-adv-x="611" 
d="M-1 553h232l154 -303q36 73 61 134q9 27 18 53t13 49.5t2.5 41.5t-11.5 27h126q-16 -35 -37 -77.5t-44 -88t-46.5 -92.5t-45.5 -90q-51 -102 -105 -208q-47 89 -91 176q-18 37 -38 76t-40 77.5t-38 74.5t-32 65q-13 28 -34.5 47.5t-43.5 37.5z" />
    <glyph glyph-name="w" unicode="w" horiz-adv-x="889" 
d="M338 525h8.5t23 0.5t33.5 0.5h40h107q31 -68 61.5 -136.5t62.5 -137.5q33 60 51 113q8 22 14 46t7.5 46t-3 40.5t-16.5 30.5h141l-251 -548q-32 70 -64 137q-27 57 -56 119t-51 109q-12 -24 -26 -51.5t-29 -58t-30 -61.5t-30 -60q-33 -68 -68 -140q-38 83 -73 164
q-15 34 -31 71t-32 72.5t-30.5 68.5t-26.5 61q-6 12 -13 29.5t-15.5 35t-19 31.5t-24.5 20h218q28 -68 58 -137.5t64 -136.5l74 163q-11 36 -29.5 61.5t-44.5 47.5z" />
    <glyph glyph-name="x" unicode="x" horiz-adv-x="584" 
d="M2 529l219 1l114 -168q28 30 45 60q6 13 11.5 27t7 28t-2 27.5t-13.5 25.5h163l-173 -225l209 -303l-216 -1q-24 36 -48 71q-19 29 -41 61.5t-37 56.5q-20 -23 -46 -55t-49 -62q-28 -35 -57 -71h-87q38 47 75 91q15 19 32 39.5t33 40.5t31.5 38.5t28.5 34.5
q-12 17 -27 39t-31 45t-33 47t-32 46q-37 53 -76 106z" />
    <glyph glyph-name="y" unicode="y" 
d="M0 527h227q-3 -78 -3 -153q0 -32 0.5 -66.5t1.5 -68t3 -64.5t6 -57q8 -25 26 -36.5t40 -14.5t46 -0.5t44 4.5v456h178q1 -96 1 -187v-81v-83t-0.5 -79.5t-0.5 -69.5q-1 -64 -32 -121t-90 -86q-47 -21 -100 -29t-104.5 -1t-99.5 29.5t-85 60.5q35 -6 72.5 -14t75.5 -10
t74.5 5.5t68.5 31.5q32 23 39 56t9 73q-29 -6 -59.5 -12t-61 -8.5t-61 0.5t-59.5 15q-40 13 -67.5 47.5t-30.5 76.5q-3 38 -3.5 75.5t0 76l1 77t-2.5 77.5q0 13 -4.5 24.5t-13 21t-17.5 18t-18 16.5z" />
    <glyph glyph-name="z" unicode="z" horiz-adv-x="522" 
d="M47 529h457l-259 -474q32 -1 62 1q25 2 53 5.5t48 11.5q18 9 32.5 21t27 26.5t23.5 30.5t22 31q-5 -23 -9 -54.5t-8 -59.5q-4 -33 -8 -69l-477 2q51 91 101 180q21 37 43.5 77.5t44 80t41.5 75.5t37 68q-37 3 -74.5 0t-70.5 -17t-59.5 -38.5t-41.5 -62.5q2 20 5 49t5 54
q3 30 5 62z" />
    <glyph glyph-name="braceleft" unicode="{" horiz-adv-x="377" 
d="M352 728v-106h-8h-9q-45 0 -60 -18q-14 -15 -14 -62v-107q0 -59 -18 -85q-21 -30 -75 -41q55 -11 75 -40q18 -25 18 -85v-106q0 -48 14 -62q15 -19 59 -19h9h9v-106h-17q-7 -1 -11.5 -1h-6.5q-143 0 -169 61q-11 27 -11 86v113q0 55 -20 80q-22 27 -76 27h-8h-9v105h9h8
q54 0 76 27q20 26 20 81v113q0 59 11 85q26 61 169 61h18q6 -1 10.5 -1h6.5z" />
    <glyph glyph-name="bar" unicode="|" horiz-adv-x="184" 
d="M46 728h106v-906h-106v906v0z" />
    <glyph glyph-name="braceright" unicode="}" horiz-adv-x="396" 
d="M39 730h7t11 1h18q143 0 170 -61q10 -26 10 -86v-112q0 -57 20 -81q22 -27 76 -27h8h8v-105h-8h-8q-54 0 -76 -27q-20 -23 -20 -81v-112q0 -60 -10 -87q-27 -60 -166 -60h-8t-12 1h-20v106h10h9q44 0 59 18q14 17 14 63v106q0 59 18 85q20 30 75 40q-55 11 -75 40
q-18 27 -18 86v107q0 48 -14 65q-14 11 -37 14h-41v107z" />
    <glyph glyph-name="asciitilde" unicode="~" horiz-adv-x="363" 
d="M341 348q-23 -67 -61.5 -93t-79.5 -12q-6 2 -12 4.5t-14 7.5l-45 28q-15 11 -25 14q-28 10 -55 -31l-34 1q20 65 60 91t81 13q16 -4 28 -14l47 -31q11 -8 17 -9q29 -9 57 31h36z" />
    <glyph glyph-name="Aacute" unicode="&#xc1;" horiz-adv-x="761" 
d="M334 732h61q79 -179 160.5 -366.5t162.5 -366.5h-211q-24 52 -47 103t-45 104q-59 -1 -117 -1h-117q-7 -18 -16 -38t-16 -40t-12 -37t-5 -28q0 -16 11.5 -31t30.5 -32h-160q41 95 81.5 186t80 180.5t78.5 180.5t80 186zM298 467q-22 -51 -44.5 -101t-44.5 -101h180
q-22 52 -45 102zM343 775l138 157q38 45 68 45q45 0 45 -50q0 -32 -47 -59l-158 -93h-46z" />
    <glyph glyph-name="Acircumflex" unicode="&#xc2;" horiz-adv-x="767" 
d="M334 732h61q79 -179 160.5 -366.5t162.5 -366.5h-211q-24 52 -47 103t-45 104q-59 -1 -117 -1h-117q-7 -18 -16 -38t-16 -40t-12 -37t-5 -28q0 -16 11.5 -31t30.5 -32h-160q41 95 81.5 186t80 180.5t78.5 180.5t80 186zM298 467q-22 -51 -44.5 -101t-44.5 -101h180
q-22 52 -45 102zM201 760l124 152h81l123 -152h-46l-118 79l-118 -79h-46z" />
    <glyph glyph-name="Adieresis" unicode="&#xc4;" horiz-adv-x="764" 
d="M334 732h61q79 -179 160.5 -366.5t162.5 -366.5h-211q-24 52 -47 103t-45 104q-59 -1 -117 -1h-117q-7 -18 -16 -38t-16 -40t-12 -37t-5 -28q0 -16 11.5 -31t30.5 -32h-160q41 95 81.5 186t80 180.5t78.5 180.5t80 186zM298 467q-22 -51 -44.5 -101t-44.5 -101h180
q-22 52 -45 102zM758 1688q0 57 41.5 97.5t98.5 40.5q58 0 99 -40t41 -98q0 -60 -39.5 -101t-100.5 -41q-59 0 -99.5 41.5t-40.5 100.5zM376 1688q0 57 42.5 97.5t99.5 40.5q58 0 98 -39.5t40 -98.5q0 -61 -38.5 -101.5t-99.5 -40.5q-60 0 -101 41.5t-41 100.5z" />
    <glyph glyph-name="Eacute" unicode="&#xc9;" horiz-adv-x="654" 
d="M6 734h559q-2 -50 -5 -101t-2 -102q-11 20 -24.5 41.5t-28.5 40t-34 32.5t-43 20q-43 9 -85 7.5t-84 -0.5v-244q41 -4 80 -3q33 1 68.5 6.5t59.5 19.5v-118q-24 15 -59 20t-68 7q-39 1 -81 -2v-293q31 1 63.5 0.5t64.5 1.5t63 9t60 22q34 19 56 48.5t44 59.5
q-8 -51 -14 -101.5t-13 -101.5q-129 -2 -256.5 -1t-255.5 0v644q0 16 -6 28.5t-15.5 23t-21 19t-22.5 17.5zM273 780l138 157q39 45 68 45q45 0 45 -50q0 -32 -47 -59l-158 -93h-46z" />
    <glyph glyph-name="Iacute" unicode="&#xcd;" horiz-adv-x="326" 
d="M5 730h257v-276v-119v-122.5t-0.5 -116t-0.5 -101.5q-47 1 -94 1t-93 2q0 156 1 311t-2 312q2 37 -19 63.5t-49 45.5zM131 765l138 157q39 45 68 45q45 0 45 -50q0 -34 -47 -59l-158 -93h-46z" />
    <glyph glyph-name="Oacute" unicode="&#xd3;" horiz-adv-x="800" 
d="M329 730q79 14 159 -3t143 -70q43 -35 71.5 -81t42.5 -98.5t14 -107.5t-14.5 -107.5t-43.5 -99t-72 -81.5q-43 -36 -95 -55.5t-107.5 -23t-110.5 8t-103 38.5t-86 67.5t-58 94.5q-24 50 -30.5 106.5t2.5 111.5t33 106t61.5 92t86 68t107.5 34zM392 689q-34 -2 -59.5 -18
t-43.5 -41t-29 -55.5t-15 -60.5q-6 -48 -10 -97t-2 -98t10.5 -97t28.5 -93q13 -32 42 -51.5t62 -24.5t66 4.5t56 35.5q37 44 48.5 100.5t13.5 112.5q1 38 1 76.5t-3.5 76.5t-11.5 75.5t-25 72.5q-16 38 -52.5 61.5t-76.5 20.5zM360 795l138 157q40 45 68 45q45 0 45 -50
q0 -33 -47 -59l-158 -93h-46z" />
    <glyph glyph-name="Ocircumflex" unicode="&#xd4;" horiz-adv-x="823" 
d="M329 730q79 14 159 -3t143 -70q43 -35 71.5 -81t42.5 -98.5t14 -107.5t-14.5 -107.5t-43.5 -99t-72 -81.5q-43 -36 -95 -55.5t-107.5 -23t-110.5 8t-103 38.5t-86 67.5t-58 94.5q-24 50 -30.5 106.5t2.5 111.5t33 106t61.5 92t86 68t107.5 34zM392 689q-34 -2 -59.5 -18
t-43.5 -41t-29 -55.5t-15 -60.5q-6 -48 -10 -97t-2 -98t10.5 -97t28.5 -93q13 -32 42 -51.5t62 -24.5t66 4.5t56 35.5q37 44 48.5 100.5t13.5 112.5q1 38 1 76.5t-3.5 76.5t-11.5 75.5t-25 72.5q-16 38 -52.5 61.5t-76.5 20.5zM239 760l124 152h81l123 -152h-46l-118 79
l-118 -79h-46z" />
    <glyph glyph-name="Uacute" unicode="&#xda;" horiz-adv-x="761" 
d="M682 735h-157q13 -6 26.5 -12.5t25 -15.5t19.5 -21t8 -28l2 -327q0 -25 0.5 -51t-2 -51t-9 -49.5t-20.5 -45.5q-17 -25 -41.5 -40.5t-53.5 -22.5t-59.5 -6.5t-57.5 8.5q-24 8 -42 24.5t-30 37.5t-18 45.5t-6 48.5q-1 31 -1.5 70t-0.5 80v84v83q0 93 1 190l-264 -1
q11 -8 23 -13.5t22 -13t17 -17.5t8 -25q6 -57 6.5 -114.5t-0.5 -115t-1 -115.5t6 -115q3 -34 18.5 -64t37.5 -55t51 -42t62 -25q42 -10 86.5 -15.5t88 -2.5t85.5 15.5t79 37.5q27 20 46 46.5t30 57.5t15 64.5t4 65.5q-1 27 -1.5 60.5t-1 69.5t-0.5 74v73q-1 82 -1 169z
M343 775l138 157q38 45 68 45q45 0 45 -50q0 -32 -47 -59l-158 -93h-46z" />
    <glyph glyph-name="Yacute" unicode="&#xdd;" horiz-adv-x="742" 
d="M4 736h252l192 -333q36 66 66 123q12 24 24 49t21 47t14.5 39t4.5 25q0 8 -3 17t-7 15q-4 8 -11 16h138l-221 -421l-5 -314h-199v319zM343 775l138 157q38 45 68 45q45 0 45 -50q0 -32 -47 -59l-158 -93h-46z" />
    <glyph glyph-name="aacute" unicode="&#xe1;" horiz-adv-x="725" 
d="M150 504q47 24 99.5 32t105 2t103.5 -24.5t94 -46.5q1 -86 -1.5 -172.5t3.5 -173.5q3 -21 16.5 -31t31.5 -15.5t37.5 -8.5t34.5 -9q-31 -22 -67 -36t-73 -16.5t-73 7.5t-66 37q-37 -23 -82 -36t-90 -11.5t-86.5 18.5t-70.5 54q-34 49 -45.5 111.5t-1.5 123t42.5 113
t88.5 82.5zM264 480q-20 -15 -31.5 -35t-17.5 -42.5t-9 -47t-5 -46.5q-1 -28 -1.5 -57t2.5 -56.5t11 -54t25 -50.5q15 -20 38.5 -25t45.5 2.5t38 25t17 42.5q7 74 7.5 147.5t-7.5 147.5q-2 19 -14.5 33.5t-29 21.5t-35 6t-34.5 -12zM267 587l138 157q40 45 68 45
q45 0 45 -50q0 -32 -47 -59l-158 -93h-46z" />
    <glyph glyph-name="acircumflex" unicode="&#xe2;" horiz-adv-x="728" 
d="M150 504q47 24 99.5 32t105 2t103.5 -24.5t94 -46.5q1 -86 -1.5 -172.5t3.5 -173.5q3 -21 16.5 -31t31.5 -15.5t37.5 -8.5t34.5 -9q-31 -22 -67 -36t-73 -16.5t-73 7.5t-66 37q-37 -23 -82 -36t-90 -11.5t-86.5 18.5t-70.5 54q-34 49 -45.5 111.5t-1.5 123t42.5 113
t88.5 82.5zM264 480q-20 -15 -31.5 -35t-17.5 -42.5t-9 -47t-5 -46.5q-1 -28 -1.5 -57t2.5 -56.5t11 -54t25 -50.5q15 -20 38.5 -25t45.5 2.5t38 25t17 42.5q7 74 7.5 147.5t-7.5 147.5q-2 19 -14.5 33.5t-29 21.5t-35 6t-34.5 -12zM149 580l124 152h81l123 -152h-46
l-118 79l-118 -79h-46z" />
    <glyph glyph-name="adieresis" unicode="&#xe4;" horiz-adv-x="1050" 
d="M150 504q47 24 99.5 32t105 2t103.5 -24.5t94 -46.5q1 -86 -1.5 -172.5t3.5 -173.5q3 -21 16.5 -31t31.5 -15.5t37.5 -8.5t34.5 -9q-31 -22 -67 -36t-73 -16.5t-73 7.5t-66 37q-37 -23 -82 -36t-90 -11.5t-86.5 18.5t-70.5 54q-34 49 -45.5 111.5t-1.5 123t42.5 113
t88.5 82.5zM264 480q-20 -15 -31.5 -35t-17.5 -42.5t-9 -47t-5 -46.5q-1 -28 -1.5 -57t2.5 -56.5t11 -54t25 -50.5q15 -20 38.5 -25t45.5 2.5t38 25t17 42.5q7 74 7.5 147.5t-7.5 147.5q-2 19 -14.5 33.5t-29 21.5t-35 6t-34.5 -12zM567 1322q0 57 41.5 97.5t99.5 40.5
t99 -40t41 -98q0 -60 -39.5 -101t-100.5 -41q-60 0 -100.5 41.5t-40.5 100.5zM186 1322q0 57 42.5 97.5t98.5 40.5q59 0 99 -39.5t40 -98.5q0 -61 -38.5 -101.5t-100.5 -40.5q-59 0 -100 41.5t-41 100.5z" />
    <glyph glyph-name="eacute" unicode="&#xe9;" horiz-adv-x="575" 
d="M134 503q34 20 72.5 31.5t78.5 13t79.5 -6.5t74.5 -25q27 -15 42 -39.5t18.5 -52t-6 -54t-31.5 -45.5q-30 -26 -64.5 -42t-72 -26t-75.5 -16.5t-75 -13.5q5 -21 12.5 -42.5t19 -39.5t28.5 -32t40 -20q31 -12 62.5 -12t62 7.5t60.5 19.5t59 25q-34 -52 -86.5 -84
t-112.5 -42.5t-121 1.5t-111 47q-34 28 -54 66.5t-28 81.5t-3.5 86.5t21 84t44 74.5t66.5 55zM213 466q-15 -22 -22.5 -52.5t-11.5 -61t-4.5 -53.5t-0.5 -30q20 6 44 10t45.5 11.5t40.5 19.5t30 35q12 31 13.5 65t-15.5 62q-11 15 -27.5 22t-34 6t-33.5 -9.5t-24 -24.5z
M250 584l138 157q38 45 68 45q45 0 45 -50q0 -32 -47 -59l-158 -93h-46z" />
    <glyph glyph-name="iacute" unicode="&#xed;" horiz-adv-x="260" 
d="M64 554l138 157q40 45 68 45q45 0 45 -50q0 -32 -47 -59l-158 -93h-46zM-1 509q28 0 68.5 0.5t77.5 1.5q42 1 87 1v-509l-167 -2v168v72.5t-0.5 73.5t-1 70t-1.5 63q2 14 -4.5 23t-16.5 15t-21.5 11.5t-20.5 11.5z" />
    <glyph glyph-name="oacute" unicode="&#xf3;" horiz-adv-x="624" 
d="M168 530q44 16 92 21t94.5 -2t88.5 -27.5t75 -56.5q40 -45 55.5 -104t8 -118.5t-39 -111.5t-85.5 -82q-45 -27 -99 -38.5t-108 -6t-104 27.5t-86 63q-41 51 -53.5 117t1.5 129.5t54.5 115t105.5 73.5zM275 510q-18 -4 -31 -15.5t-22 -26.5t-15.5 -32.5t-10.5 -33.5
q-22 -131 4 -260q3 -18 10 -35.5t18.5 -31.5t27 -23t35.5 -9q22 0 38.5 10t28.5 26t19 36t12 39q11 70 11 143t-20 143q-4 17 -14 32t-24 25.5t-31.5 14.5t-35.5 -2zM263 592l138 157q40 45 68 45q45 0 45 -50q0 -33 -47 -59l-158 -93h-46z" />
    <glyph glyph-name="ocircumflex" unicode="&#xf4;" horiz-adv-x="621" 
d="M168 530q44 16 92 21t94.5 -2t88.5 -27.5t75 -56.5q40 -45 55.5 -104t8 -118.5t-39 -111.5t-85.5 -82q-45 -27 -99 -38.5t-108 -6t-104 27.5t-86 63q-41 51 -53.5 117t1.5 129.5t54.5 115t105.5 73.5zM275 510q-18 -4 -31 -15.5t-22 -26.5t-15.5 -32.5t-10.5 -33.5
q-22 -131 4 -260q3 -18 10 -35.5t18.5 -31.5t27 -23t35.5 -9q22 0 38.5 10t28.5 26t19 36t12 39q11 70 11 143t-20 143q-4 17 -14 32t-24 25.5t-31.5 14.5t-35.5 -2zM124 583l124 152h81l123 -152h-46l-118 79l-118 -79h-46z" />
    <glyph glyph-name="uacute" unicode="&#xfa;" horiz-adv-x="771" 
d="M5 538l240 -1q-2 -75 -2 -147v-63.5t1 -64.5t2.5 -61.5t3.5 -53.5q1 -22 14 -35.5t30.5 -20.5t37.5 -7t38 7t31.5 20.5t16.5 34.5q2 24 3.5 54t2.5 62t1.5 65t0.5 64q0 72 -2 147l181 -1q0 -87 1 -167q0 -34 0.5 -69t1 -68t1 -60.5t1.5 -47.5q3 -24 20.5 -35t39.5 -15
t44.5 -3.5t36.5 -0.5q-32 -30 -75 -48t-87 -21t-86 12t-72 51q-37 -29 -87.5 -46.5t-101.5 -17.5t-95.5 20.5t-69.5 66.5q-14 48 -16 97t-0.5 98l3 98t-5.5 98q-7 20 -22 33t-31 26zM322 586l138 157q40 45 68 45q45 0 45 -50q0 -32 -47 -59l-158 -93h-46z" />
    <glyph glyph-name="udieresis" unicode="&#xfc;" horiz-adv-x="1158" 
d="M5 538l240 -1q-2 -75 -2 -147v-63.5t1 -64.5t2.5 -61.5t3.5 -53.5q1 -22 14 -35.5t30.5 -20.5t37.5 -7t38 7t31.5 20.5t16.5 34.5q2 24 3.5 54t2.5 62t1.5 65t0.5 64q0 72 -2 147l181 -1q0 -87 1 -167q0 -34 0.5 -69t1 -68t1 -60.5t1.5 -47.5q3 -24 20.5 -35t39.5 -15
t44.5 -3.5t36.5 -0.5q-32 -30 -75 -48t-87 -21t-86 12t-72 51q-37 -29 -87.5 -46.5t-101.5 -17.5t-95.5 20.5t-69.5 66.5q-14 48 -16 97t-0.5 98l3 98t-5.5 98q-7 20 -22 33t-31 26zM609 1322q0 57 41.5 97.5t99.5 40.5t99 -40t41 -98q0 -60 -39.5 -101t-100.5 -41
q-60 0 -100.5 41.5t-40.5 100.5zM228 1322q0 57 42 97.5t99 40.5q59 0 99 -39.5t40 -98.5q0 -61 -38.5 -101.5t-100.5 -40.5q-59 0 -100 41.5t-41 100.5z" />
    <glyph glyph-name="yacute" unicode="&#xfd;" horiz-adv-x="612" 
d="M0 543h234q-3 -82 -3 -159q0 -33 0.5 -68t1.5 -69.5t3 -66t6 -58.5q8 -26 26 -37.5t41.5 -15t48.5 -1l45 4.5v470h183q1 -99 1 -193v-83.5v-85.5t-0.5 -81.5t-0.5 -71.5q0 -33 -8.5 -65t-24.5 -60t-39.5 -51t-53.5 -37q-48 -22 -102.5 -29.5t-107.5 -1t-102.5 29
t-87.5 62.5q36 -6 75 -14t77.5 -10t76 5.5t70.5 32.5q17 12 26 26t14 31t7 36t3 40q-30 -6 -61.5 -12.5t-63 -8.5t-62.5 1t-61 14q-42 14 -70 49.5t-31 78.5q-3 38 -3.5 77.5t0 79l1 79t-2.5 79.5q0 15 -5 26.5t-13.5 21t-18 18.5t-18.5 17zM288 587l138 157q40 45 68 45
q45 0 45 -50q0 -32 -47 -59l-158 -93h-46z" />
    <glyph glyph-name="uni1EC2" unicode="&#x1ec2;" horiz-adv-x="608" 
d="M6 734h559q-2 -50 -5 -101t-2 -102q-11 20 -24.5 41.5t-28.5 40t-34 32.5t-43 20q-43 9 -85 7.5t-84 -0.5v-244q41 -4 80 -3q33 1 68.5 6.5t59.5 19.5v-118q-24 15 -59 20t-68 7q-39 1 -81 -2v-293q31 1 63.5 0.5t64.5 1.5t63 9t60 22q34 19 56 48.5t44 59.5
q-8 -51 -14 -101.5t-13 -101.5q-129 -2 -256.5 -1t-255.5 0v644q0 16 -6 28.5t-15.5 23t-21 19t-22.5 17.5zM135 763l123 152h81l124 -152h-46l-118 79l-118 -79h-46zM298 933q-5 9 -9 17q-4 6 -6 12.5t-2 10.5q0 22 34 42l5 3q14 8 21.5 17t10 17t2 15t-0.5 11q-1 9 -12 19
t-26 10q-9 0 -21 -4t-21 -12q-15 -12 -19 -25l-32 29q0 13 17 26q24 16 58 19q49 5 84 -18q34 -21 31 -59q-1 -13 -3.5 -24.5t-10.5 -22.5t-22 -22t-37 -23q-2 -2 -4.5 -2.5t-5.5 -2.5q-17 -10 -18 -21l-1 -2z" />
    <glyph glyph-name="uni1EE3" unicode="&#x1ee3;" horiz-adv-x="614" 
d="M168 530q44 16 92 21t94.5 -2t88.5 -27.5t75 -56.5q40 -45 55.5 -104t8 -118.5t-39 -111.5t-85.5 -82q-45 -27 -99 -38.5t-108 -6t-104 27.5t-86 63q-41 51 -53.5 117t1.5 129.5t54.5 115t105.5 73.5zM275 510q-18 -4 -31 -15.5t-22 -26.5t-15.5 -32.5t-10.5 -33.5
q-22 -131 4 -260q3 -18 10 -35.5t18.5 -31.5t27 -23t35.5 -9q22 0 38.5 10t28.5 26t19 36t12 39q11 70 11 143t-20 143q-4 17 -14 32t-24 25.5t-31.5 14.5t-35.5 -2zM220 -76q18 17 41 20t44 -5t36 -25t17 -41q5 -23 -4.5 -43.5t-27.5 -33.5t-40.5 -17t-43.5 6
q-21 7 -33.5 24.5t-15.5 38.5t3.5 42t23.5 34zM538 505q0 16 -31 24q-15 4 -21 6q-45 17 -45 67q0 33 21 53q19 18 51 18q42 0 70 -33q27 -31 27 -81q0 -74 -69 -140l-1 -1q-6 11 -12 20t-13 19q23 25 23 48z" />
    <glyph glyph-name="uni1EE4" unicode="&#x1ee4;" horiz-adv-x="724" 
d="M682 735q0 -87 1 -169v-73t0.5 -74t1 -69.5t1.5 -60.5q0 -32 -4 -65.5t-15 -64.5t-30 -57.5t-46 -46.5q-37 -25 -79 -37.5t-85.5 -15.5t-88 2.5t-86.5 15.5q-33 8 -62 25t-51 42t-37.5 55t-18.5 64q-6 57 -6 115t1 115.5t0.5 115t-6.5 114.5q-1 15 -8 25t-17 17.5t-22 13
t-23 13.5l264 1q-1 -97 -1 -190v-83v-84t0.5 -80t1.5 -70q0 -24 6 -48.5t18 -45.5t30 -37.5t42 -24.5q27 -8 57.5 -8.5t59.5 6.5t53.5 22.5t41.5 40.5q14 21 20.5 45.5t9 49.5t2 51t-0.5 51l-2 327q0 16 -8 28t-19.5 21t-25 15.5t-26.5 12.5h157zM339 -78q17 17 41 20t45 -5
t36 -25t17 -41q5 -23 -4.5 -43.5t-27.5 -33.5t-40.5 -17.5t-43.5 6.5q-21 6 -33.5 23.5t-15.5 39t3 42.5t23 34z" />
    <glyph glyph-name="eth" unicode="&#xf0;" horiz-adv-x="578" 
d="M550 502q0 -104 -10 -197t-38 -163t-79.5 -111.5t-135.5 -41.5q-63 0 -111.5 28.5t-81 73.5t-49.5 102t-17 114t16.5 112.5t49 98.5t80 70t109.5 27q38 0 73.5 -11.5t62.5 -32.5t43.5 -53t16.5 -72q0 -29 -12 -55.5t-31.5 -45.5t-45.5 -30t-54 -11q-68 0 -99.5 35.5
t-31.5 88.5q0 31 18.5 47t41 28t41 22.5t18.5 28.5q0 9 -4 15t-10.5 9.5t-13.5 5t-13 1.5q-34 0 -59.5 -17t-42.5 -43t-24.5 -57t-7.5 -59q0 -45 13 -83.5t37.5 -67t61 -44.5t83.5 -16q50 0 83 31t52 76t26.5 97t7.5 94q0 51 -15 96t-38 79.5t-53 54.5t-62 20q-27 0 -50 -8
t-46 -16.5t-45.5 -16.5t-46.5 -8q-32 0 -50 15t-26.5 38t-11 50t-2.5 50q11 -12 19.5 -17t20.5 -5q10 0 32.5 6t50 13t58 13t55.5 6q49 0 87 -19.5t65.5 -51.5t45.5 -72t29.5 -80t15.5 -77.5t4 -63.5z" />
    <glyph glyph-name="Ydieresis" unicode="&#x178;" horiz-adv-x="1172" 
d="M4 736h252l192 -333q37 66 66 123q12 24 24 49t21 46.5t14.5 38.5t4.5 26q0 8 -3 17t-7 16q-4 8 -11 15h138l-221 -421l-5 -314h-199v319zM636 1688q0 57 41.5 97.5t98.5 40.5q58 0 99 -40t41 -98q0 -60 -39.5 -101t-100.5 -41q-59 0 -99.5 41.5t-40.5 100.5zM254 1688
q0 57 42.5 97.5t99.5 40.5q58 0 98 -39.5t40 -98.5q0 -61 -38.5 -101.5t-99.5 -40.5q-60 0 -101 41.5t-41 100.5z" />
    <glyph glyph-name="ugrave" unicode="&#xf9;" horiz-adv-x="745" 
d="M5 538l240 -1q-2 -75 -2 -146v-63t1 -65t2.5 -62t3.5 -54q3 -32 28 -47.5t54 -15.5t55 16t31 46q2 24 3.5 54t2.5 62t1.5 65t0.5 64q0 72 -2 147l181 -1q0 -88 1 -167q0 -34 0.5 -69t1 -67.5t1 -61t1.5 -47.5q3 -24 20 -35t39.5 -15t45 -3.5t36.5 -0.5q-32 -30 -75 -48
t-87.5 -21t-86 12t-71.5 51q-37 -29 -87.5 -47t-101 -18t-95.5 20.5t-70 67.5q-14 48 -16 97t-0.5 98t3 98.5t-5.5 97.5q-6 20 -21 33t-32 26zM373 599l-159 93q-47 26 -47 58q0 50 45 50q31 0 68 -44l139 -157h-46z" />
    <glyph glyph-name="ucircumflex" unicode="&#xfb;" horiz-adv-x="754" 
d="M5 538l240 -1q-2 -75 -2 -146v-63t1 -65t2.5 -62t3.5 -54q3 -32 28 -47.5t54 -15.5t55 16t31 46q2 24 3.5 54t2.5 62t1.5 65t0.5 64q0 72 -2 147l181 -1q0 -88 1 -167q0 -34 0.5 -69t1 -67.5t1 -61t1.5 -47.5q3 -24 20 -35t39.5 -15t45 -3.5t36.5 -0.5q-32 -30 -75 -48
t-87.5 -21t-86 12t-71.5 51q-37 -29 -87.5 -47t-101 -18t-95.5 20.5t-70 67.5q-14 48 -16 97t-0.5 98t3 98.5t-5.5 97.5q-6 20 -21 33t-32 26zM154 588l124 152h81l123 -152h-46l-118 79l-118 -79h-46z" />
    <glyph glyph-name="ograve" unicode="&#xf2;" horiz-adv-x="620" 
d="M168 530q43 16 91 21.5t94.5 -2t89 -28t75.5 -56.5q40 -45 55.5 -104t7.5 -118.5t-39 -111.5t-85 -82q-45 -26 -99.5 -37.5t-108.5 -7t-103.5 27t-85.5 63.5q-41 51 -53.5 117t1.5 129.5t54.5 115t105.5 73.5zM275 510q-17 -4 -30 -15.5t-23 -26.5t-16 -32.5t-10 -33.5
q-21 -131 4 -260q3 -17 10.5 -34.5t18.5 -32t26.5 -23.5t35.5 -9q22 0 38.5 10t28.5 26.5t19.5 36t11.5 38.5q11 71 11 144t-20 142q-4 17 -14 32t-24 25.5t-31 14.5t-36 -2zM344 586l-159 93q-47 26 -47 58q0 50 45 50q31 0 69 -44l138 -157h-46z" />
    <glyph glyph-name="otilde" unicode="&#xf5;" horiz-adv-x="629" 
d="M168 530q43 16 91 21.5t94.5 -2t89 -28t75.5 -56.5q40 -45 55.5 -104t7.5 -118.5t-39 -111.5t-85 -82q-45 -26 -99.5 -37.5t-108.5 -7t-103.5 27t-85.5 63.5q-41 51 -53.5 117t1.5 129.5t54.5 115t105.5 73.5zM275 510q-17 -4 -30 -15.5t-23 -26.5t-16 -32.5t-10 -33.5
q-21 -131 4 -260q3 -17 10.5 -34.5t18.5 -32t26.5 -23.5t35.5 -9q22 0 38.5 10t28.5 26.5t19.5 36t11.5 38.5q11 71 11 144t-20 142q-4 17 -14 32t-24 25.5t-31 14.5t-36 -2zM474 695q-23 -69 -63 -95.5t-82 -12.5q-10 3 -26 13l-47 30q-8 5 -14 8t-11 5q-30 9 -58 -31
l-35 1q21 66 62 93t84 13q15 -4 30 -14l47 -32q5 -3 9.5 -5t7.5 -4q31 -9 59 32z" />
    <glyph glyph-name="egrave" unicode="&#xe8;" horiz-adv-x="551" 
d="M134 503q34 20 72.5 31t78.5 13t79.5 -6t74.5 -25q27 -15 42.5 -39.5t18.5 -51.5t-6.5 -54t-31.5 -46q-30 -26 -64.5 -42t-71.5 -26t-75.5 -16.5t-75.5 -13.5q4 -21 12 -42t20 -39.5t28.5 -32.5t39.5 -20q31 -12 62 -12t62 7.5t61 20t59 24.5q-33 -53 -86 -84.5t-113 -42
t-121.5 1.5t-110.5 47q-51 43 -72 106t-14 128.5t40.5 123t91.5 90.5zM213 466q-15 -22 -22.5 -53t-11.5 -60.5t-4.5 -53t-0.5 -30.5q21 6 44.5 10t45.5 11.5t40.5 20t29.5 34.5q12 30 13.5 64t-15.5 63q-10 16 -26.5 23t-34.5 5.5t-33.5 -10t-24.5 -24.5zM307 587l-159 93
q-47 26 -47 58q0 50 45 50q31 0 68 -44l139 -157h-46z" />
    <glyph glyph-name="ecircumflex" unicode="&#xea;" horiz-adv-x="541" 
d="M134 503q34 20 72.5 31t78.5 13t79.5 -6t74.5 -25q27 -15 42.5 -39.5t18.5 -51.5t-6.5 -54t-31.5 -46q-30 -26 -64.5 -42t-71.5 -26t-75.5 -16.5t-75.5 -13.5q4 -21 12 -42t20 -39.5t28.5 -32.5t39.5 -20q31 -12 62 -12t62 7.5t61 20t59 24.5q-33 -53 -86 -84.5t-113 -42
t-121.5 1.5t-110.5 47q-51 43 -72 106t-14 128.5t40.5 123t91.5 90.5zM213 466q-15 -22 -22.5 -53t-11.5 -60.5t-4.5 -53t-0.5 -30.5q21 6 44.5 10t45.5 11.5t40.5 20t29.5 34.5q12 30 13.5 64t-15.5 63q-10 16 -26.5 23t-34.5 5.5t-33.5 -10t-24.5 -24.5zM107 580l124 152
h81l123 -152h-46l-118 79l-118 -79h-46z" />
    <glyph glyph-name="igrave" unicode="&#xec;" horiz-adv-x="263" 
d="M151 548l-159 93q-47 26 -47 58q0 50 45 50q31 0 68 -44l139 -157h-46zM1 509q29 0 68.5 0.5t76.5 1.5q43 1 88 1v-509l-167 -2v168v72.5t-0.5 74t-1 70.5t-1.5 62q2 14 -4.5 23t-16.5 15t-21.5 11.5t-20.5 11.5z" />
    <glyph glyph-name="Ugrave" unicode="&#xd9;" horiz-adv-x="728" 
d="M682 735q0 -86 1 -169q0 -35 0.5 -73t0.5 -74.5t0.5 -69.5t1.5 -60q0 -32 -4 -65.5t-15 -64.5t-29.5 -58t-46.5 -46q-37 -25 -79 -37.5t-86 -15.5t-88 2t-86 16q-33 8 -62 25.5t-51.5 42t-37 54.5t-18.5 64q-6 57 -6 115t0.5 115.5t0.5 115t-6 114.5q-1 15 -8 25
t-17.5 17.5t-22.5 13.5t-22 13l264 1q-1 -98 -1 -191v-82.5v-84t0.5 -80t1.5 -69.5q0 -24 6 -48.5t18 -45.5t30 -37.5t42 -24.5q28 -8 58 -8.5t58.5 6.5t53.5 22.5t42 40.5q15 21 21.5 45.5t8.5 50t1.5 51t-0.5 50.5l-2 327q0 16 -8 28t-19.5 21t-25.5 15.5t-26 12.5h157z
M462 800l-159 93q-47 26 -47 59q0 49 45 49q31 0 68 -44l139 -157h-46z" />
    <glyph glyph-name="Ucircumflex" unicode="&#xdb;" horiz-adv-x="1338" 
d="M682 735h-157q12 -6 26 -12.5t25.5 -15.5t19.5 -21t8 -28l2 -327q0 -25 0.5 -50.5t-1.5 -51t-8.5 -50t-21.5 -45.5q-17 -25 -42 -40.5t-53.5 -22.5t-58.5 -6.5t-58 8.5q-24 8 -42 24.5t-30 37.5t-18 45.5t-6 48.5q-1 31 -1.5 69.5t-0.5 80v84v82.5q0 93 1 191l-264 -1
q10 -7 22 -13t22.5 -13.5t17.5 -17.5t8 -25q6 -57 6 -114.5t-0.5 -115t-0.5 -115.5t6 -115q4 -34 18.5 -64t37 -54.5t51.5 -42t62 -25.5q42 -11 86 -16t88 -2t86 15.5t79 37.5q28 19 46.5 46t29.5 58t15 64.5t4 65.5q-1 27 -1.5 60t-0.5 69.5t-0.5 74.5t-0.5 73
q-1 83 -1 169zM386 1506l224 362h180l225 -362h-99l-216 168l-216 -168h-98z" />
    <glyph glyph-name="Ograve" unicode="&#xd2;" horiz-adv-x="802" 
d="M329 730q79 14 159 -3.5t143 -69.5q43 -35 71.5 -81t42.5 -98.5t14 -108t-14.5 -108t-43.5 -99t-72 -80.5q-43 -36 -95 -55.5t-107.5 -23t-110.5 8.5t-103 38.5t-85.5 67t-58.5 94.5q-24 51 -30.5 107.5t3 111.5t33 106t60.5 91.5t86 67.5t108 34zM392 689
q-34 -2 -60 -18t-44 -41t-28.5 -55.5t-14.5 -60.5q-6 -48 -10 -97t-2 -98t11 -97t28 -93q14 -32 42.5 -51.5t61.5 -24.5t66 4.5t56 35.5q19 22 30.5 47.5t18 53t9.5 56t4 56.5q1 38 1 76.5t-3.5 77t-12 75.5t-24.5 72q-17 38 -52.5 61.5t-76.5 20.5zM464 773l-159 93
q-47 27 -47 59q0 49 45 49q31 0 69 -44l138 -157h-46z" />
    <glyph glyph-name="Otilde" unicode="&#xd5;" horiz-adv-x="795" 
d="M329 730q79 14 159 -3.5t143 -69.5q43 -35 71.5 -81t42.5 -98.5t14 -108t-14.5 -108t-43.5 -99t-72 -80.5q-43 -36 -95 -55.5t-107.5 -23t-110.5 8.5t-103 38.5t-85.5 67t-58.5 94.5q-24 51 -30.5 107.5t3 111.5t33 106t60.5 91.5t86 67.5t108 34zM392 689
q-34 -2 -60 -18t-44 -41t-28.5 -55.5t-14.5 -60.5q-6 -48 -10 -97t-2 -98t11 -97t28 -93q14 -32 42.5 -51.5t61.5 -24.5t66 4.5t56 35.5q19 22 30.5 47.5t18 53t9.5 56t4 56.5q1 38 1 76.5t-3.5 77t-12 75.5t-24.5 72q-17 38 -52.5 61.5t-76.5 20.5zM579 885
q-23 -69 -63 -95.5t-82 -12.5q-10 3 -26 13l-47 30q-8 5 -14 8t-11 5q-30 9 -58 -31l-35 1q21 66 62 93t84 13q15 -4 30 -14l47 -32q5 -3 9.5 -5t7.5 -4q31 -9 59 32z" />
    <glyph glyph-name="Eth" unicode="&#xd0;" horiz-adv-x="768" 
d="M2 709q48 -1 94.5 4t92.5 10.5t92.5 9t96.5 -1t104 -20t114 -46.5q54 -32 86.5 -82t47 -108t11.5 -120t-21 -118q-12 -42 -37 -78.5t-58 -65t-72.5 -48t-81.5 -29.5q-50 -11 -100.5 -14t-101 -1t-101 8t-100.5 14q0 153 1 305t-2 305q0 14 -6.5 24.5t-16.5 19.5
t-21.5 16.5t-20.5 15.5zM275 670q-11 -9 -16 -21.5t-7 -26t-1.5 -27.5t-0.5 -27q1 -100 0.5 -197.5t-0.5 -196.5q1 -26 3 -54t19 -50q24 -17 53 -21.5t57.5 1.5t54 21t43.5 38q20 27 32.5 57.5t19.5 63t9.5 65.5t3.5 66q0 65 -12 130t-52 119q-17 23 -41.5 39.5t-52 25
t-56.5 8t-56 -12.5zM314 399v-64h-314v64h314z" />
    <glyph glyph-name="Ntilde" unicode="&#xd1;" horiz-adv-x="1342" 
d="M1 735h251q91 -103 183.5 -205.5t184.5 -204.5v331q-1 15 -8.5 26.5t-17.5 20.5t-21.5 16.5t-21.5 15.5h149l-4 -767q-101 112 -199 218q-42 45 -87 94t-89 96.5t-85.5 91.5t-75.5 80q-2 -138 -1.5 -274t0.5 -273h-73q1 122 1 239v103.5t-0.5 105.5t-1.5 100.5t-2 87.5
q1 19 -6.5 33t-20 25.5t-27.5 20.5t-28 19zM447 1536h-82q52 260 227 260q40 0 120.5 -24t116.5 -24q69 0 95 88h80q-52 -260 -223 -260q-41 0 -121 26t-116 26q-77 0 -97 -92z" />
    <glyph glyph-name="agrave" unicode="&#xe0;" horiz-adv-x="690" 
d="M150 504q48 24 100 32t104.5 2t103 -24.5t94.5 -46.5q1 -87 -1.5 -173t3.5 -173q3 -21 16.5 -31.5t31.5 -15.5t37.5 -8t34.5 -9q-31 -22 -67 -36t-73 -16.5t-72.5 8t-66.5 36.5q-37 -23 -82 -36t-90 -11.5t-86 18.5t-71 54q-34 49 -46 111t-1.5 123t43 113.5t88.5 82.5z
M264 480q-20 -14 -31.5 -34.5t-17.5 -43.5t-9 -47t-5 -46q-1 -28 -1.5 -56.5t2.5 -57t11 -55t25 -49.5q15 -20 38.5 -24.5t45.5 2.5t38 24.5t17 42.5q8 74 8 147.5t-8 147.5q-2 19 -14 33.5t-28.5 22t-35.5 6.5t-35 -13zM363 580l-159 93q-47 26 -47 58q0 50 45 50
q31 0 68 -44l139 -157h-46z" />
    <glyph glyph-name="atilde" unicode="&#xe3;" horiz-adv-x="691" 
d="M150 504q48 24 100 32t104.5 2t103 -24.5t94.5 -46.5q1 -87 -1.5 -173t3.5 -173q3 -21 16.5 -31.5t31.5 -15.5t37.5 -8t34.5 -9q-31 -22 -67 -36t-73 -16.5t-72.5 8t-66.5 36.5q-37 -23 -82 -36t-90 -11.5t-86 18.5t-71 54q-34 49 -46 111t-1.5 123t43 113.5t88.5 82.5z
M264 480q-20 -14 -31.5 -34.5t-17.5 -43.5t-9 -47t-5 -46q-1 -28 -1.5 -56.5t2.5 -57t11 -55t25 -49.5q15 -20 38.5 -24.5t45.5 2.5t38 24.5t17 42.5q8 74 8 147.5t-8 147.5q-2 19 -14 33.5t-28.5 22t-35.5 6.5t-35 -13zM486 695q-23 -69 -63 -95.5t-82 -12.5q-10 3 -26 13
l-47 30q-8 5 -14 8t-11 5q-30 9 -58 -31l-35 1q21 66 62 93t84 13q15 -4 30 -14l47 -32q5 -3 9.5 -5t7.5 -4q31 -9 59 32z" />
    <glyph glyph-name="Agrave" unicode="&#xc0;" horiz-adv-x="780" 
d="M334 732h61q79 -179 160.5 -366.5t162.5 -366.5h-211q-23 52 -46 103.5t-46 103.5q-59 -1 -117 -1h-117q-7 -17 -16 -37.5t-16.5 -40.5t-12 -37.5t-4.5 -27.5q0 -16 12 -31.5t30 -31.5h-160q42 95 82 186t79 180.5t78.5 180.5t80.5 186zM298 467q-22 -51 -44.5 -101
t-44.5 -101h180q-23 51 -45.5 101t-45.5 101zM494 760l-159 93q-47 27 -47 59q0 49 45 49q31 0 69 -44l138 -157h-46z" />
    <glyph glyph-name="Atilde" unicode="&#xc3;" horiz-adv-x="759" 
d="M334 732h61q79 -179 160.5 -366.5t162.5 -366.5h-211q-23 52 -46 103.5t-46 103.5q-59 -1 -117 -1h-117q-7 -17 -16 -37.5t-16.5 -40.5t-12 -37.5t-4.5 -27.5q0 -16 12 -31.5t30 -31.5h-160q42 95 82 186t79 180.5t78.5 180.5t80.5 186zM298 467q-22 -51 -44.5 -101
t-44.5 -101h180q-23 51 -45.5 101t-45.5 101zM552 900q-23 -69 -63 -95.5t-82 -12.5q-10 3 -26 13l-47 30q-8 5 -14 8t-11 5q-30 9 -58 -31l-35 1q21 66 62 93t84 13q15 -4 30 -14l47 -32q5 -3 9.5 -5t7.5 -4q31 -9 59 32z" />
    <glyph glyph-name="Egrave" unicode="&#xc8;" horiz-adv-x="640" 
d="M6 734h559q-2 -50 -5 -101t-2 -102q-12 20 -24.5 41.5t-28 40t-34.5 32.5t-43 20q-42 9 -84.5 7.5t-84.5 -0.5v-244q41 -3 80 -2q33 1 68.5 6t59.5 19v-118q-24 14 -59.5 20t-68.5 7q-39 1 -80 -2v-293q31 1 63.5 0.5t64.5 1.5t63 8.5t60 22.5q34 18 56.5 48t43.5 60
q-8 -51 -14 -101.5t-13 -101.5q-128 -2 -256 -1t-256 0v644q0 16 -6 28.5t-15.5 23t-21 19.5t-22.5 17zM377 767l-159 93q-47 27 -47 59q0 49 45 49q31 0 69 -44l138 -157h-46z" />
    <glyph glyph-name="Ecircumflex" unicode="&#xca;" horiz-adv-x="643" 
d="M6 734h559q-2 -50 -5 -101t-2 -102q-12 20 -24.5 41.5t-28 40t-34.5 32.5t-43 20q-42 9 -84.5 7.5t-84.5 -0.5v-244q41 -3 80 -2q33 1 68.5 6t59.5 19v-118q-24 14 -59.5 20t-68.5 7q-39 1 -80 -2v-293q31 1 63.5 0.5t64.5 1.5t63 8.5t60 22.5q34 18 56.5 48t43.5 60
q-8 -51 -14 -101.5t-13 -101.5q-128 -2 -256 -1t-256 0v644q0 16 -6 28.5t-15.5 23t-21 19.5t-22.5 17zM141 772l124 152h81l123 -152h-46l-118 79l-118 -79h-46z" />
    <glyph glyph-name="Igrave" unicode="&#xcc;" horiz-adv-x="285" 
d="M5 730h257v-276v-119v-122t-0.5 -116t-0.5 -102q-48 1 -94 1t-93 2q0 156 1 311t-2 312q2 37 -18.5 63.5t-49.5 45.5zM171 783l-159 93q-47 27 -47 59q0 49 45 49q31 0 68 -44l139 -157h-46z" />
    <glyph glyph-name="Idieresis" unicode="&#xcf;" horiz-adv-x="708" 
d="M5 730h257v-276v-119v-122t-0.5 -116t-0.5 -102q-48 1 -94 1t-93 2q0 156 1 311t-2 312q2 37 -18.5 63.5t-49.5 45.5zM403 1688q0 57 41.5 97.5t99.5 40.5t99 -40t41 -98q0 -60 -40 -101t-100 -41t-100.5 41.5t-40.5 100.5zM21 1688q0 57 42.5 97.5t99.5 40.5
q59 0 99 -39.5t40 -98.5q0 -61 -38.5 -101.5t-100.5 -40.5q-59 0 -100.5 41.5t-41.5 100.5z" />
    <glyph glyph-name="Scaron" unicode="&#x160;" horiz-adv-x="574" 
d="M381 827q0 -6 -4 -12l-71 -121q-8 -13 -20 -13t-20 13q-1 2 -3 5t-8.5 14.5t-20.5 35t-38 66.5q-4 6 -4 12q0 11 14 18q11 5 16 5q9 0 16 -12l48 -122l49 122q7 12 15 12q7 0 17 -5q14 -7 14 -18zM544 173q0 -54 -26.5 -88.5t-66.5 -55t-88 -29t-91 -8.5q-36 0 -78.5 7.5
t-78.5 25.5t-60 48.5t-24 76.5q0 31 12 54t32.5 39t47 24t54.5 8q23 0 45.5 -5.5t40 -17.5t28 -31t10.5 -45q0 -30 -9 -46t-23 -24.5t-30.5 -10.5t-30 -4.5t-22.5 -6.5t-9 -17q0 -12 5.5 -19t14.5 -11.5t20 -6t21 -1.5q28 0 49 11.5t34.5 31.5t21 45.5t7.5 51.5
q0 22 -7 43.5t-19 38.5t-29.5 28t-39.5 13q-38 8 -77.5 15.5t-71 22.5t-51.5 42.5t-20 77.5q0 51 26.5 83t67 50t87.5 25t88 7q35 0 74.5 -8t73 -26t55.5 -47.5t22 -73.5q0 -29 -11.5 -50.5t-30.5 -35t-43.5 -20t-49.5 -6.5q-22 0 -43.5 5t-38.5 17t-27 30.5t-10 45.5
q0 22 8.5 35t21 21t28 11.5t28 7t21 8t8.5 14.5q0 11 -4.5 18.5t-12.5 12t-17 6t-18 1.5q-26 0 -48.5 -12t-38 -31t-24.5 -43t-9 -49q0 -38 10.5 -58.5t36.5 -33t70.5 -22.5t111.5 -27q26 -7 44.5 -21t30 -32.5t17 -39t5.5 -39.5z" />
  </font>
</defs>
</svg>
